<svg width="20" height="20" viewBox="0 0 20 20" fill="none" xmlns="http://www.w3.org/2000/svg">
<rect width="20" height="20" rx="2" fill="#A36EFD"/>
<path fill-rule="evenodd" clip-rule="evenodd" d="M5.57577 11.5209L5.62619 12.4394C5.62949 12.5019 5.65294 12.5608 5.6925 12.609C5.96908 12.9439 7.2091 14.1122 10.0035 14.1122C12.7978 14.1122 14.0229 12.9589 14.3097 12.6153C14.3529 12.5634 14.3778 12.499 14.3818 12.4313L14.4318 11.5215C14.7645 11.339 15.1079 11.1327 15.1079 11.1327C15.6479 10.8402 16.2505 11.2604 16.2516 11.8767C16.2535 12.874 15.4743 13.8988 14.4233 14.5446C13.2382 15.2728 11.4692 15.5749 10.0042 15.5749C8.53927 15.5749 6.77028 15.2728 5.5852 14.5446C4.53419 13.8988 3.75501 12.8743 3.75684 11.8767C3.75794 11.2604 4.36055 10.8402 4.90052 11.1327C4.90052 11.1327 5.24336 11.3385 5.57577 11.5209Z" fill="#4C2897"/>
<path fill-rule="evenodd" clip-rule="evenodd" d="M10.0039 5.00266C12.2887 5.00266 12.9081 5.05601 13.8371 5.16272H13.8368C14.265 5.21203 14.6083 5.5307 14.5764 5.96233L14.2342 10.624C14.1271 10.655 14.0103 10.6942 13.8794 10.7381C13.193 10.9685 12.1169 11.3296 10.0038 11.3296C7.89075 11.3296 6.81473 10.9685 6.12833 10.7381C5.99724 10.6941 5.88034 10.6549 5.77317 10.6239L5.43097 5.96233C5.39947 5.5307 5.74162 5.2043 6.17059 5.16272C7.08824 5.07367 8.04364 5.00266 10.0039 5.00266ZM5.93713 12.8576L5.93834 12.874L5.96195 12.8794C5.9535 12.872 5.94523 12.8648 5.93713 12.8576ZM14.0478 12.8789L14.069 12.874L14.0701 12.859C14.0628 12.8656 14.0553 12.8722 14.0478 12.8789Z" fill="#4C2897"/>
</svg>
