<svg width="24" height="24" viewBox="0 0 24 24" fill="none" xmlns="http://www.w3.org/2000/svg">
<mask id="mask0_4973_218324" style="mask-type:alpha" maskUnits="userSpaceOnUse" x="1" y="0" width="23" height="24">
<circle cx="12.0001" cy="12" r="11.0001" fill="white"/>
</mask>
<g mask="url(#mask0_4973_218324)">
<circle cx="12.0001" cy="12" r="11.0001" fill="#0060D1"/>
<path d="M16.2143 20.5639C15.9434 21.0296 15.0743 20.9901 14.7204 20.9766C10.3789 20.8106 13.1422 21.8509 4.55834 20.839C4.55834 20.839 0.206442 20.326 0.234017 20.0135C0.247366 19.8621 1.76323 20.1023 3.12344 19.1879C3.24931 19.1033 3.60243 18.8552 3.96867 18.441C4.59515 17.7325 4.83719 17.0164 4.91215 16.7703C4.96403 16.5999 5.00121 16.4401 5.02772 16.2839C5.03631 16.2832 5.04463 16.2784 5.04837 16.2683C5.07493 16.1965 5.09327 16.1215 5.10301 16.0453C5.11331 16.044 5.12274 16.0366 5.12274 16.0232C5.12283 15.9541 5.12551 15.8851 5.12957 15.8162C5.13257 15.7892 5.13511 15.7621 5.13719 15.735C5.14828 15.6733 5.15632 15.6112 5.16015 15.5486C5.16962 15.5463 5.17789 15.5387 5.17789 15.5269C5.17793 15.4632 5.17918 15.3996 5.1813 15.3361C5.188 15.2597 5.19327 15.1834 5.19789 15.1073C5.20703 15.1049 5.2147 15.0974 5.21465 15.0857C5.21452 15.0384 5.21188 14.9912 5.20699 14.9443C5.20962 14.8934 5.21211 14.8425 5.21465 14.7916C5.21572 14.7703 5.1929 14.7644 5.1789 14.7735C5.1729 14.7467 5.16615 14.72 5.15867 14.6935C5.15571 14.683 5.14856 14.678 5.1408 14.6772C5.14066 14.6765 5.14047 14.6758 5.14029 14.6752C5.13738 14.6647 5.12805 14.6595 5.11862 14.659C5.12315 14.593 5.12274 14.5266 5.12274 14.4607C5.12274 14.4356 5.08135 14.4281 5.07738 14.4546C5.07659 14.4596 5.0759 14.4647 5.07516 14.4699C5.0577 14.1662 5.01645 13.8584 4.91215 13.5073C4.8753 13.3833 4.82065 13.2205 4.42074 12.4066C3.83001 11.2043 3.80793 11.2719 3.65417 10.8734C3.62996 10.8107 3.60724 10.7488 3.58594 10.6878C3.32622 9.94409 3.27485 9.33794 3.26104 9.12408C3.21305 8.38153 3.32368 7.8181 3.35933 7.64988C3.41864 7.36992 3.57121 6.67882 4.00798 6.01844C4.80342 4.81565 6.07924 4.41412 6.60253 4.2494C7.83137 3.86265 8.83956 4.01 9.72969 4.14007C10.4001 4.23804 11.3755 4.39102 12.3818 4.98831C12.526 5.0739 12.6709 5.16863 12.8156 5.27367C13.2162 5.56444 13.5112 5.8583 13.7081 6.07632L13.7102 6.08445L14.4649 9.02579C14.9081 12.8907 14.6802 15.7872 14.1308 16.4951C13.9438 16.736 13.7196 16.9353 13.5701 17.0563C13.4701 17.1371 13.4035 17.183 13.4035 17.183C13.0318 17.439 12.6324 17.7141 12.1652 17.6548C11.9531 17.6278 11.7283 17.5321 11.6738 17.6154C11.6474 17.6558 11.6786 17.7112 11.7327 17.8513C11.8268 18.0949 11.8233 18.1632 11.8703 18.2837C11.9741 18.5495 12.2247 18.816 12.4296 18.9692C12.4399 18.9769 12.45 18.9843 12.46 18.9914C12.7456 19.1937 12.8786 19.1249 14.1111 19.2666C15.6098 19.4388 15.0824 19.5025 15.6246 19.5221C15.7824 19.5278 15.971 19.5276 16.116 19.6597C16.1781 19.7162 16.2249 19.7902 16.257 19.8734C16.3416 20.0926 16.3242 20.3749 16.2143 20.5639Z" fill="#F6B79F"/>
<path opacity="0.2" d="M16.2555 19.8727C16.0475 19.8624 15.6732 19.8407 14.998 19.8052C14.5929 19.7839 14.1896 19.736 13.7846 19.713C13.2459 19.6824 13.0752 19.6871 12.8783 19.5594C12.6694 19.4239 12.4934 19.1798 12.4272 18.9683C12.4375 18.976 12.4477 18.9834 12.4576 18.9904C12.7433 19.1928 12.8763 19.124 14.1092 19.2657C15.6082 19.4379 15.0807 19.5017 15.623 19.5213C15.7808 19.527 15.9696 19.5268 16.1146 19.6589C16.1766 19.7154 16.2234 19.7895 16.2555 19.8727Z" fill="white"/>
<path opacity="0.55" d="M12.3809 4.98831C11.4772 4.99371 8.97102 3.91965 6.64272 5.10415C5.12209 5.8777 4.01584 7.44244 3.67352 8.97701C3.53384 9.60317 3.5307 10.1826 3.58507 10.6878C3.32534 9.94409 3.27398 9.33794 3.26017 9.12408C3.21217 8.38153 3.3228 7.8181 3.35846 7.64988C3.41777 7.36992 3.57033 6.67882 4.00711 6.01844C4.80255 4.81565 6.07837 4.41412 6.60165 4.2494C7.8305 3.86265 8.83869 4.01 9.72882 4.14007C10.3992 4.23804 11.3747 4.39102 12.3809 4.98831Z" fill="white"/>
<path opacity="0.45" d="M7.37019 9.52152C7.6687 9.39669 8.04178 9.24062 8.49977 9.25716C9.12834 9.27984 9.41451 9.60949 9.55723 9.47347C9.71916 9.31911 9.54799 8.70662 9.17269 8.51216C8.9202 8.38132 8.76963 8.54034 8.42765 8.39199C8.11565 8.25662 8.09338 8.06017 7.8749 8.03148C7.78152 8.01924 7.58189 8.02838 7.20197 8.44004C6.6573 9.03021 6.26686 9.87907 6.4329 10.0022C6.53533 10.0782 6.73003 9.7893 7.37019 9.52152Z" fill="white"/>
<path opacity="0.3" d="M3.78171 19.773C3.78988 19.7593 3.81801 19.7657 3.88023 19.7659C3.88023 19.7659 3.88305 19.7659 4.02896 19.7548C4.17982 19.7434 6.11412 19.4982 7.39304 19.7085C7.49299 19.7249 7.71401 19.7647 7.90893 19.9326C8.06247 20.0648 8.26594 20.3334 8.2154 20.5149C8.02048 21.2151 4.16961 20.1672 3.88531 19.9134C3.87131 19.901 3.763 19.8043 3.78171 19.773Z" fill="white"/>
<path opacity="0.2" d="M11.3439 20.0519C10.7621 19.9368 10.4664 19.8822 10.2291 20.0232C9.97333 20.1753 9.79032 20.5266 9.91063 20.7115C10.2073 21.1675 12.3732 20.649 12.363 20.3673C12.3589 20.2526 11.9939 20.1804 11.3438 20.0519H11.3439Z" fill="white"/>
<path opacity="0.15" d="M6.23462 13.6121C6.3743 13.8423 6.57984 14.1543 6.86068 14.498C7.15477 14.8578 8.01603 15.8455 9.4846 16.5915C11.1717 17.4485 12.5896 17.4425 12.5684 17.6126C12.5536 17.7319 11.8509 17.7661 11.3172 17.7011C11.2293 17.6904 10.8756 17.644 10.329 17.4406C10.1903 17.389 9.77851 17.2303 8.98487 16.7544C8.48884 16.4571 7.67381 15.9631 7.13824 15.3789C6.85089 15.0655 6.64696 14.7297 6.64696 14.7297C6.54645 14.5642 6.47499 14.4194 6.42806 14.3165" fill="#8B3826"/>
<path d="M13.6185 6.14448C13.4674 5.97676 13.2473 5.75431 12.9548 5.52595C12.2682 4.99 11.6255 4.76764 11.1296 4.60085C10.8071 4.4924 9.87151 4.20061 8.60433 4.17581C7.91295 4.16228 7.31386 4.14629 6.55413 4.37581C6.15629 4.496 5.21873 4.79231 4.40389 5.67597C4.15815 5.94244 3.69708 6.50804 3.42849 7.35651C3.07125 8.48503 3.26747 9.44139 3.36101 9.87027C3.53376 10.6624 3.87247 11.3258 4.19973 11.9667C4.40195 12.3627 4.60421 12.7039 4.84149 13.3122C4.96482 13.6283 5.09526 13.9626 5.179 14.3519C5.3882 15.3244 5.19868 16.1407 5.12898 16.4271C5.03378 16.8184 4.69752 18.116 3.4538 19.0774C2.09586 20.1272 0.599482 20.047 0.233887 20.0171" stroke="#8B3826" stroke-width="0.254046" stroke-miterlimit="10"/>
<g opacity="0.55">
<path d="M9.80296 16.2903C9.84584 16.3453 9.88678 16.4026 9.93095 16.455C9.9724 16.5048 10.0157 16.5507 10.0627 16.5947C10.1467 16.6734 10.2415 16.74 10.3378 16.8043C10.3527 16.8142 10.3679 16.8243 10.3834 16.8355C10.3647 16.8395 10.346 16.8409 10.3272 16.8414C10.1174 16.8442 9.91849 16.7018 9.83767 16.5105C9.80886 16.4411 9.79312 16.3653 9.803 16.2903L9.80296 16.2903Z" fill="#8B3826"/>
</g>
<g opacity="0.65">
<path d="M7.08081 11.1375C7.15694 11.1419 7.2376 11.1509 7.31253 11.1539C7.37567 11.1567 7.43683 11.1574 7.49937 11.1543C7.62681 11.1492 7.75129 11.1283 7.87716 11.1049C7.90725 11.0993 7.93582 11.0937 7.96716 11.0892C7.95578 11.1072 7.94252 11.1235 7.92837 11.1388C7.76849 11.3088 7.50187 11.3583 7.28572 11.278C7.20746 11.2482 7.13397 11.203 7.08081 11.1375Z" fill="#8B3826"/>
</g>
<path d="M8.57005 10.6983C8.44032 10.8205 8.48477 11.035 8.4916 11.068C8.50519 11.1336 8.52413 11.2251 8.60983 11.2921C8.71716 11.376 8.85373 11.3625 9.0542 11.3735C9.37317 11.3911 9.6228 11.458 9.80063 11.5056C10.1717 11.605 10.3024 11.7132 10.4639 11.6535C10.5752 11.6124 10.6199 11.5216 10.6287 11.5039C10.6791 11.4013 10.66 11.2676 10.5712 11.1828C10.4655 11.0817 10.3388 11.1241 10.1029 11.0329C9.93087 10.9664 9.88532 10.9002 9.75614 10.8197C9.39983 10.5975 8.78152 10.4992 8.5701 10.6984L8.57005 10.6983Z" fill="#C66E60" stroke="#515151" stroke-width="0.207856" stroke-miterlimit="10"/>
<path d="M10.212 11.1041C10.2437 10.8488 9.94441 10.6015 9.54342 10.5516C9.14243 10.5017 8.79163 10.6682 8.75988 10.9235C8.72813 11.1787 9.02746 11.4261 9.42844 11.476C9.82943 11.5259 10.1802 11.3594 10.212 11.1041Z" fill="black"/>
<path d="M8.97335 11.2904C9.06879 11.2904 9.14616 11.213 9.14616 11.1176C9.14616 11.0221 9.06879 10.9448 8.97335 10.9448C8.87791 10.9448 8.80054 11.0221 8.80054 11.1176C8.80054 11.213 8.87791 11.2904 8.97335 11.2904Z" fill="white"/>
<path d="M8.16289 10.8608C8.38475 10.5777 8.71943 10.3893 9.08636 10.4271C9.15557 10.4337 9.22825 10.4466 9.29584 10.4624C9.62604 10.5412 9.93652 10.6652 10.245 10.8016C10.3363 10.8424 10.4265 10.8854 10.5163 10.9295C10.5357 10.9394 10.578 10.9606 10.5986 10.9688C10.6683 10.9974 10.7477 11.0132 10.8065 10.9551C10.8717 10.8896 10.897 10.7895 10.9172 10.6998C10.9422 10.8216 10.9412 10.9679 10.8484 11.0643C10.772 11.1427 10.653 11.151 10.5525 11.1296C10.5248 11.1241 10.4982 11.1166 10.4719 11.1086C10.4321 11.0966 10.3922 11.0844 10.3527 11.0719C10.1029 10.9935 9.8503 10.9043 9.60313 10.818C9.43029 10.7584 9.2635 10.6976 9.0884 10.6557C9.04885 10.6472 9.00745 10.6393 8.96781 10.635C8.68316 10.6028 8.40983 10.7244 8.16284 10.8608H8.16289Z" fill="#8B3826"/>
<path d="M8.20508 11.6525C8.40471 11.3944 8.73852 11.2463 9.0647 11.272C9.11123 11.2752 9.15891 11.2812 9.20474 11.2893C9.40821 11.3241 9.67992 11.4183 9.87946 11.4767C10.2079 11.5779 10.5469 11.6572 10.878 11.7506C10.4109 11.8316 9.92714 11.7588 9.47857 11.6201C9.32611 11.5746 9.15512 11.5157 8.99947 11.493C8.72577 11.4508 8.45032 11.5319 8.20508 11.6525Z" fill="#8B3826"/>
<g opacity="0.55">
<path d="M7.53091 13.6123C7.41508 13.4317 7.35992 13.2087 7.37466 12.9936C7.38154 12.8846 7.40709 12.777 7.43846 12.6729C7.45306 12.6222 7.46886 12.5706 7.48757 12.5188C7.54264 12.3617 7.63227 12.2136 7.76926 12.1129C7.87081 12.0364 7.99699 11.9981 8.11841 11.9774C8.65028 11.8942 9.19167 11.9696 9.7155 12.0621C9.86926 12.0886 10.0189 12.1187 10.1724 12.1287L10.2094 12.1301L10.2187 12.1305C10.2218 12.1306 10.2248 12.1305 10.2279 12.1304L10.2462 12.1302C10.3072 12.1301 10.3682 12.1236 10.4279 12.1108C10.4428 12.1071 10.4578 12.1036 10.4727 12.1001C10.4757 12.0994 10.4787 12.0983 10.4817 12.0975L10.4995 12.0921L10.5174 12.0868L10.5263 12.0841L10.5356 12.0811C10.6056 12.0571 10.6758 12.0321 10.736 11.9891C10.761 11.9696 10.7822 11.9508 10.7854 11.9217C10.7861 11.9031 10.7769 11.8838 10.7643 11.8683C10.7413 11.8397 10.7113 11.8179 10.6791 11.7988C10.635 11.7727 10.5863 11.7527 10.5363 11.7358C10.6354 11.7463 10.7742 11.7795 10.8319 11.8686C10.9168 12.0154 10.6836 12.1346 10.5771 12.1845C10.5564 12.194 10.5316 12.2044 10.5106 12.2133C10.4915 12.22 10.4603 12.232 10.441 12.2372C10.3805 12.2554 10.3176 12.2684 10.2547 12.2741C10.2452 12.275 10.2318 12.2764 10.2232 12.2771L10.2128 12.2776L10.171 12.2796C10.0091 12.2837 9.84648 12.2625 9.68861 12.2438C9.59796 12.2329 9.46638 12.2162 9.37707 12.206C8.96759 12.1584 8.55829 12.1231 8.14918 12.172C8.00032 12.1929 7.88957 12.2283 7.78294 12.3373C7.67945 12.4419 7.62165 12.5808 7.56722 12.7174C7.43767 13.0144 7.4179 13.3044 7.53109 13.6123L7.53091 13.6123Z" fill="#8B3826"/>
</g>
<path d="M6.19757 12.6658C6.19088 13.0288 6.23217 13.3886 6.32672 13.7377C6.46973 14.2658 6.73241 14.7643 7.09325 15.1702C7.29824 15.3901 7.53792 15.5752 7.77617 15.7587C8.06269 15.9751 8.35461 16.1923 8.6547 16.389C8.86067 16.5248 9.07601 16.6556 9.29162 16.7754C9.50493 16.8951 9.73712 17.0108 9.95583 17.1208C10.1642 17.2251 10.3759 17.3268 10.5933 17.4092C10.7579 17.4705 10.9266 17.5206 11.0989 17.5543C11.1752 17.5699 11.2637 17.5838 11.3408 17.5947C11.5024 17.6179 11.6652 17.6332 11.8284 17.6339C12.347 17.6383 12.863 17.4893 13.3063 17.2196C13.5445 17.0761 13.7614 16.9024 13.9602 16.7051C13.788 16.926 13.5819 17.1255 13.3536 17.291C12.7512 17.7288 12.0514 17.8892 11.3154 17.8033C11.2183 17.7936 11.1128 17.7797 11.0167 17.7627C10.8902 17.7397 10.7601 17.7085 10.6371 17.6703C10.2027 17.5345 9.79666 17.3196 9.39282 17.118C9.29693 17.0676 9.18806 17.0091 9.09402 16.9559C8.8863 16.8379 8.67822 16.7086 8.48024 16.5749C8.21202 16.3931 7.95294 16.1962 7.69908 15.9953C7.45432 15.8004 7.2114 15.6007 6.99828 15.3698C6.95902 15.3266 6.92077 15.2812 6.88553 15.2351C6.32774 14.5157 6.06653 13.5672 6.19762 12.6658H6.19757Z" fill="#8B3826"/>
<path d="M11.6541 17.7238C11.6783 17.9104 11.7417 18.1839 11.9165 18.4643C11.9917 18.5851 12.2417 18.974 12.7269 19.1635C12.875 19.2213 12.994 19.2407 13.116 19.2605C13.5077 19.3241 13.7013 19.2611 14.0166 19.252C14.3268 19.243 14.3392 19.2982 15.3484 19.4877C15.6556 19.5454 15.9067 19.5876 16.0673 19.6138" stroke="#8B3826" stroke-width="0.207856" stroke-miterlimit="10"/>
<g opacity="0.75">
<path d="M7.20264 19.4293C7.47273 19.3273 7.7912 19.2927 8.05856 19.4228C8.14995 19.4668 8.23122 19.536 8.30047 19.6078C8.41796 19.7318 8.51915 19.8576 8.62402 19.9899C8.66588 20.0438 8.7094 20.1044 8.75011 20.1555C8.77238 20.1829 8.79585 20.2093 8.82394 20.2302C8.887 20.2742 8.96721 20.2978 9.0433 20.3068C9.12854 20.3159 9.22071 20.3052 9.28272 20.2441C9.31862 20.2068 9.32998 20.1565 9.34098 20.1046C9.35539 20.0311 9.36814 19.9534 9.39901 19.8824C9.43024 19.8082 9.48097 19.7423 9.54339 19.6915C9.55332 19.6841 9.56418 19.676 9.57374 19.6691C9.59707 19.6537 9.62253 19.6394 9.64794 19.6279L9.66707 19.62L9.67663 19.6161L9.68144 19.6141L9.68624 19.6125L9.70541 19.6061C9.80396 19.5751 9.90011 19.5665 10.0007 19.5598C10.0817 19.5548 10.1678 19.5523 10.2489 19.5503C10.4505 19.5465 10.6535 19.5626 10.8505 19.6052C10.64 19.611 10.4307 19.6282 10.2237 19.6622C10.1325 19.6769 10.0388 19.6905 9.94899 19.708C9.88671 19.7198 9.81759 19.7365 9.76159 19.76C9.68975 19.7896 9.63348 19.837 9.59582 19.9029C9.5542 19.9779 9.5499 20.0513 9.53516 20.1402C9.52624 20.1945 9.51372 20.2506 9.48711 20.303C9.40113 20.4745 9.1996 20.5353 9.02057 20.5135C8.90627 20.4997 8.79363 20.463 8.70063 20.3939C8.65867 20.3614 8.62282 20.3219 8.59127 20.2799C8.53268 20.2014 8.48426 20.1264 8.42785 20.0492C8.32002 19.906 8.21616 19.7452 8.09118 19.6201C8.06092 19.591 8.02779 19.5643 7.9924 19.5418C7.9475 19.5127 7.89741 19.4903 7.84733 19.4715C7.80557 19.4571 7.76255 19.4447 7.71917 19.4363C7.54924 19.4009 7.37525 19.4093 7.20264 19.4294V19.4293Z" fill="#8B3826"/>
</g>
<g opacity="0.35">
<path d="M4.8682 18.4929C5.00085 18.4994 5.14278 18.5468 5.27376 18.5482C5.33604 18.5519 5.39513 18.5609 5.44429 18.5111C5.51765 18.4359 5.52315 18.3119 5.53184 18.2108C5.53558 18.1646 5.54094 18.117 5.55337 18.0707C5.56529 18.0242 5.58479 17.9798 5.60705 17.9368C5.63404 17.8832 5.66656 17.829 5.70482 17.7828C5.83857 17.6195 6.06181 17.5211 6.27074 17.5227C6.2827 17.523 6.29467 17.5235 6.30682 17.5248L6.3162 17.5484C6.28492 17.5853 6.25286 17.6163 6.22204 17.6474C6.14918 17.7199 6.07595 17.7889 6.00568 17.8624C5.97606 17.8929 5.94645 17.9232 5.91647 17.9533C5.88667 17.9826 5.85617 18.0133 5.8278 18.0442C5.80969 18.0655 5.79033 18.0883 5.77407 18.1111C5.76525 18.1228 5.74751 18.1462 5.7385 18.1578C5.688 18.2222 5.63163 18.2916 5.59897 18.3691C5.57079 18.4321 5.55554 18.4966 5.53415 18.5632C5.49534 18.6888 5.39499 18.7772 5.25916 18.7767C5.13649 18.7738 5.02284 18.7134 4.93935 18.6299C4.90549 18.5953 4.87615 18.5581 4.85425 18.5141L4.8682 18.4929Z" fill="#8B3826"/>
</g>
<g opacity="0.45">
<path d="M6.08105 14.764C6.54783 15.3903 6.55139 16.424 6.08105 17.0493C6.0902 16.9641 6.10319 16.8758 6.11414 16.7914C6.1432 16.568 6.16634 16.3419 6.17457 16.1173C6.18468 15.8597 6.17521 15.6005 6.1505 15.3439C6.13687 15.2016 6.1188 15.0557 6.09944 14.9127C6.09358 14.865 6.08572 14.8119 6.0811 14.764H6.08105Z" fill="#8B3826"/>
</g>
<path opacity="0.35" d="M6.80813 14.9739C6.73256 15.015 7.01201 15.7532 7.32897 16.3296C7.62274 16.8638 8.37832 18.2379 9.86883 18.7572C10.9678 19.1401 12.134 18.9427 12.1595 18.7829C12.166 18.7425 12.0961 18.7244 11.9685 18.5503C11.9276 18.4944 11.8186 18.3434 11.7515 18.1389C11.6684 17.8854 11.7335 17.8048 11.648 17.721C11.5471 17.6222 11.3953 17.6744 11.1803 17.6751C10.9817 17.6757 10.7948 17.6063 10.4212 17.4675C9.99775 17.3102 9.66979 17.1338 9.36956 16.9625C8.25254 16.325 7.69401 16.0063 7.21673 15.4445C6.99086 15.1787 6.85233 14.9499 6.80818 14.974L6.80813 14.9739Z" fill="#8B3826"/>
<path d="M10.4128 17.8228C10.5076 17.8408 10.5896 17.9064 10.6382 17.9887C10.6612 18.027 10.6766 18.0701 10.6855 18.1138C10.6877 18.1262 10.6894 18.1388 10.6912 18.1513C10.6913 18.1538 10.6919 18.1612 10.692 18.1638C10.704 18.3202 10.6268 18.4797 10.4965 18.5669C10.4703 18.5836 10.4424 18.5981 10.4128 18.6075C10.4401 18.5426 10.4659 18.4882 10.4872 18.4239C10.5123 18.35 10.5292 18.273 10.5318 18.1951C10.5351 18.0495 10.4864 17.9449 10.4129 17.8228H10.4128Z" fill="#8B3826"/>
<g opacity="0.45">
<path d="M11.1697 6.43915C11.2862 6.81555 11.4573 7.16109 11.6516 7.50206C11.7356 7.65831 11.8063 7.82949 11.8491 8.00445C11.8782 8.1261 11.9056 8.25274 11.8923 8.38099C11.8825 8.47543 11.8472 8.56913 11.7887 8.6449C11.7568 8.68708 11.7125 8.72584 11.6758 8.75818C11.617 8.80886 11.5645 8.8619 11.5182 8.92349C11.4708 8.98549 11.4312 9.05272 11.397 9.12303C11.376 9.16605 11.3569 9.21137 11.3394 9.25596C11.3332 9.27111 11.328 9.28654 11.3217 9.30188L11.3057 9.29906C11.3059 9.166 11.3338 9.03068 11.3916 8.90455C11.4204 8.84153 11.4575 8.78156 11.5008 8.72616C11.5404 8.67488 11.592 8.62669 11.6314 8.57971C11.6844 8.5165 11.7149 8.44129 11.7275 8.3602C11.7435 8.25302 11.7308 8.14042 11.7138 8.0331C11.6654 7.73404 11.511 7.47018 11.392 7.19288C11.2893 6.95023 11.2095 6.69894 11.1541 6.44335L11.1697 6.43915Z" fill="#8B3826"/>
</g>
<g opacity="0.55">
<path d="M9.83611 8.61931C9.83399 8.63631 9.83112 8.6583 9.82918 8.67489C9.82812 8.68487 9.82627 8.70691 9.8253 8.71638C9.82507 8.72451 9.82341 8.749 9.82295 8.75759L9.82253 8.78485C9.8223 8.84436 9.82794 8.90715 9.85076 8.9606C9.863 8.98962 9.88176 9.01595 9.90745 9.03434C9.92103 9.0433 9.93327 9.04852 9.95115 9.05444C9.97998 9.06386 10.0192 9.07421 10.0573 9.08738C10.0956 9.10078 10.1336 9.11672 10.1702 9.13436C10.2065 9.15215 10.2433 9.17179 10.2777 9.19318C10.3104 9.21291 10.3447 9.24003 10.3758 9.25818C10.4333 9.29168 10.5001 9.32143 10.559 9.35511C10.6524 9.40866 10.7383 9.4672 10.8294 9.52828C10.8923 9.57166 10.9571 9.61588 11.0161 9.66624L11.01 9.69091C10.9301 9.70823 10.8476 9.70694 10.7672 9.69687C10.6089 9.67506 10.453 9.61856 10.3284 9.51663C10.2964 9.49062 10.266 9.46373 10.2359 9.43444C10.2103 9.40991 10.1924 9.38824 10.1682 9.36634C10.1402 9.3413 10.1082 9.31792 10.0772 9.29649C10.0342 9.2665 9.98922 9.24077 9.94224 9.21725C9.89668 9.19466 9.85071 9.17188 9.81477 9.13279C9.79051 9.10609 9.77115 9.07416 9.75882 9.0403C9.73475 8.97562 9.73387 8.90045 9.74463 8.83484C9.75716 8.75579 9.78173 8.68251 9.81158 8.61243L9.83602 8.61931H9.83611Z" fill="#8B3826"/>
</g>
<g opacity="0.55">
<path d="M11.4139 10.5435C11.4085 10.4541 11.4436 10.3625 11.5081 10.2995C11.5124 10.2956 11.5184 10.289 11.523 10.2856C11.5385 10.2727 11.5559 10.2594 11.5724 10.2479C11.5955 10.2319 11.6212 10.217 11.6489 10.2109C11.6904 10.2024 11.7348 10.2097 11.7724 10.2282C11.7984 10.2415 11.8212 10.2591 11.8368 10.2849L11.8323 10.298C11.8117 10.3072 11.7828 10.3176 11.7616 10.3256C11.7228 10.3389 11.6914 10.353 11.652 10.3558C11.648 10.3562 11.6421 10.3563 11.6381 10.357C11.6244 10.3586 11.6093 10.3616 11.5966 10.3671C11.5942 10.3682 11.5823 10.3736 11.5801 10.3745C11.5743 10.3778 11.5669 10.3819 11.561 10.385C11.5493 10.3924 11.5382 10.4 11.5274 10.4085C11.5181 10.4163 11.5073 10.4259 11.4989 10.4347C11.47 10.4651 11.4451 10.5029 11.4275 10.5454L11.4138 10.5434L11.4139 10.5435Z" fill="#8B3826"/>
</g>
<g opacity="0.35">
<path d="M11.1225 10.8382C11.2341 10.9323 11.3839 10.98 11.5244 10.9273C11.5879 10.9033 11.6343 10.8541 11.6869 10.8133C11.7304 10.7783 11.7749 10.7349 11.8145 10.6929C11.8256 10.6817 11.8349 10.6706 11.847 10.6594L11.8603 10.6634C11.8649 10.6907 11.8642 10.718 11.8605 10.7451C11.8455 10.8382 11.7916 10.9261 11.7114 10.9769C11.6533 11.0117 11.5866 11.0298 11.5208 11.0398C11.4452 11.0494 11.3662 11.0379 11.2975 11.0053C11.2223 10.9698 11.1582 10.9151 11.1121 10.8475L11.1225 10.8383V10.8382Z" fill="#8B3826"/>
</g>
<path d="M11.65 13.196C11.5665 13.3321 11.4437 13.4428 11.3028 13.5179C11.2732 13.5332 11.2419 13.5476 11.2122 13.5613C11.1914 13.571 11.1656 13.585 11.1509 13.5992C11.1176 13.6307 11.0975 13.6728 11.0844 13.7169C11.0518 13.8336 11.0671 13.9673 11.1227 14.0736C11.2341 14.2842 11.4968 14.363 11.7259 14.3347C11.6013 14.4227 11.4356 14.4466 11.2881 14.4106C11.0373 14.349 10.8747 14.1384 10.8608 13.883C10.8487 13.6991 10.9303 13.4777 11.1185 13.4142C11.1496 13.4029 11.1848 13.3949 11.2166 13.3864C11.3703 13.347 11.5119 13.2752 11.65 13.196Z" fill="#8B3826"/>
<path d="M11.9575 14.1759C12.0082 14.1342 12.0627 14.0925 12.1151 14.0532C12.1671 14.0143 12.2236 13.9731 12.2782 13.9382C12.3318 13.9038 12.3783 13.8579 12.4439 13.8449C12.48 13.8375 12.5192 13.8391 12.552 13.8609C12.5987 13.8922 12.6094 13.9507 12.5887 14.0006C12.5723 14.0394 12.548 14.0678 12.5144 14.0918L12.4992 14.0863C12.4961 14.0765 12.4941 14.0673 12.4921 14.0584C12.4848 14.0297 12.4824 14.0001 12.4691 13.974C12.4669 13.9707 12.463 13.9672 12.4621 13.9723C12.4621 13.9806 12.4672 13.987 12.4738 13.9928C12.4795 13.9977 12.4873 13.9999 12.4918 14.0024C12.4923 14.0026 12.492 14.003 12.4921 14.0032C12.4904 14.0047 12.4886 14.0052 12.4859 14.0063C12.4544 14.0191 12.4176 14.0274 12.3835 14.0374C12.3562 14.0449 12.3185 14.0604 12.2918 14.0709C12.2492 14.0876 12.1967 14.1083 12.1535 14.1242C12.0923 14.1468 12.0277 14.17 11.9654 14.19L11.9575 14.1759Z" fill="#4C130A"/>
<g opacity="0.55">
<path d="M11.812 16.6504C11.9387 16.5473 12.1035 16.4947 12.2662 16.4951C12.4329 16.4937 12.5796 16.5595 12.7234 16.6234C12.8549 16.6817 12.9844 16.6999 13.127 16.6923C13.1573 16.6909 13.188 16.688 13.2204 16.6856C13.198 16.709 13.1727 16.7294 13.1456 16.7472C13.0196 16.8315 12.856 16.8572 12.7076 16.8222C12.6318 16.806 12.5572 16.7754 12.4849 16.748C12.3801 16.707 12.2789 16.6778 12.1685 16.6645C12.1065 16.6565 12.0401 16.6528 11.9745 16.6516C11.9205 16.6502 11.8665 16.6518 11.8121 16.6503L11.812 16.6504Z" fill="#8B3826"/>
</g>
<path d="M8.72363 11.3527C8.72664 11.3405 8.75569 11.23 8.85966 11.188C8.96147 11.1468 9.08184 11.1929 9.12258 11.2672C9.15131 11.3196 9.11791 11.345 9.12258 11.4902C9.12465 11.5558 9.1272 11.6352 9.16304 11.7214C9.19944 11.809 9.22775 11.8017 9.26018 11.8866C9.28678 11.9563 9.27316 11.9756 9.29256 12.1013C9.31852 12.2695 9.34826 12.2695 9.3411 12.3408C9.32937 12.4577 9.24895 12.4611 9.2035 12.5886C9.18013 12.6541 9.19352 12.6753 9.2278 12.985C9.25611 13.241 9.25122 13.2647 9.28447 13.3153C9.34946 13.4143 9.42175 13.4054 9.48679 13.5135C9.53094 13.587 9.52526 13.637 9.54346 13.753C9.59422 14.0768 9.70055 14.0817 9.67843 14.2369C9.65898 14.3731 9.57797 14.363 9.44637 14.6367C9.39454 14.7445 9.36697 14.8296 9.34115 14.9092C9.25556 15.1732 9.23242 15.3849 9.22784 15.4295C9.21122 15.5911 9.23329 15.5516 9.22784 15.9415C9.22489 16.1527 9.21634 16.3138 9.20355 16.4618C9.18082 16.725 9.17172 16.6344 9.16309 16.7839C9.1568 16.893 9.16156 16.9427 9.12262 16.9821C9.06932 17.036 8.96802 17.0361 8.89601 16.9986C8.88936 16.9952 8.79486 16.9441 8.78271 16.85C8.77167 16.7646 8.83643 16.7056 8.88793 16.627C8.95347 16.5269 8.96941 16.4116 9.00123 16.181C9.02576 16.0033 9.02063 15.8537 9.00932 15.5616C8.99306 15.1407 8.96701 15.1177 9.00123 14.9835C9.05015 14.7915 9.15791 14.6249 9.21976 14.5293C9.34249 14.3395 9.41311 14.2992 9.4302 14.1659C9.45274 13.99 9.35713 13.847 9.34928 13.8355C9.27912 13.7337 9.22771 13.7535 9.08221 13.6125C9.01699 13.5493 8.94747 13.482 8.89606 13.373C8.84003 13.2543 8.83481 13.1484 8.8313 13.0592C8.82955 13.015 8.82553 12.8441 8.89606 12.6297C8.95495 12.4507 9.00608 12.4229 9.04174 12.2416C9.06969 12.0993 9.05403 12.0361 9.03366 11.9938C9.00419 11.9326 8.97361 11.933 8.90419 11.8451C8.83195 11.7537 8.79731 11.6674 8.7828 11.6304C8.75901 11.5699 8.72973 11.4749 8.72377 11.3525L8.72363 11.3527Z" fill="#29CEF5"/>
<path d="M9.80849 11.497C9.79824 11.4112 9.79038 11.3455 9.83015 11.3062C9.90614 11.231 10.1233 11.2847 10.2 11.4102C10.2348 11.4673 10.2127 11.4936 10.2372 11.6364C10.2618 11.7805 10.2923 11.8005 10.3271 11.9418C10.3559 12.0589 10.3849 12.1768 10.3618 12.3116C10.3365 12.4586 10.2609 12.557 10.1653 12.6814C10.0498 12.8318 10.0209 12.8124 9.87639 12.9934C9.73948 13.165 9.69334 13.2727 9.67994 13.3054C9.63879 13.4058 9.62327 13.4895 9.61061 13.5597C9.58276 13.714 9.58488 13.8248 9.58382 13.9184C9.5804 14.2121 9.54387 14.4669 9.51818 14.646C9.48026 14.9106 9.45444 14.9575 9.4835 15.0736C9.51726 15.2084 9.57426 15.2338 9.59906 15.3972C9.61856 15.5258 9.59056 15.558 9.62216 15.6861C9.63657 15.7445 9.64341 15.742 9.71463 15.9173C9.77315 16.0613 9.80239 16.1333 9.81865 16.1946C9.85925 16.3478 9.83436 16.3727 9.88008 16.4618C9.93011 16.5593 9.9666 16.5428 10.0135 16.6343C10.067 16.7387 10.0283 16.7769 10.0729 16.9458C10.1045 17.0655 10.1523 17.1535 10.1654 17.177C10.2424 17.315 10.2935 17.3237 10.3276 17.4303C10.3327 17.4464 10.3842 17.6075 10.3157 17.6623C10.2556 17.7104 10.1231 17.6608 10.0498 17.5814C9.99464 17.5216 9.99524 17.4688 9.96059 17.2726C9.92687 17.0814 9.90396 16.9516 9.85339 16.8072C9.82442 16.7244 9.8266 16.7518 9.72627 16.5182C9.6228 16.2774 9.63246 16.2762 9.57601 16.16C9.51149 16.0271 9.44848 15.925 9.37957 15.8133C9.25384 15.6095 9.24839 15.6287 9.22626 15.572C9.16829 15.4235 9.22451 15.3404 9.28709 14.9928C9.34298 14.6825 9.36996 14.5237 9.32178 14.3456C9.30492 14.2832 9.29555 14.2764 9.22931 14.0682C9.15887 13.8467 9.14284 13.7706 9.16511 13.685C9.18053 13.6257 9.20488 13.5979 9.27555 13.5019C9.32243 13.4382 9.46132 13.2495 9.52978 13.1321C9.70881 12.8251 9.59911 12.6748 9.76091 12.5543C9.87052 12.4727 9.94831 12.5212 10.0498 12.4156C10.0559 12.4093 10.186 12.2701 10.1539 12.1152C10.1321 12.0104 10.0611 12.0184 9.94581 11.8493C9.90147 11.7843 9.82812 11.66 9.80858 11.497H9.80849Z" fill="#29CEF5"/>
<path d="M12.2572 14.0235C12.1934 14.1255 12.1859 14.2046 12.1917 14.2591C12.201 14.3469 12.2441 14.3628 12.243 14.4541C12.2424 14.5012 12.2309 14.4968 12.1917 14.6592C12.1721 14.7401 12.1756 14.7389 12.1609 14.7926C12.1288 14.9101 12.1112 14.9207 12.1199 14.9465C12.149 15.0333 12.4086 15.0921 12.4892 14.9773C12.5259 14.9251 12.5238 14.8394 12.4892 14.7824C12.4528 14.7225 12.4031 14.7315 12.3866 14.6798C12.3684 14.6223 12.4254 14.5978 12.4276 14.4951C12.4289 14.4367 12.4109 14.4298 12.4174 14.372C12.4237 14.3154 12.4428 14.3066 12.4584 14.2488C12.4843 14.153 12.4472 14.1205 12.4687 14.0539C12.4809 14.0158 12.4918 13.996 12.5444 13.9557" fill="#29CEF5"/>
<path d="M11.5702 17.024C11.5057 16.9359 11.4061 16.9654 11.3679 16.8769C11.3475 16.8296 11.3629 16.7909 11.4231 16.6195C11.5255 16.3277 11.5229 16.3195 11.5518 16.2885C11.6824 16.1482 11.8816 16.1585 11.9011 16.1598C11.9201 16.161 12.1518 16.1791 12.1953 16.3069C12.2287 16.4051 12.1115 16.4517 12.085 16.6379C12.0612 16.8051 12.1464 16.8332 12.1218 17.0056C12.0967 17.1816 12.0026 17.19 12.0115 17.3182C12.0217 17.4663 12.1496 17.4904 12.1652 17.663C12.1679 17.6931 12.1792 17.8179 12.1034 17.8882C12.0391 17.9477 11.9433 17.9349 11.7515 17.9094C11.6034 17.8897 11.5293 17.8799 11.4966 17.833C11.4514 17.7681 11.4987 17.6976 11.5518 17.4653C11.606 17.2284 11.6318 17.1082 11.5702 17.024Z" fill="#29CEF5"/>
<g opacity="0.65">
<path d="M8.97072 12.9251C8.95586 13.022 8.96269 13.1185 8.99541 13.2099C9.00376 13.2345 9.0148 13.2603 9.02823 13.2825C9.03358 13.2922 9.0436 13.3064 9.04964 13.3158C9.07665 13.3532 9.10955 13.4116 9.1336 13.4516C9.1486 13.4769 9.163 13.5007 9.17653 13.5275L9.17085 13.5348C9.11006 13.5199 9.05915 13.4824 9.01798 13.4367C8.99223 13.4085 8.97353 13.3733 8.96084 13.3373C8.95613 13.3254 8.9505 13.306 8.94649 13.2936C8.90744 13.1727 8.91201 13.0381 8.96181 12.9225L8.97067 12.925L8.97072 12.9251Z" fill="white"/>
</g>
<g opacity="0.5">
<path d="M9.34303 14.7545C9.3127 14.8015 9.28783 14.8457 9.26701 14.8957C9.26027 14.9112 9.25399 14.9266 9.2485 14.9421C9.23719 14.9723 9.24319 15.0085 9.22062 15.0341C9.19408 15.0665 9.16639 15.0881 9.12356 15.1106L9.10768 15.1076C9.06341 15.057 9.05146 14.9705 9.09554 14.9198C9.10925 14.904 9.1248 14.8898 9.1386 14.8741C9.17174 14.8356 9.21079 14.8042 9.25376 14.7786C9.27901 14.7639 9.3056 14.751 9.3332 14.7417L9.34308 14.7545H9.34303Z" fill="white"/>
</g>
<g opacity="0.5">
<path d="M10.0309 12.6128C9.97113 12.6173 9.9115 12.6407 9.87179 12.683C9.8676 12.6869 9.863 12.6943 9.85964 12.699C9.84993 12.716 9.84326 12.734 9.83061 12.7492C9.82269 12.7596 9.81409 12.7706 9.80461 12.7827C9.79495 12.7948 9.78473 12.8078 9.77102 12.8231L9.76182 12.8228C9.72726 12.7745 9.73587 12.7001 9.77898 12.6602C9.79302 12.6469 9.80976 12.6358 9.82587 12.6254C9.85302 12.6078 9.88467 12.596 9.91674 12.5917C9.95604 12.5866 9.99672 12.5902 10.0324 12.6037L10.0309 12.6127V12.6128Z" fill="white"/>
</g>
<g opacity="0.55">
<path d="M8.80151 11.3651C8.81831 11.3104 8.86593 11.2653 8.92165 11.2471C8.98902 11.2216 9.07745 11.2401 9.08974 11.3225C9.09604 11.3703 9.07294 11.4152 9.03613 11.4345L9.03047 11.4306C9.03356 11.3967 9.03383 11.3661 9.02242 11.3377C9.01483 11.3213 9.00991 11.3086 8.99592 11.2984C8.96693 11.281 8.91673 11.2923 8.88567 11.304C8.85539 11.3159 8.82839 11.3391 8.80773 11.3682L8.80156 11.3651L8.80151 11.3651Z" fill="white"/>
</g>
<g opacity="0.55">
<path d="M10.1765 11.5548C10.157 11.4961 10.1138 11.4549 10.0613 11.4273C10.0317 11.4108 9.99363 11.3948 9.96156 11.4027C9.93418 11.4096 9.91416 11.4217 9.90128 11.45C9.89401 11.4651 9.89047 11.484 9.88775 11.5063L9.88126 11.5086C9.87505 11.5024 9.86981 11.4952 9.86543 11.4876C9.83658 11.4368 9.85867 11.365 9.91545 11.3424C9.97467 11.3184 10.0408 11.3542 10.0868 11.3892C10.138 11.4284 10.1802 11.4888 10.1832 11.5535L10.1765 11.5548Z" fill="white"/>
</g>
<g opacity="0.55">
<path d="M8.9884 16.6746C8.9538 16.6998 8.93153 16.7328 8.92431 16.7724C8.92214 16.7842 8.9215 16.7959 8.92251 16.8073C8.92357 16.8216 8.93052 16.8339 8.93641 16.8462C8.93733 16.8487 8.94009 16.8545 8.94055 16.8571C8.94197 16.8606 8.94266 16.8648 8.94372 16.8685C8.94966 16.8959 8.9555 16.9185 8.96415 16.9497L8.95928 16.9575C8.91533 16.9638 8.87443 16.9357 8.85441 16.8982C8.83835 16.8686 8.84314 16.8322 8.84917 16.801C8.85575 16.7659 8.87355 16.7332 8.899 16.7091C8.92375 16.6857 8.95417 16.6705 8.98504 16.6661L8.98845 16.6747L8.9884 16.6746Z" fill="white"/>
</g>
<g opacity="0.45">
<path d="M9.90601 16.6135C9.95013 16.6284 9.98663 16.6626 10.0099 16.7029C10.028 16.727 10.0309 16.7546 10.0184 16.7822C10.0136 16.7927 10.0068 16.8026 9.99573 16.8107L9.98888 16.8098C9.97463 16.7922 9.96599 16.7776 9.95786 16.7594C9.95059 16.7446 9.95505 16.7279 9.95087 16.7124C9.94204 16.6787 9.9249 16.6471 9.9021 16.6191L9.90605 16.6135H9.90601Z" fill="white"/>
</g>
<g opacity="0.65">
<path d="M10.0936 17.3116C10.1591 17.3069 10.2264 17.3331 10.2727 17.3798C10.301 17.4106 10.3364 17.4436 10.337 17.4885C10.3379 17.5288 10.3249 17.5677 10.2907 17.594L10.2793 17.5924C10.2648 17.5755 10.2549 17.5617 10.246 17.5488C10.2337 17.53 10.2239 17.5161 10.2173 17.4968C10.2122 17.479 10.2143 17.4595 10.2061 17.4424C10.1842 17.3915 10.1429 17.35 10.0913 17.323L10.0936 17.3116H10.0936Z" fill="white"/>
</g>
<g opacity="0.4">
<path d="M11.6811 16.4213C11.5661 16.5293 11.5406 16.6734 11.6542 16.7911C11.6739 16.8032 11.7239 16.7649 11.7438 16.7532L11.7518 16.7578C11.7511 16.7728 11.7475 16.7872 11.7422 16.8014C11.7201 16.8604 11.6611 16.8955 11.6009 16.8643C11.5392 16.8319 11.5224 16.7571 11.5162 16.6948C11.5128 16.6652 11.5142 16.6348 11.5202 16.6055C11.5386 16.5214 11.6034 16.4517 11.6758 16.4137L11.6811 16.4213H11.6811Z" fill="white"/>
</g>
<g opacity="0.55">
<path d="M11.882 17.5179C11.9633 17.527 12.0473 17.5861 12.064 17.6717C12.0745 17.7174 12.0724 17.7719 12.0396 17.8086C12.0096 17.8437 11.9655 17.8655 11.9191 17.8598L11.915 17.8515C11.933 17.8171 11.9495 17.7898 11.9626 17.7576C11.9722 17.7312 11.9903 17.7101 11.9908 17.6812C11.9913 17.6157 11.9379 17.5582 11.8792 17.5268L11.882 17.518L11.882 17.5179Z" fill="white"/>
</g>
<path d="M12.7776 14.86C12.7043 14.9041 12.5927 14.9617 12.4487 14.9989C12.2591 15.048 12.1121 15.0363 11.7412 14.9867C11.1721 14.9105 11.0571 14.8762 10.8034 14.8947C10.5942 14.9101 10.4605 14.9218 10.3437 15.0234C10.1878 15.1592 10.1669 15.364 10.1415 15.6118C10.1113 15.9063 10.0912 16.1034 10.215 16.237C10.3523 16.385 10.5866 16.3687 10.8953 16.3473C11.2177 16.3249 11.2725 16.2562 11.6316 16.2126C11.9431 16.1748 12.1985 16.1905 12.3111 16.2002C12.7124 16.2346 12.8691 16.3254 13.2305 16.2921C13.3609 16.2801 13.467 16.2567 13.5371 16.2383" fill="#EAE1D8"/>
<path d="M10.8059 14.9021L10.8376 16.3588L11.5598 16.2811L11.5711 14.9704L12.2783 15.0078L12.3136 16.2076" stroke="#AA908C" stroke-width="0.13857" stroke-miterlimit="10"/>
<path d="M12.9893 16.2993V15.5329L10.1396 15.6211" stroke="#AA908C" stroke-width="0.13857" stroke-miterlimit="10"/>
<path d="M7.55249 10.0638C7.84998 9.81515 8.22227 9.6625 8.60916 9.62295C8.69459 9.61492 8.78029 9.61122 8.86641 9.6096C9.32533 9.60207 9.82809 9.69678 10.173 10.0242C10.2123 10.062 10.2554 10.102 10.2984 10.1327C10.347 10.1679 10.3979 10.195 10.4543 10.2131L10.4781 10.2196C10.4821 10.2208 10.4861 10.2215 10.4902 10.2223L10.5023 10.2247L10.5145 10.2272C10.5692 10.2357 10.6262 10.2344 10.6807 10.2236C10.8748 10.1871 11.0115 10.0281 11.0694 9.84403C11.0771 9.93107 11.0617 10.0181 11.0278 10.0994C10.9446 10.3018 10.7373 10.4291 10.5213 10.4373C10.497 10.4383 10.4708 10.4375 10.4464 10.4357C10.4228 10.4335 10.3944 10.4297 10.372 10.425C10.2998 10.4105 10.2285 10.3819 10.1651 10.3467C10.1125 10.3175 10.0659 10.2845 10.0204 10.2487C9.98296 10.2188 9.94475 10.1897 9.90534 10.1639C9.62911 9.98711 9.30412 9.9253 8.97933 9.89434C8.89949 9.88713 8.81989 9.88228 8.73927 9.87854C8.66192 9.87438 8.58043 9.8723 8.50308 9.87489C8.32493 9.88053 8.14414 9.9058 7.96997 9.94567C7.82859 9.97658 7.69049 10.0201 7.55254 10.0639L7.55249 10.0638Z" fill="#8B3826"/>
<g opacity="0.85">
<path d="M10.9781 12.898C10.8616 13.2075 10.6512 13.48 10.3906 13.6832C10.3054 13.7496 10.2066 13.8092 10.1166 13.8642C10.0863 13.8826 10.0561 13.9024 10.0272 13.9227C9.96816 13.9651 9.91387 14.0153 9.87039 14.0737C9.68452 14.3226 9.65819 14.6784 9.64585 14.9805C9.64267 15.0728 9.64262 15.1639 9.64013 15.2569C9.61915 15.1984 9.60095 15.139 9.58593 15.0786C9.56265 14.9885 9.54578 14.8948 9.53474 14.8022C9.49002 14.4128 9.5638 13.9894 9.90754 13.7532C9.99015 13.6959 10.0853 13.6476 10.1699 13.5987C10.2401 13.5584 10.3073 13.5157 10.373 13.469C10.5989 13.3077 10.7967 13.1092 10.978 12.8979L10.9781 12.898Z" fill="#8B3826"/>
</g>
<path d="M12.7766 14.86C12.7105 14.8907 12.6108 14.9319 12.4854 14.9638C12.2645 15.0201 12.0637 15.0222 11.5677 14.963C10.96 14.8905 10.8612 14.8395 10.6428 14.9089C10.5527 14.9375 10.3705 14.9979 10.2319 15.1701C9.96608 15.5002 10.1019 15.9409 10.1205 15.9981C10.157 16.1103 10.1934 16.2223 10.2999 16.3032C10.3413 16.3346 10.467 16.4174 11.0034 16.337C11.3321 16.2877 11.3457 16.2475 11.6305 16.2127C11.9122 16.1782 12.1378 16.1884 12.2358 16.1948C12.542 16.2148 12.6044 16.2645 12.8654 16.2841C13.0239 16.296 13.2527 16.2966 13.5361 16.2384" stroke="#AF6F61" stroke-width="0.254046" stroke-miterlimit="10"/>
<path opacity="0.45" d="M14.1136 16.4935C13.9266 16.7344 13.7025 16.9337 13.5529 17.0547C10.4486 12.5726 10.2392 8.41604 12.5083 6.69486C12.7571 6.50608 13.1328 6.27305 13.693 6.08289L14.4477 9.02423C14.8909 12.8892 14.663 15.7856 14.1136 16.4935Z" fill="#8B3826"/>
<path d="M15.1647 5.44914C14.9956 5.48128 14.1333 5.65815 13.3367 6.37719C11.4605 8.07089 11.6693 11.2203 12.2399 12.1142C12.3123 12.2275 12.5702 12.5864 12.6899 13.1266C12.7487 13.3921 12.7602 13.6385 12.7743 13.9422C12.8011 14.518 12.7514 14.622 12.7743 14.8703C12.8184 15.3489 13.0677 15.6624 13.5336 16.2483C13.7882 16.5684 14.1533 16.9116 14.8835 17.5982C15.0933 17.7954 15.3047 17.9828 15.7272 18.3575C16.0598 18.6524 16.1321 18.7113 16.2334 18.7793C16.6431 19.0544 17.0323 19.1464 17.2739 19.2012C17.6075 19.2768 18.2938 19.4324 19.1019 19.1731C19.4071 19.0751 20.0107 18.8814 20.3955 18.3294C20.5398 18.1224 20.623 17.8914 20.7893 17.4295C20.983 16.8912 20.9447 16.8235 21.0986 16.4452C21.3115 15.9216 21.4279 15.9456 21.6611 15.4328C21.8134 15.0976 21.9973 14.6933 21.9985 14.1391C21.9992 13.8371 22.0003 13.3286 21.6892 12.9017C21.5758 12.7462 21.4757 12.6766 21.408 12.4799C21.3032 12.1759 21.3922 11.9068 21.4361 11.7206C21.5068 11.4205 21.4645 11.0612 21.3799 10.3426C21.2444 9.1922 20.6692 8.26955 20.5924 8.149C19.8948 7.05318 19.2079 6.2546 18.5957 5.9273C17.7664 5.48392 16.4614 5.20276 15.1647 5.44923L15.1647 5.44914Z" fill="#F6B79F"/>
<path opacity="0.65" d="M19.1739 12.8831C19.1261 12.8817 19.0184 13.1546 19.0715 13.4229C19.1816 13.98 19.9412 14.2974 19.9902 14.2376C20.0077 14.2164 19.8987 14.084 19.6805 13.8191C19.4432 13.531 19.3962 13.5143 19.3247 13.3746C19.1872 13.1056 19.2167 12.8843 19.1739 12.8831Z" fill="white" stroke="white" stroke-width="0.00461901" stroke-miterlimit="10"/>
<path d="M14.9593 5.48665C14.5016 5.61331 14.1788 5.78495 14.083 5.83751C13.0774 6.38939 12.5872 7.26945 12.3957 7.62387C12.3957 7.62387 11.6134 9.0711 11.9037 11.0781C11.9652 11.5029 12.1076 11.8523 12.1076 11.8523C12.2393 12.1755 12.348 12.2835 12.4677 12.5012C12.9585 13.3929 12.7694 14.552 12.7697 14.5577C12.7697 14.5577 12.7871 14.9457 12.7912 15.01C12.8099 15.2987 12.9843 15.5699 13.3396 16.0002C13.6254 16.3463 13.9651 16.7189 14.535 17.2659C14.6212 17.3487 14.8408 17.551 15.28 17.9557C15.9483 18.5714 16.0541 18.6617 16.2292 18.7712C16.6707 19.0474 17.074 19.1466 17.2697 19.193C17.5924 19.2696 18.2868 19.4251 19.0977 19.1649C19.4028 19.067 20.0064 18.8732 20.3913 18.3212C20.5356 18.1142 20.6187 17.8833 20.785 17.4213C20.9788 16.8831 20.9405 16.8153 21.0944 16.437C21.3073 15.9135 21.4237 15.9375 21.6568 15.4246C21.8056 15.0974 21.9913 14.6888 21.9943 14.131C21.9962 13.7686 21.9989 13.2662 21.685 12.8936C21.5875 12.778 21.4723 12.6899 21.4013 12.4922C21.3113 12.2419 21.3643 12.0171 21.3901 11.8852C21.4686 11.4837 21.4001 11.0669 21.4133 10.658C21.4469 9.60774 20.7561 8.44014 20.4778 7.96984C20.0832 7.30299 19.707 6.66723 18.9254 6.13798C18.1176 5.59104 17.3281 5.46342 16.9201 5.40194C16.5479 5.34587 15.8312 5.24549 14.9593 5.4867V5.48665Z" stroke="#8B3826" stroke-width="0.184761" stroke-miterlimit="10"/>
<path opacity="0.55" d="M17.3263 16.1222C17.3077 16.1568 17.5896 16.4123 17.948 16.547C18.9188 16.9119 20.0666 16.2461 20.0595 16.224C20.0569 16.2156 19.8908 16.2936 19.4979 16.3623C19.1695 16.4197 18.711 16.4999 18.1891 16.4046C17.6674 16.3092 17.3454 16.0866 17.3264 16.1222L17.3263 16.1222Z" fill="white"/>
<path d="M13.3785 13.2197C13.4951 13.1999 13.5509 12.9559 13.5031 12.6747C13.4553 12.3935 13.3221 12.1816 13.2055 12.2014C13.0889 12.2212 13.0331 12.4652 13.0809 12.7464C13.1286 13.0276 13.2619 13.2395 13.3785 13.2197Z" stroke="#8B3826" stroke-width="0.184761" stroke-miterlimit="10"/>
<path d="M17.5974 7.01519C17.8382 6.88873 18.128 6.82525 18.4018 6.86471C18.4925 6.87903 18.5825 6.91447 18.6672 6.93992C18.6861 6.94547 18.7077 6.95106 18.727 6.95462C18.7402 6.95748 18.7582 6.9597 18.7715 6.9615C18.7959 6.964 18.8214 6.96543 18.8461 6.9651C19.0422 6.96011 19.231 6.90652 19.4167 6.83787C19.4372 6.82974 19.4578 6.82202 19.4785 6.81444C19.4953 6.80765 19.5237 6.79642 19.5409 6.79C19.5734 6.7779 19.6042 6.76445 19.6378 6.75378C19.6428 6.75212 19.6483 6.75489 19.6499 6.75992C19.6509 6.76302 19.6502 6.76635 19.6484 6.76875C19.613 6.81541 19.5728 6.85759 19.53 6.89719C19.3796 7.0309 19.1872 7.1342 18.9818 7.1452C18.9266 7.14852 18.869 7.14427 18.8145 7.13531C18.7028 7.1184 18.5942 7.07054 18.4941 7.02688C18.4155 6.99301 18.3375 6.97088 18.2528 6.96067C18.035 6.93512 17.8159 6.96035 17.6048 7.03219C17.6 7.03385 17.5946 7.03126 17.593 7.02641C17.5915 7.02207 17.5935 7.01736 17.5975 7.01528L17.5974 7.01519Z" fill="#8B3826"/>
<path d="M14.9429 7.96562C15.3181 7.73176 15.731 7.56248 16.1593 7.45218C16.2564 7.42751 16.3842 7.39536 16.48 7.3743C16.7799 7.30543 17.093 7.26423 17.4016 7.29698C17.4852 7.30487 17.5717 7.31795 17.654 7.33476C17.7644 7.35721 17.8748 7.38986 17.9804 7.42677C18.1453 7.48492 18.2676 7.53019 18.4458 7.51869C18.5418 7.51218 18.6361 7.49582 18.7283 7.46603C18.8434 7.42843 18.9616 7.37901 19.0814 7.34945C19.149 7.3318 19.2189 7.31878 19.288 7.30829C19.5354 7.2724 19.7902 7.27711 20.0325 7.32515C19.9226 7.32423 19.8135 7.32797 19.7055 7.33804C19.6245 7.34552 19.5444 7.35702 19.4646 7.37134C19.3336 7.39605 19.2029 7.42936 19.0781 7.47587C18.9097 7.53947 18.7484 7.63255 18.5674 7.66354C18.5322 7.67061 18.4951 7.67606 18.4594 7.68003C18.3631 7.69061 18.264 7.68696 18.1691 7.66724C18.0321 7.63901 17.9038 7.58608 17.7708 7.55121C17.6821 7.5271 17.5917 7.50862 17.5008 7.49499C17.3837 7.47837 17.2653 7.46811 17.1471 7.46811C16.88 7.46668 16.6145 7.51328 16.3517 7.56308C15.8699 7.64511 15.3966 7.7823 14.9429 7.96562H14.9429Z" fill="#8B3826"/>
<path d="M16.3386 8.125C16.6004 8.17069 16.8676 8.19013 17.13 8.14468C17.1595 8.13928 17.196 8.13198 17.2252 8.12542C17.2774 8.11332 17.3294 8.09784 17.3799 8.08094C17.4401 8.06089 17.5014 8.03466 17.5592 8.00833C17.6208 7.98029 17.684 7.94745 17.7473 7.92329C17.7698 7.91433 17.7944 7.90602 17.8175 7.89904L17.8543 7.88925C17.8646 7.88671 17.8811 7.88366 17.8918 7.88158C17.9022 7.87918 17.9189 7.87696 17.9297 7.87576C18.005 7.86634 18.0811 7.86851 18.1559 7.88029C18.1802 7.88403 18.2078 7.89013 18.2315 7.89659C18.4882 7.97248 18.5111 8.11734 18.8292 8.13249C19.065 8.14297 19.2963 8.06727 19.5179 7.99156C19.6142 7.95974 19.7052 7.91992 19.803 7.88786C19.982 7.82883 20.181 7.845 20.3548 7.91318C20.3968 7.92971 20.4386 7.94957 20.4776 7.97198C20.456 7.96556 20.4342 7.95969 20.4125 7.95419C20.265 7.91747 20.107 7.9092 19.9594 7.94606C19.8317 7.9784 19.7203 8.05309 19.599 8.10528C19.5582 8.12362 19.5149 8.14251 19.4738 8.15951C19.2795 8.24113 19.0729 8.30801 18.8602 8.31073C18.7736 8.31212 18.6851 8.30381 18.6016 8.28034C18.5189 8.25817 18.4345 8.21212 18.3664 8.16685C18.2971 8.1214 18.238 8.08579 18.1606 8.06671C18.0919 8.05027 18.0195 8.04463 17.9492 8.05087C17.8578 8.05771 17.7701 8.09415 17.6846 8.12875C17.657 8.14002 17.6004 8.16251 17.5725 8.17281C17.524 8.19004 17.471 8.20695 17.4211 8.21969C17.0627 8.31341 16.6775 8.26621 16.3386 8.12491V8.125Z" fill="#8B3826"/>
<path d="M17.9536 8.56785C18.0353 8.49352 18.144 8.45534 18.2543 8.45067C18.5506 8.43828 18.8105 8.67056 18.8182 8.97027C18.8194 9.02431 18.8148 9.07885 18.7967 9.12988C18.7845 9.07941 18.7697 9.03087 18.7513 8.98331C18.6228 8.63737 18.3056 8.49689 17.9537 8.56785H17.9536Z" fill="#8B3826"/>
<path d="M15.3394 10.6811C15.5262 10.3543 15.8676 10.1023 16.2437 10.04C16.2694 10.0368 16.3008 10.0321 16.3265 10.0306C16.3571 10.0279 16.3941 10.0271 16.4247 10.0266C16.5113 10.0268 16.6016 10.0331 16.6877 10.034C16.7274 10.0341 16.7683 10.0329 16.8079 10.0312C16.8299 10.0293 16.8522 10.0278 16.8741 10.0262C16.964 10.0168 17.058 10.0017 17.1461 9.98516C17.6523 9.89613 18.0384 9.66924 18.2577 9.18699C18.2869 9.12466 18.3115 9.06104 18.3353 8.99585C18.3399 9.03581 18.341 9.07601 18.3406 9.11648C18.3346 9.51007 18.1289 9.85963 17.7989 10.0718C17.5498 10.2336 17.2546 10.307 16.9632 10.3403C16.8173 10.3564 16.6658 10.3496 16.5232 10.3307C16.4841 10.3258 16.4249 10.3183 16.3856 10.3153C16.335 10.3109 16.2831 10.3098 16.2324 10.3132C16.189 10.3155 16.1459 10.3224 16.1028 10.3294C16.0681 10.3361 16.0321 10.3438 15.9978 10.3529C15.7583 10.4144 15.5422 10.5387 15.3394 10.6812V10.6811Z" fill="#8B3826"/>
<path d="M19.0743 9.74329C19.1329 9.91663 19.2177 10.086 19.3439 10.2174C19.508 10.3902 19.7356 10.5007 19.972 10.5254C19.9912 10.5269 20.011 10.5288 20.0302 10.5291C20.0343 10.5292 20.0506 10.5296 20.0542 10.5297C20.0589 10.5299 20.0612 10.5291 20.0657 10.5289C20.1811 10.5128 20.2959 10.4873 20.412 10.4685C20.5396 10.4468 20.6637 10.4277 20.7936 10.4129C20.9656 10.393 21.1063 10.3938 21.2471 10.5125C21.3509 10.6013 21.4149 10.7351 21.4336 10.8673C21.3906 10.8193 21.346 10.7731 21.2965 10.7339C21.2323 10.6824 21.1566 10.6424 21.0751 10.6333C21.0583 10.6316 21.0413 10.6313 21.0246 10.6334C20.9693 10.6398 20.9051 10.6626 20.8495 10.6799C20.7609 10.7085 20.6646 10.7392 20.5754 10.7641C20.4336 10.8037 20.2917 10.8421 20.1457 10.8673C20.1244 10.8707 20.1008 10.8742 20.0787 10.8755C20.0685 10.8759 20.0552 10.8763 20.0454 10.8758C20.0079 10.8749 19.9687 10.8726 19.9317 10.8676C19.6842 10.8346 19.4475 10.7135 19.2823 10.5258C19.0951 10.3164 19.0068 10.0171 19.0743 9.74329H19.0743Z" fill="#8B3826"/>
<path d="M15.4087 15.0118C15.272 14.8691 15.2864 14.6306 15.4026 14.4781C15.5589 14.2619 15.892 14.2123 16.0848 14.4056C16.1045 14.4259 16.1217 14.4483 16.1347 14.4731C16.1074 14.4666 16.0818 14.4607 16.0567 14.4564C15.8981 14.4275 15.7223 14.4604 15.6024 14.5643C15.5123 14.6398 15.4549 14.7434 15.4276 14.8599C15.4163 14.9096 15.4117 14.96 15.4087 15.0117V15.0118Z" fill="#8B3826"/>
<g opacity="0.6">
<path d="M17.4446 10.5209C17.552 10.5011 17.6629 10.5227 17.7621 10.5656C18.0637 10.6957 18.253 11.0544 18.1759 11.3755C18.1688 11.4034 18.1601 11.4309 18.1471 11.4576C18.1317 11.4322 18.1185 11.4078 18.1053 11.384C18.025 11.2362 17.9414 11.0813 17.8445 10.9492C17.7612 10.8341 17.6671 10.7331 17.5631 10.6337C17.5239 10.5961 17.4842 10.5606 17.4446 10.5209V10.5209Z" fill="#8B3826"/>
</g>
<g opacity="0.75">
<path d="M19.2242 12.3416C19.1561 12.236 19.1168 12.1147 19.0951 11.9915C19.0116 11.5214 19.2415 11.0019 19.6624 10.7676C19.7263 10.7321 19.7933 10.7027 19.8645 10.6852C19.8138 10.7519 19.7642 10.8133 19.7188 10.8763C19.3689 11.3498 19.2661 11.7631 19.2242 12.3416H19.2242Z" fill="#8B3826"/>
</g>
<path d="M18.3861 15.4053C18.3819 15.2464 18.4952 15.0866 18.6523 15.0409C18.7446 15.0118 18.8462 15.0013 18.926 15.0675C18.9976 15.1262 19.0378 15.2188 19.0156 15.3092C19.0131 15.3181 19.0035 15.3226 18.995 15.3197C18.9763 15.3148 18.9535 15.3074 18.9353 15.302L18.8857 15.2868C18.8552 15.2777 18.8296 15.2709 18.8077 15.2657C18.7968 15.2631 18.7871 15.2603 18.7781 15.2566C18.7587 15.249 18.7423 15.2357 18.7217 15.2286C18.6863 15.2164 18.6473 15.2234 18.6118 15.2339C18.5409 15.2549 18.4776 15.3064 18.4352 15.3677C18.4255 15.3813 18.4169 15.3959 18.4084 15.411C18.4028 15.4214 18.3861 15.4173 18.3861 15.4054V15.4053Z" fill="#3A0F08"/>
<path d="M19.1833 12.5419C19.1864 13.1096 19.4436 13.4698 19.8685 13.8171C19.9805 13.9133 20.0962 14.025 20.2023 14.1282C20.2264 14.1521 20.2618 14.1869 20.2848 14.2116C20.3497 14.2797 20.3874 14.3327 20.4007 14.4284C20.4276 14.6364 20.2842 14.8125 20.1633 14.964C20.0341 15.1212 19.9069 15.2827 19.6972 15.3294C19.6186 15.348 19.5382 15.3498 19.4627 15.3357C19.606 15.3037 19.735 15.2374 19.8256 15.1238C19.8876 15.0479 19.9454 14.9372 19.9976 14.8491C20.0336 14.787 20.0708 14.7235 20.1011 14.6602C20.1308 14.5954 20.1672 14.5128 20.1363 14.4462C20.1124 14.4176 20.0813 14.3899 20.0541 14.364C19.9349 14.2549 19.8055 14.1311 19.6869 14.0217C19.6146 13.9567 19.5422 13.8887 19.478 13.8152C19.1624 13.4588 19.0058 13.0024 19.1834 12.542L19.1833 12.5419Z" fill="#8B3826"/>
<path d="M18.1116 14.2801C17.7273 14.4113 17.4837 14.7417 17.6645 15.1434C17.7195 15.2664 17.8143 15.3743 17.9211 15.4611C17.8416 15.4636 17.7624 15.443 17.6908 15.4076C17.414 15.2712 17.2776 14.9216 17.3923 14.6322C17.4974 14.354 17.8281 14.1746 18.1115 14.2801H18.1116Z" fill="#8B3826"/>
<path opacity="0.2" d="M17.8325 14.3353C18.0524 14.268 18.1661 14.5155 18.5161 14.6353C19.256 14.8886 19.9662 14.1992 20.1542 14.4194C20.2751 14.5609 20.056 14.9322 19.9998 15.0274C19.8171 15.337 19.552 15.48 19.4431 15.5369C19.3799 15.5699 18.7912 15.8657 18.1478 15.6131C17.9392 15.5312 17.5905 15.3943 17.5104 15.0642C17.4392 14.7707 17.6002 14.4064 17.8325 14.3353V14.3353Z" fill="#8B3826"/>
<path d="M15.8861 15.7691C15.8108 15.4424 15.8644 15.0174 16.2176 14.8818C16.2912 14.8538 16.3728 14.8435 16.4495 14.842C16.4856 14.841 16.5167 14.8417 16.5498 14.841C16.5778 14.8403 16.612 14.8384 16.6402 14.836C16.6576 14.8341 16.6768 14.8315 16.6944 14.8297C16.7071 14.8278 16.7355 14.8231 16.7485 14.821C16.7659 14.8178 16.785 14.8136 16.8025 14.8101C16.8068 14.8093 16.8162 14.8072 16.8204 14.8061C17.1221 14.7346 17.3988 14.5777 17.6675 14.4237C17.6912 14.4104 17.7149 14.3968 17.7396 14.3842C17.7239 14.4067 17.7071 14.4284 17.6904 14.4503C17.6573 14.4938 17.6194 14.5349 17.5828 14.5752C17.5452 14.614 17.5045 14.6543 17.4634 14.6898C17.2299 14.8964 16.9347 15.0492 16.6186 15.0691C16.5426 15.0751 16.4568 15.0667 16.3809 15.0712C16.3227 15.0747 16.2673 15.0867 16.2165 15.1141C16.0036 15.2276 15.939 15.5512 15.8861 15.7691H15.8861Z" fill="#8B3826"/>
<path d="M20.0792 14.7384C20.1643 14.8287 20.2527 14.9275 20.3544 14.9965C20.4408 15.0563 20.5343 15.0986 20.6355 15.1342C20.6533 15.1407 20.6718 15.1469 20.6922 15.1546C20.6788 15.1718 20.6629 15.1855 20.6461 15.1978C20.5216 15.2867 20.3454 15.2726 20.223 15.1862C20.1168 15.1133 20.0485 14.9879 20.0514 14.8592C20.0527 14.8175 20.0595 14.7763 20.0792 14.7384V14.7384Z" fill="#8B3826"/>
<path d="M16.6147 15.67C17.1322 15.9735 17.6958 16.2027 18.2907 16.2904C18.8001 16.369 19.3221 16.3454 19.8264 16.2412C19.9862 16.209 20.1432 16.1676 20.3011 16.1231C20.2334 16.171 20.1623 16.2138 20.089 16.2532C18.9763 16.8512 17.4628 16.6151 16.6147 15.6701V15.67Z" fill="#8B3826"/>
<g opacity="0.3">
<path d="M17.7878 16.9457C17.9065 16.9968 18.0261 17.0498 18.1471 17.0913C18.2621 17.1311 18.3799 17.1638 18.4997 17.1851C18.7054 17.2238 18.9147 17.2292 19.1244 17.2192C19.1663 17.2173 19.2068 17.2148 19.25 17.2134C19.2239 17.2361 19.1956 17.2555 19.1664 17.2733C18.8662 17.4539 18.4736 17.4463 18.165 17.2896C18.0127 17.2101 17.8737 17.0961 17.7879 16.9457H17.7878Z" fill="#8B3826"/>
</g>
<path d="M16.5582 12.537C17.1373 12.537 17.6068 12.3065 17.6068 12.0222C17.6068 11.738 17.1373 11.5075 16.5582 11.5075C15.979 11.5075 15.5095 11.738 15.5095 12.0222C15.5095 12.3065 15.979 12.537 16.5582 12.537Z" fill="#F4EAE9" stroke="#7C7C7C" stroke-width="0.13857" stroke-miterlimit="10"/>
<path d="M20.3987 12.5395C20.849 12.5395 21.2139 12.3671 21.2139 12.1546C21.2139 11.942 20.849 11.7697 20.3987 11.7697C19.9485 11.7697 19.5835 11.942 19.5835 12.1546C19.5835 12.3671 19.9485 12.5395 20.3987 12.5395Z" fill="#F4EAE9" stroke="#7C7C7C" stroke-width="0.13857" stroke-miterlimit="10"/>
<path d="M16.3617 12.6055C16.6954 12.6055 16.9659 12.3533 16.9659 12.0424C16.9659 11.7314 16.6954 11.4792 16.3617 11.4792C16.0281 11.4792 15.7576 11.7314 15.7576 12.0424C15.7576 12.3533 16.0281 12.6055 16.3617 12.6055Z" fill="black"/>
<path d="M20.1966 12.6216C20.4766 12.6216 20.7036 12.4143 20.7036 12.1585C20.7036 11.9027 20.4766 11.6953 20.1966 11.6953C19.9167 11.6953 19.6897 11.9027 19.6897 12.1585C19.6897 12.4143 19.9167 12.6216 20.1966 12.6216Z" fill="black"/>
<path d="M16.7809 12.1414C16.9041 12.1414 17.0039 12.0415 17.0039 11.9183C17.0039 11.7952 16.9041 11.6953 16.7809 11.6953C16.6577 11.6953 16.5579 11.7952 16.5579 11.9183C16.5579 12.0415 16.6577 12.1414 16.7809 12.1414Z" fill="white"/>
<path d="M20.4951 12.1623C20.6035 12.1623 20.6914 12.0744 20.6914 11.966C20.6914 11.8575 20.6035 11.7697 20.4951 11.7697C20.3867 11.7697 20.2988 11.8575 20.2988 11.966C20.2988 12.0744 20.3867 12.1623 20.4951 12.1623Z" fill="white"/>
<path d="M15.1836 12.0976C15.2895 11.8354 15.492 11.6162 15.7387 11.4778C16.0185 11.3199 16.3572 11.2736 16.6729 11.3266C17.0154 11.3825 17.3373 11.5466 17.5928 11.7799C17.7199 11.896 17.8326 12.0291 17.9195 12.178L17.9322 12.2004C17.9363 12.208 17.9405 12.2155 17.9445 12.2231C17.9366 12.2193 17.9291 12.2152 17.9214 12.2112C17.8697 12.1832 17.8178 12.1539 17.7663 12.1262C17.4045 11.9273 17.026 11.7518 16.6162 11.691C16.4213 11.6624 16.2211 11.6626 16.0274 11.7004C15.719 11.7563 15.4404 11.9166 15.1836 12.0976H15.1836Z" fill="#8B3826"/>
<path d="M19.4348 12.1977C19.5064 12.0058 19.6526 11.8517 19.824 11.7414C20.0003 11.629 20.212 11.5681 20.4214 11.5645C20.7332 11.5576 21.048 11.6823 21.2655 11.9056C21.3354 11.9781 21.3978 12.0586 21.4377 12.1517C21.3911 12.1324 21.3466 12.1141 21.3025 12.0968C21.0061 11.9781 20.6825 11.8941 20.3667 11.9128C20.0304 11.9294 19.7321 12.0451 19.4348 12.1977Z" fill="#8B3826"/>
<g opacity="0.45">
<path d="M17.4423 12.8541C17.5281 12.7808 17.59 12.6983 17.6276 12.5977C17.6361 12.5734 17.6448 12.5461 17.6494 12.5211C17.6571 12.4879 17.6615 12.4532 17.6574 12.4192C17.6535 12.3863 17.6438 12.3546 17.641 12.322C17.6376 12.2687 17.6435 12.2222 17.6479 12.1644C17.6508 12.1336 17.6547 12.099 17.6593 12.0665C17.661 12.0545 17.6628 12.042 17.6654 12.0284C17.6667 12.0189 17.6759 12.0123 17.6854 12.0141C17.806 12.0493 17.8962 12.1798 17.9053 12.3025C17.9105 12.385 17.876 12.4656 17.8474 12.5398C17.8403 12.556 17.832 12.5737 17.8235 12.5891C17.764 12.7025 17.6636 12.7936 17.5469 12.8454C17.5168 12.8588 17.4853 12.8697 17.4534 12.8769C17.4402 12.8798 17.4317 12.8626 17.4423 12.854L17.4423 12.8541Z" fill="#8B3826"/>
</g>
<path d="M17.5901 12.393C17.5213 12.4708 17.4322 12.5324 17.3381 12.5767C17.0244 12.7232 16.6581 12.7019 16.329 12.6321C16.29 12.6239 16.2119 12.6065 16.1732 12.5973C16.0297 12.5628 15.8866 12.5384 15.7406 12.5478C15.7171 12.55 15.6924 12.5516 15.6689 12.5552C15.6528 12.5568 15.6307 12.5609 15.6148 12.5635C15.4839 12.5878 15.3563 12.6371 15.238 12.6988C15.2141 12.711 15.1904 12.7241 15.166 12.7369C15.1952 12.69 15.2295 12.6465 15.2677 12.6065C15.355 12.5136 15.4641 12.4397 15.583 12.3913C15.605 12.3821 15.6325 12.3728 15.6551 12.3652C15.8735 12.2966 16.0849 12.3198 16.3034 12.3673C16.7266 12.4581 17.1712 12.5484 17.59 12.3929L17.5901 12.393Z" fill="#8B3826"/>
<path d="M19.4312 12.6205C19.4714 12.5991 19.5125 12.5813 19.554 12.5646C19.5955 12.5482 19.6375 12.5332 19.6799 12.5198C19.7646 12.4929 19.8507 12.4714 19.9376 12.4547C20.0245 12.4378 20.1123 12.4258 20.2004 12.4181C20.2114 12.4171 20.2224 12.416 20.2334 12.4152L20.2665 12.4131C20.2886 12.4115 20.3107 12.4106 20.3328 12.4095C20.3549 12.4087 20.377 12.4083 20.3991 12.4077C20.4212 12.4071 20.4433 12.4074 20.4654 12.4073C20.4875 12.4076 20.5096 12.4077 20.5317 12.4084L20.598 12.4111C20.6421 12.4139 20.6862 12.4168 20.7302 12.4216C20.8182 12.4306 20.9058 12.4435 20.9924 12.4618C21.0791 12.4797 21.165 12.5025 21.2493 12.5304C21.2703 12.5376 21.2914 12.5447 21.3122 12.5525C21.3331 12.5604 21.3539 12.5685 21.3745 12.5769C21.3952 12.5856 21.4156 12.5948 21.436 12.604C21.4563 12.6139 21.4766 12.6236 21.4965 12.6346C21.4739 12.6379 21.4515 12.6399 21.4293 12.6419C21.4071 12.6438 21.3849 12.6457 21.3629 12.647C21.3408 12.6486 21.3188 12.6499 21.297 12.651C21.2751 12.6521 21.2533 12.6533 21.2316 12.654C21.1446 12.6576 21.0586 12.6598 20.973 12.6608C20.8875 12.662 20.8024 12.6624 20.7176 12.6624L20.5905 12.662L20.4635 12.6613C20.2943 12.6597 20.1251 12.6581 19.9541 12.6533L19.8899 12.6514L19.8254 12.649C19.7824 12.6474 19.7391 12.6454 19.6957 12.6431C19.6522 12.6406 19.6086 12.6379 19.5645 12.6344C19.5205 12.6307 19.4762 12.627 19.4312 12.6205H19.4312Z" fill="#8B3826"/>
<path d="M18.3352 20.7286C18.5116 20.6445 18.683 20.5502 18.8583 20.4641C18.8231 19.9644 18.5359 19.4831 18.1811 19.4039C18.0349 19.3714 17.8613 19.4035 17.7382 19.4991C17.5385 19.6543 17.529 19.9326 17.5236 20.2075C17.5203 20.3805 17.5344 20.6396 17.6264 20.9507C17.8746 20.9227 18.1105 20.8357 18.3352 20.7286Z" fill="#DB9079"/>
<path d="M21.4018 19.4328C21.2485 19.4744 21.0974 19.5234 20.9481 19.5775C20.9188 19.5881 20.8897 19.5989 20.8605 19.6099C20.8468 19.615 20.8332 19.6203 20.8195 19.6255C20.8192 19.6256 20.819 19.6257 20.8186 19.6258C20.8053 19.631 20.792 19.6361 20.7786 19.6413C20.7651 19.6466 20.7514 19.652 20.7378 19.6574C20.5133 19.2809 20.2991 18.8504 20.1865 18.5692C20.1614 18.5066 20.1247 18.4098 20.1131 18.2979C20.113 18.2967 20.1128 18.2955 20.1127 18.2944C20.1044 18.2103 20.1103 18.1178 20.1458 18.0249C20.2018 17.8782 20.3408 17.7061 20.4913 17.709C20.5978 17.711 20.6973 17.8003 20.9159 18.2224C21.1356 18.6468 21.3068 18.984 21.4018 19.4328Z" fill="#E29B86"/>
<path d="M19.7477 20.0877C19.7322 20.0944 19.7166 20.1012 19.7011 20.1079C19.6981 20.1092 19.6951 20.1105 19.6922 20.1117C19.6123 20.1462 19.5321 20.18 19.4515 20.2128C19.341 20.2577 19.2286 20.2979 19.118 20.3427C19.093 20.3528 19.0681 20.3632 19.0433 20.3739C18.978 20.4022 18.9136 20.4324 18.8497 20.4638C18.8278 20.4746 18.8059 20.4855 18.7841 20.4965C18.7731 20.5019 18.7622 20.5074 18.7514 20.513C18.7405 20.5185 18.7296 20.524 18.7187 20.5297C18.697 20.5408 18.6752 20.552 18.6536 20.5632C18.6323 20.5742 18.611 20.5852 18.5897 20.5962C18.5782 20.6021 18.5667 20.6081 18.5552 20.6141C18.5436 20.62 18.5321 20.6259 18.5206 20.6318C18.5091 20.6377 18.4975 20.6436 18.486 20.6495C18.3415 20.3333 18.1982 20.0841 18.0853 19.9037C17.9805 19.7363 17.8826 19.5973 17.7948 19.4565C17.6815 19.275 17.585 19.0908 17.5123 18.8395C17.3912 18.4212 17.4653 18.2639 17.4959 18.2092C17.5435 18.124 17.6163 18.0536 17.7017 18.0022C17.829 17.9256 17.9844 17.8915 18.1262 17.9145C18.2131 17.9286 18.2846 17.9624 18.3519 18.0105C18.3772 18.0286 18.402 18.0488 18.4267 18.0707C18.4727 18.1114 18.5187 18.1583 18.5683 18.2092C18.6447 18.2877 18.7021 18.3604 18.7531 18.4353C18.7532 18.4354 18.7533 18.4356 18.7533 18.4357C18.8138 18.5245 18.8651 18.6164 18.9285 18.725C18.9693 18.7949 19.0068 18.8577 19.0418 18.9148C19.0958 19.0031 19.1435 19.0778 19.1868 19.1438C19.3754 19.4312 19.4825 19.5569 19.6816 19.9529C19.7054 20.0003 19.7275 20.0454 19.7477 20.0877Z" fill="#F6B79F"/>
<path d="M20.957 19.5768C20.9559 19.5772 20.9549 19.5776 20.9538 19.578C20.9246 19.5886 20.8954 19.5994 20.8663 19.6104C20.8526 19.6155 20.8389 19.6207 20.8253 19.626C20.825 19.6261 20.8247 19.6262 20.8244 19.6263C20.8111 19.6314 20.7977 19.6366 20.7844 19.6418C20.7708 19.6471 20.7572 19.6525 20.7436 19.6579C20.7267 19.6646 20.7097 19.6713 20.6928 19.6781C20.6476 19.6963 20.6025 19.7149 20.5576 19.7338C20.3245 19.8315 20.0945 19.9364 19.8633 20.0385C19.8231 20.0563 19.7827 20.074 19.7423 20.0916C19.7267 20.0983 19.7112 20.1051 19.6956 20.1118C19.6626 20.0555 19.6311 20.0038 19.6017 19.9568C19.3664 19.5808 19.1657 19.3479 19.0363 18.9187C19.0337 18.9101 19.0312 18.9014 19.0286 18.8926C19.0256 18.8821 19.0227 18.8717 19.0198 18.8615C18.9112 18.4664 18.9825 18.3156 19.0123 18.2623C19.0356 18.2204 19.0651 18.1821 19.0992 18.1479C19.1765 18.0701 19.2775 18.0134 19.3847 17.9838H19.3848C19.4698 17.9604 19.5586 17.954 19.6426 17.9676C19.7548 17.9857 19.8415 18.0369 19.9264 18.1092C19.9781 18.1533 20.029 18.2052 20.0846 18.2623C20.0964 18.2744 20.1078 18.2865 20.1188 18.2984C20.123 18.303 20.1272 18.3076 20.1314 18.3122C20.25 18.4438 20.3202 18.5633 20.4064 18.7119C20.4188 18.7333 20.4315 18.7553 20.4448 18.778C20.6699 19.1639 20.7965 19.3321 20.9196 19.5193C20.9321 19.5382 20.9445 19.5573 20.9569 19.5768H20.957Z" fill="#F6B79F"/>
<path opacity="0.2" d="M19.6807 20.1142C19.6008 20.1487 19.5206 20.1825 19.44 20.2153C19.3295 20.2602 19.217 20.3004 19.1065 20.3452C19.2775 19.1895 18.392 18.2874 18.172 18.1684C17.9869 18.0685 17.7909 18.0239 17.7909 18.0239C17.747 18.0139 17.7111 18.0079 17.6902 18.0047L18.3404 18.013L18.3518 18.0131C18.3715 18.0313 18.3927 18.0513 18.4152 18.0732C18.5081 18.1634 18.6229 18.285 18.7416 18.4378C18.7417 18.4379 18.7418 18.4381 18.7418 18.4382C18.7774 18.484 18.853 18.5839 19.0138 18.8601C19.0602 18.9399 19.1137 19.0343 19.1753 19.1463C19.1821 19.1587 19.1891 19.1713 19.1961 19.1841C19.4007 19.5579 19.3803 19.5498 19.5956 19.9554C19.6261 20.0129 19.6544 20.0657 19.6807 20.1142Z" fill="white"/>
<path opacity="0.25" d="M20.9472 19.5757C20.9179 19.5863 20.8887 19.5971 20.8596 19.6081C20.8459 19.6132 20.8323 19.6184 20.8186 19.6237C20.8183 19.6238 20.8181 19.6239 20.8177 19.624C20.8044 19.6292 20.7911 19.6343 20.7777 19.6395C20.7641 19.6448 20.7505 19.6501 20.7369 19.6555C20.72 19.6622 20.703 19.669 20.6861 19.6758C20.6409 19.694 20.5958 19.7126 20.5509 19.7315C20.4796 19.3879 20.2882 18.8073 19.7693 18.4372C19.5152 18.256 19.26 18.1804 19.0925 18.1456L19.3781 17.9815H19.3781C19.5138 17.974 19.7243 17.9847 19.9197 18.1069C19.9929 18.1527 20.0425 18.2007 20.1118 18.2926C20.116 18.2981 20.1203 18.3039 20.1247 18.3098C20.1604 18.3584 20.2018 18.4184 20.2539 18.4951C20.3075 18.5738 20.3557 18.6446 20.3997 18.7096C20.5732 18.9655 20.6832 19.1324 20.8115 19.3461C20.8522 19.4139 20.8854 19.47 20.913 19.5169C20.9254 19.5383 20.9368 19.5578 20.9471 19.5757L20.9472 19.5757Z" fill="white"/>
<path d="M17.6253 20.9459C17.573 20.8131 17.4877 20.5447 17.5225 20.2027C17.5603 19.8313 17.7197 19.5699 17.8023 19.4519" stroke="#8B3826" stroke-width="0.207856" stroke-miterlimit="10"/>
<path d="M18.5469 20.6111C18.3083 20.2166 18.1068 19.9193 17.9648 19.7181C17.8904 19.6127 17.7522 19.4202 17.6196 19.1375C17.4953 18.8724 17.4727 18.7345 17.4645 18.655C17.4474 18.4898 17.4258 18.2806 17.5574 18.1124C17.6925 17.9399 17.9339 17.881 18.1222 17.9094C18.3812 17.9485 18.5381 18.1527 18.7802 18.4773C18.9602 18.7187 19.0494 18.896 19.1823 19.138C19.3071 19.365 19.4936 19.6914 19.7437 20.0825" stroke="#8B3826" stroke-width="0.207856" stroke-miterlimit="10"/>
<path d="M18.7877 18.6248C18.7376 18.6703 18.6401 18.7466 18.4962 18.7888C18.475 18.795 18.2772 18.8506 18.0772 18.7888C17.8134 18.7072 17.6145 18.4422 17.5637 18.1163" stroke="#8B3826" stroke-width="0.207856" stroke-miterlimit="10"/>
<path d="M18.7468 19.8283L19.1108 19.6645" stroke="#8B3826" stroke-width="0.161665" stroke-miterlimit="10" stroke-linecap="round"/>
<path d="M18.9312 20.1081L19.2951 19.9443" stroke="#8B3826" stroke-width="0.161665" stroke-miterlimit="10" stroke-linecap="round"/>
<path d="M17.6416 19.6902C17.6104 19.848 17.6747 20.0086 17.804 20.0973C17.9207 20.1773 18.0735 20.1873 18.2031 20.124" stroke="#8B3826" stroke-width="0.161665" stroke-miterlimit="10" stroke-linecap="round"/>
<path d="M18.9745 18.7721C18.9678 18.7482 18.9012 18.379 19.1037 18.1497C19.287 17.9419 19.5736 17.9414 19.7489 17.997C19.9451 18.0592 20.0572 18.2092 20.1233 18.3002C20.467 18.7731 20.763 19.2472 20.9615 19.5786" stroke="#8B3826" stroke-width="0.161665" stroke-miterlimit="10"/>
<path d="M20.0032 18.205C20.0313 18.1381 20.1034 17.9922 20.2615 17.8871C20.319 17.8489 20.4933 17.7331 20.6598 17.7869C20.8099 17.8354 20.8815 17.9983 20.9233 18.0971C21.1535 18.6413 21.3584 19.2103 21.4368 19.4307" stroke="#8B3826" stroke-width="0.161665" stroke-miterlimit="10"/>
<path d="M19.2183 18.0778C19.2673 18.1953 19.3475 18.3608 19.4758 18.5402C19.6239 18.747 19.7057 18.8615 19.8457 18.8902C20.0866 18.9397 20.3082 18.6962 20.3411 18.659" stroke="#8B3826" stroke-width="0.161665" stroke-miterlimit="10"/>
<path d="M3.29028 10.3873C3.31139 10.5351 3.34848 10.6735 3.39971 10.8032C4.46758 13.5061 11.8356 12.8475 13.2918 12.7029" stroke="#2B2B2B" stroke-width="0.207856" stroke-miterlimit="10" stroke-linecap="round"/>
<path opacity="0.55" d="M13.4217 13.2321C13.5122 13.2167 13.5466 12.9748 13.4986 12.6918C13.4505 12.4088 13.3381 12.1918 13.2476 12.2072C13.1571 12.2226 13.1227 12.4645 13.1708 12.7475C13.2188 13.0305 13.3312 13.2474 13.4217 13.2321Z" fill="#2B2B2B"/>
</g>
<circle cx="12" cy="12" r="11.5" stroke="url(#paint0_linear_4973_218324)"/>
<defs>
<linearGradient id="paint0_linear_4973_218324" x1="0" y1="12" x2="24" y2="12" gradientUnits="userSpaceOnUse">
<stop stop-color="#00C2FF"/>
<stop offset="1" stop-color="#00F2FE"/>
</linearGradient>
</defs>
</svg>
