<svg width="24" height="24" viewBox="0 0 24 24" fill="none" xmlns="http://www.w3.org/2000/svg">
<circle cx="12" cy="12" r="12" fill="#00BAFA"/>
<g clip-path="url(#clip0_7554_98770)">
<path d="M10.3603 9.56444C10.3603 9.56444 9.93475 8.55582 9.4061 7.84683C8.7286 6.93793 7.8092 6.25851 7.06824 6.55862C6.35352 6.84775 5.90599 7.76429 6.20943 10.0893C6.39551 11.5163 6.97282 13.0474 6.97282 13.0474C6.97282 13.0474 7.46138 14.1486 8.11789 15.1944C8.86315 16.3819 9.7878 17.5323 9.7878 17.5323L10.7897 17.1029C10.7897 17.1029 11.1189 16.0942 11.1714 14.0493C11.2039 12.7826 10.9744 11.5292 10.9329 11.3298C10.7368 10.3846 10.3603 9.56444 10.3603 9.56444ZM17.6602 10.6618C17.4235 10.0764 17.2131 9.64078 15.1315 8.99191C14.2588 8.71995 13.6882 8.64123 13.2908 8.72615C12.9721 8.79438 12.765 8.96757 12.6028 9.23046C11.9472 10.2954 11.6676 11.7439 11.6485 14.1447C11.6366 15.6353 11.8394 17.1506 11.8394 17.1506L12.9845 17.5323L14.7021 15.6715C14.7021 15.6715 13.8667 14.745 13.5093 13.4768C13.1281 12.1232 13.223 10.4232 13.223 10.4232C13.223 10.4232 13.3261 11.5745 13.557 12.5703C13.9229 14.1486 14.3681 14.8404 14.6067 15.1467C14.8023 15.3976 15.0776 15.6343 15.3223 15.7669C15.8219 16.0375 16.4197 15.5761 16.4197 15.5761C16.4197 15.5761 17.1568 15.0036 17.5171 14.097C18.2074 12.3599 17.7966 10.9991 17.6602 10.6618Z" fill="white"/>
</g>
<defs>
<clipPath id="clip0_7554_98770">
<rect width="11.7933" height="11.0457" fill="white" transform="translate(6.11304 6.48645)"/>
</clipPath>
</defs>
</svg>
