<svg width="25" height="25" viewBox="0 0 25 25" fill="none" xmlns="http://www.w3.org/2000/svg">
<circle cx="12.6733" cy="12.1041" r="12.0018" fill="#0152FB"/>
<path d="M4.37399 11.2319C4.27099 11.221 4.19605 11.1287 4.20914 11.026C4.47778 8.91673 5.52496 6.9811 7.14884 5.60151C8.82042 4.18139 10.9747 3.45954 13.1644 3.5858C15.3542 3.71206 17.4112 4.67673 18.9085 6.27956C20.4057 7.88239 21.2283 10.0003 21.2053 12.1935C21.1823 14.3868 20.3156 16.4869 18.7851 18.0581C17.2546 19.6292 15.1778 20.5506 12.9859 20.6309C10.794 20.7113 8.65535 19.9445 7.01387 18.4897C5.41924 17.0764 4.41282 15.1193 4.18842 13.0049C4.17749 12.9019 4.25434 12.8111 4.35754 12.8025L10.6964 12.2702C10.9231 12.2511 10.9266 11.9206 10.7003 11.8968L4.37399 11.2319Z" fill="white"/>
<g filter="url(#filter0_d_6_1181)">
<path d="M5.82421 11.4491C6.16223 11.0824 6.49622 10.7139 6.83706 10.3496C6.90128 10.2812 6.90832 10.2249 6.85909 10.1443C6.17321 9.01584 6.71516 7.56672 7.98941 6.99101C8.76671 6.63986 9.59512 6.44858 10.4474 6.8077C11.1924 7.12134 11.6771 7.64501 11.8079 8.45841C11.829 8.59015 11.8783 8.62297 12.0044 8.61078C12.4873 8.56437 12.9711 8.5728 13.4549 8.60328C13.528 8.60797 13.5721 8.62766 13.6087 8.50717C13.8384 7.7519 14.3086 7.2001 15.0911 6.99757C15.9823 6.76738 16.8571 6.80583 17.6007 7.42279C18.3831 8.07164 18.7362 9.06694 18.2917 10.0838C18.2415 10.1991 18.2683 10.292 18.3269 10.3914C18.4713 10.6361 18.6658 10.8316 18.8834 11.0139C19.7601 11.7481 20.2134 12.6745 20.1028 13.8339C20.0517 14.3698 19.8594 14.8648 19.6166 15.3449C19.0549 16.4546 18.1736 17.245 17.1286 17.8761C16.9664 17.974 16.8224 18.0847 16.7052 18.237C16.475 18.5371 16.1342 18.6571 15.7915 18.7706C15.7254 18.7926 15.6518 18.8071 15.5983 18.8474C15.5126 18.9117 15.4877 18.9876 15.6284 19.0209C15.8332 19.0692 16.0409 19.1072 16.2439 19.163C16.4422 19.2178 16.6349 19.2909 16.6794 19.5319C16.6063 19.6252 16.4835 19.6426 16.3967 19.7148C16.3363 19.7077 16.2734 19.7087 16.2153 19.6927C15.8609 19.5952 15.8614 19.5938 15.8393 19.9445L15.8454 19.9421C15.4455 20.027 15.107 19.8953 14.8089 19.6379C14.6968 19.5408 14.5927 19.5108 14.4511 19.5816C14.303 19.6557 14.1352 19.6773 13.9715 19.6529C13.8665 19.6369 13.7114 19.6702 13.6893 19.5113C13.6696 19.3702 13.7685 19.2788 13.8928 19.2314C13.9861 19.1958 14.0597 19.1409 14.1314 19.0664C13.3199 19.1573 12.5135 19.0683 11.7039 19.0711C11.8244 19.1601 11.9537 19.2225 12.0695 19.3045C12.16 19.3688 12.2313 19.4639 12.1849 19.5863C12.1413 19.7007 12.0316 19.7143 11.9289 19.7054C11.8131 19.6955 11.6842 19.6946 11.5867 19.6426C11.3682 19.5258 11.2036 19.5966 11.0349 19.7359C10.8436 19.8934 10.6256 19.9993 10.372 19.9886C10.1994 19.9815 10.0156 19.966 10.0246 19.7166C10.0269 19.6477 9.99643 19.6116 9.92564 19.6322C9.7653 19.6796 9.59512 19.6351 9.43853 19.6773C9.30773 19.7124 9.19662 19.7016 9.15068 19.5807C9.10145 19.4518 9.20131 19.3561 9.30539 19.2966C9.48307 19.1958 9.67904 19.1437 9.88016 19.1058C10.01 19.0809 10.1535 19.0884 10.2726 18.9782C10.1338 18.9332 10.01 18.892 9.88579 18.8531C9.46244 18.7204 9.08645 18.5099 8.89517 18.0931C8.74234 17.7607 8.4798 17.5863 8.17694 17.4222C7.20039 16.8925 6.3884 16.1733 5.793 15.2305C5.35324 14.5348 5.04209 13.8225 5.21701 12.9741L5.31852 12.6489L5.82421 11.4491ZM19.2664 11.6928L19.2683 11.6947C19.2715 11.659 19.2551 11.6426 19.2195 11.6459L19.2214 11.6469C19.175 11.5357 19.1042 11.449 18.9851 11.4106L18.9874 11.4148C18.9921 11.3773 18.9659 11.3618 18.9387 11.3468C18.6851 11.0519 18.3428 10.8405 18.1497 10.487C17.7755 10.9019 17.4928 11.1054 17.1389 11.1855C16.4399 11.344 15.7906 11.2001 15.1895 10.8278C14.2205 10.2277 13.8121 9.38808 14.2453 8.28636C14.3429 8.03788 14.5369 7.84848 14.6284 7.59954C14.7915 7.48796 14.9162 7.32996 15.085 7.21979C14.8665 7.24323 14.6818 7.33372 14.5215 7.47905C14.22 7.64407 14.0386 7.90849 13.9031 8.21369C13.8098 8.42372 13.7812 8.64828 13.7414 8.8705C13.7278 8.94739 13.7203 8.97599 13.6274 8.94786C13.0944 8.78612 12.551 8.8044 12.0048 8.86441C11.9059 8.87519 11.8454 8.89723 11.8272 9.00318C11.7301 9.57795 11.3438 9.94457 10.9036 10.2681C10.5131 10.5545 10.0677 10.7223 9.60028 10.8288C8.9519 10.9769 8.30118 10.9891 7.65515 10.8067C7.59232 10.7889 7.49622 10.7781 7.51778 10.682C7.53982 10.5845 7.6228 10.6178 7.69171 10.6328C7.85158 10.667 8.01098 10.7083 8.17272 10.7294C8.66076 10.7931 9.14599 10.7734 9.62606 10.6633C9.21866 10.6895 8.81641 10.6736 8.41651 10.5789C7.77469 10.4265 7.27868 10.0955 7.18539 9.40496C7.09819 8.75893 7.24305 8.14102 7.62702 7.59532C7.66311 7.54421 7.73859 7.50858 7.72125 7.41951C7.19992 7.585 6.99552 8.0271 6.86565 8.4706C6.70438 9.01959 6.67953 9.59295 7.03396 10.1049C7.15773 10.2835 7.12679 10.397 6.95473 10.5437C6.46434 10.9614 6.06632 11.4645 5.71658 12.0055C5.56702 12.2282 5.48451 12.4771 5.43951 12.7387C5.26886 13.7293 5.54358 14.607 6.12117 15.4068C6.83237 16.3927 7.75641 17.1138 8.86282 17.6069C9.0977 18.0429 9.4015 18.4138 9.85531 18.6384C9.92517 18.673 10.0114 18.7499 10.0799 18.6927C10.1474 18.6365 10.0714 18.5493 10.0522 18.4771C9.88532 17.8517 9.79624 17.2244 10.0124 16.591C10.063 16.5704 10.1136 16.5474 10.1516 16.6112C10.0044 17.1128 10.0836 17.6121 10.1694 18.1105C10.2022 18.3017 10.2683 18.4836 10.3602 18.6557C10.4751 18.8704 10.6453 19.02 10.8741 19.1062C10.9191 19.1231 10.9884 19.1451 10.9411 19.2216C10.9144 19.2652 10.8759 19.2914 10.8262 19.2525C10.5431 19.0326 10.2651 19.2164 9.98564 19.2619C9.75358 19.2895 9.53277 19.3467 9.28617 19.5057C9.53745 19.5338 9.72076 19.53 9.89985 19.47C10.0752 19.523 10.2247 19.3186 10.424 19.4166C10.3982 19.4503 10.3799 19.4724 10.364 19.4954C10.3007 19.5849 10.16 19.6613 10.2618 19.7912C10.349 19.9023 10.4751 19.8409 10.5815 19.802C10.8005 19.7227 10.996 19.5971 11.1919 19.4747C11.2847 19.4166 11.3626 19.4039 11.4732 19.4475C11.6453 19.5155 11.8272 19.5807 12.0475 19.5019C11.6589 19.2666 11.2852 19.0364 11.0747 18.6093C10.8755 18.2042 10.6743 17.8048 10.5332 17.3655C10.6673 17.3566 10.6743 17.4429 10.7029 17.5001C10.8928 17.8817 11.0578 18.2755 11.2829 18.6398C11.3593 18.7635 11.4502 18.8057 11.589 18.8442C11.8572 18.9187 12.1258 18.8976 12.393 18.9093C13.0152 18.937 13.6359 18.9375 14.2542 18.8212C14.415 18.7907 14.4765 18.7209 14.5351 18.5933C14.709 18.2127 14.7854 17.7992 14.9462 17.4143C14.949 17.3979 14.9518 17.381 14.9547 17.3646C15.1051 17.2797 15.07 17.4063 15.054 17.4644C14.927 17.9332 14.8257 18.4105 14.5984 18.8465C14.5276 18.9825 14.4394 19.0847 14.2936 19.1639C14.1459 19.2445 13.9528 19.29 13.8595 19.486C14.0728 19.5286 14.2599 19.501 14.439 19.4203C14.626 19.336 14.7662 19.3932 14.9157 19.523C15.0775 19.6632 15.2556 19.7945 15.4849 19.8165C15.5365 19.8212 15.5932 19.8695 15.6368 19.8156C15.6809 19.7612 15.6199 19.7162 15.604 19.6674C15.573 19.5746 15.4211 19.5019 15.4886 19.4096C15.559 19.3135 15.6898 19.4039 15.7943 19.4171C15.8093 19.4189 15.8253 19.4161 15.8407 19.4152C15.9832 19.4485 16.1248 19.4907 16.2692 19.5104C16.3236 19.5179 16.4244 19.5694 16.4422 19.47C16.4549 19.4002 16.3658 19.3838 16.3077 19.3678C16.1511 19.3247 15.994 19.2853 15.837 19.2445C15.5529 19.1198 15.2631 19.1428 14.9575 19.2469C15.0072 19.0561 15.2341 19.0842 15.2594 18.9173C15.296 18.9182 15.3171 18.899 15.3283 18.8657C15.5894 18.5052 15.7601 18.117 15.7507 17.6581C15.7442 17.3318 15.672 17.0209 15.589 16.7101C15.6077 16.6548 15.6584 16.6613 15.701 16.6529L15.7615 16.8104C15.7526 16.8386 15.7657 16.8479 15.792 16.8461C15.8262 16.9928 15.8604 17.1395 15.8942 17.2863C15.9223 17.6956 15.8637 18.095 15.7446 18.4855C15.7329 18.5235 15.7156 18.5558 15.7348 18.5887C15.7695 18.6468 15.8182 18.6074 15.8576 18.5933C16.1347 18.4963 16.3714 18.3369 16.5721 18.1236C16.7305 17.9548 16.9059 17.8067 17.1056 17.689C17.1384 17.6965 17.1703 17.7021 17.1609 17.6496L17.1576 17.6538C17.2111 17.6777 17.2345 17.6449 17.2533 17.6032L17.2523 17.6084C17.8023 17.3289 18.2411 16.9089 18.6452 16.4588C19.3564 15.6674 19.8801 14.7739 19.9434 13.6815C19.9813 13.0242 19.844 12.4012 19.4094 11.8747V11.8813C19.4089 11.8494 19.4028 11.8227 19.3611 11.8316L19.3639 11.8344C19.3803 11.7852 19.355 11.7584 19.3142 11.7397L19.3151 11.7416C19.3123 11.712 19.3015 11.6905 19.2669 11.6923L19.2664 11.6928ZM9.13005 10.4804C9.78265 10.4879 10.3166 10.352 10.8183 10.1035C11.4704 9.78048 11.784 9.17899 11.6692 8.51561C11.5262 7.6933 10.8759 7.01586 9.97908 6.84474C9.13568 6.68393 8.38088 6.85646 7.83658 7.60282C7.45215 8.12977 7.26837 8.70407 7.34807 9.35526C7.4062 9.82971 7.67905 10.1274 8.11787 10.2943C8.4737 10.4298 8.84079 10.4814 9.13005 10.4804ZM16.3119 11.0449C17.2566 11.0679 17.7929 10.7758 18.1201 10.1143C18.513 9.31963 18.2992 8.27557 17.6016 7.63329C16.8979 6.98585 16.0043 6.89959 15.1933 7.40076C14.3218 7.93943 13.9673 9.17664 14.4844 9.98067C14.9575 10.7158 15.6837 11.0111 16.3124 11.0449H16.3119Z" fill="#1E1E1B"/>
</g>
<path d="M19.4743 11.9641L19.4103 11.8923L19.3573 11.9401L19.0243 11.6371C18.8964 11.5191 18.6086 11.0868 18.7694 11.1961C19.1444 11.4511 19.3797 11.7662 19.4743 11.9641Z" fill="#B5E865"/>
<path d="M6.33362 17.8282C6.34965 17.8457 6.36569 17.8631 6.3822 17.8806C6.36616 17.8631 6.35013 17.8457 6.33362 17.8282Z" fill="#275AB9"/>
<path d="M15.8928 17.2868C15.8586 17.14 15.8244 16.9933 15.7906 16.8466C15.7808 16.8348 15.7705 16.8227 15.7602 16.8109C15.74 16.7584 15.7198 16.7059 15.7001 16.6534C15.5614 16.5315 15.4259 16.5334 15.3138 16.6595C15.1329 16.8634 15.0119 17.0983 14.9538 17.3651C14.951 17.3815 14.9482 17.3984 14.9454 17.4148C14.7522 17.4143 14.725 17.5892 14.6533 17.7059C14.5811 17.8236 14.5028 17.8817 14.3584 17.8878C13.7349 17.9141 13.1165 17.8306 12.5117 17.7204C11.7142 17.5751 10.9796 17.2394 10.3626 16.6904C10.2979 16.6332 10.2281 16.6192 10.1507 16.6117C10.1123 16.5484 10.0617 16.5709 10.0115 16.5915C9.93602 16.5718 9.86194 16.5404 9.78553 16.5343C9.0462 16.4753 8.41329 16.1096 7.76351 15.8095C7.42737 15.6544 7.13857 15.3965 6.83103 15.1813C6.79259 15.1546 6.76446 15.1138 6.71101 15.1302C6.66413 15.1443 6.66038 15.1851 6.66225 15.2244C6.66554 15.2854 6.69648 15.3393 6.75602 15.3412C6.90463 15.3459 6.93511 15.464 7.00074 15.5592C7.12779 15.743 7.24922 15.9272 7.4344 16.0707C7.59427 16.1944 7.72929 16.3529 7.75226 16.5906C7.76163 16.689 7.78179 16.8409 7.94072 16.9019C8.17232 16.991 8.47471 16.9928 8.54878 17.3196C8.55816 17.3613 8.60973 17.3707 8.6477 17.3618C8.87836 17.3065 8.8357 17.487 8.86289 17.607C7.75648 17.1138 6.8329 16.3927 6.12124 15.4068C5.54412 14.607 5.26892 13.7289 5.43957 12.7388C5.48458 12.4772 5.56709 12.2282 5.71665 12.0055C5.80947 12.0927 5.7204 12.1813 5.71196 12.2662C5.6993 12.3886 5.62147 12.5137 5.63976 12.6272C5.69977 12.9999 5.65945 13.3726 5.66976 13.7449C5.67351 13.8733 5.68383 13.9924 5.76915 14.0932C5.82166 14.1555 5.81885 14.3098 5.95434 14.2404C6.06076 14.186 6.1278 14.089 6.0767 13.9479C6.04294 13.855 5.982 13.7608 6.01435 13.6567C6.14843 13.2254 6.3233 12.8246 6.80665 12.6736C6.85775 12.6572 6.92432 12.6563 6.95761 12.6225C7.17842 12.3975 7.35282 12.5283 7.54316 12.6745C7.83383 12.8982 8.147 13.0899 8.4794 13.2465C10.7105 14.299 13.0321 14.4561 15.4123 13.9103C16.3677 13.6914 17.2557 13.2892 18.0775 12.751C18.2908 12.6112 18.4943 12.4851 18.7644 12.5906C18.829 12.6159 18.9509 12.6577 18.9223 12.494C19.2224 12.4031 19.3274 12.7299 19.5567 12.8058C19.6073 12.6961 19.5778 12.6 19.5698 12.5011C19.5524 12.2821 19.4141 12.096 19.409 11.8757C19.8436 12.4017 19.9809 13.0247 19.943 13.682C19.8797 14.7739 19.3555 15.6679 18.6448 16.4593C18.2402 16.9094 17.8019 17.3294 17.2519 17.6089C17.2951 17.4406 17.4784 17.4143 17.5703 17.2948C17.6012 17.2544 17.6762 17.2291 17.6397 17.1663C17.6087 17.1133 17.5379 17.1269 17.4906 17.1447C17.3691 17.1902 17.2412 17.2001 17.1183 17.2582C16.8788 17.3716 16.6134 17.4293 16.3696 17.5348C16.2224 17.5985 15.9819 17.5231 15.9636 17.8273C15.9003 17.6215 15.9857 17.4438 15.8938 17.2868H15.8928ZM9.30124 14.5011C11.4086 15.7153 13.5576 15.5461 15.7264 14.7102C13.5576 15.4968 11.4137 15.5076 9.30124 14.5011Z" fill="#E8F894"/>
<path d="M6.80662 12.674C6.32327 12.825 6.1484 13.2254 6.01432 13.6572C5.98197 13.7612 6.04291 13.8555 6.07667 13.9483C6.12777 14.0889 6.06073 14.186 5.95431 14.2408C5.81882 14.3102 5.82163 14.1555 5.76912 14.0936C5.6838 13.9928 5.67349 13.8737 5.66973 13.7453C5.65895 13.373 5.69927 13.0003 5.63973 12.6276C5.62145 12.5146 5.69927 12.389 5.71193 12.2666C5.72084 12.1818 5.80944 12.0936 5.71662 12.006C6.06636 11.465 6.46438 10.9619 6.95477 10.5442C7.12729 10.3975 7.15777 10.284 7.034 10.1054C6.67957 9.59296 6.70442 9.02006 6.86569 8.47108C6.99555 8.02757 7.20043 7.58548 7.72129 7.41998C7.69283 7.49004 7.66315 7.54422 7.62705 7.59579C7.24309 8.14196 7.09823 8.75987 7.18543 9.40543C7.27872 10.0965 7.77473 10.427 8.41655 10.5794C8.81645 10.6741 9.2187 10.69 9.6261 10.6637C9.14603 10.7744 8.66127 10.7936 8.17276 10.7298C8.01102 10.7087 7.85162 10.6675 7.69175 10.6333C7.62284 10.6183 7.53939 10.585 7.51782 10.6825C7.49625 10.7786 7.59236 10.7894 7.65518 10.8072C8.30122 10.9896 8.95147 10.9774 9.60031 10.8292C10.0673 10.7223 10.5131 10.555 10.9036 10.2685C11.3439 9.94504 11.7302 9.57843 11.8272 9.00365C11.845 8.8977 11.9055 8.87567 12.0049 8.86488C12.5511 8.80487 13.0944 8.78659 13.6275 8.94833C13.7198 8.97646 13.7273 8.9474 13.7414 8.87098C13.7812 8.64923 13.8098 8.42419 13.9031 8.21416C14.0391 7.90896 14.2201 7.64408 14.5215 7.47952C14.581 7.49828 14.6195 7.53625 14.6279 7.60001C14.537 7.84895 14.3429 8.03836 14.2449 8.28683C13.8117 9.38855 14.2205 10.2282 15.1891 10.8283C15.7901 11.2005 16.4394 11.344 17.1385 11.186C17.4924 11.1058 17.7751 10.9024 18.1492 10.4875C18.3424 10.841 18.6846 11.0524 18.9383 11.3473C18.9547 11.3698 18.9711 11.3928 18.987 11.4153L18.9847 11.411C19.0376 11.5156 19.0733 11.6379 19.221 11.6473L19.2191 11.6464C19.2355 11.6628 19.2514 11.6787 19.2678 11.6951L19.266 11.6933C19.2819 11.7097 19.2983 11.7261 19.3142 11.7425L19.3133 11.7406C19.31 11.7828 19.3124 11.8217 19.363 11.8353L19.3602 11.8325C19.3761 11.8489 19.3925 11.8658 19.4085 11.8822V11.8756C19.4136 12.096 19.5519 12.2821 19.5693 12.501C19.5773 12.6 19.6068 12.6961 19.5562 12.8058C19.3269 12.7298 19.2219 12.4035 18.9218 12.494C18.7057 12.4298 18.5477 12.2596 18.34 12.1471C18.3311 12.2873 18.3335 12.3923 18.2017 12.4598C17.7521 12.6909 17.326 12.9656 16.8633 13.1747C15.9448 13.5901 14.9777 13.8639 13.9861 13.968C13.1469 14.0566 12.2876 14.028 11.4484 13.8569C11.0232 13.7701 10.5858 13.7284 10.1863 13.5381C10.1671 13.5137 10.1531 13.4767 10.1287 13.4673C9.73487 13.3196 9.34199 13.1686 8.97491 12.9628C8.77613 12.8513 8.55203 12.81 8.35372 12.6872C8.18073 12.5798 8.01711 12.3979 7.77145 12.4485C7.75739 12.4537 7.7452 12.4514 7.73441 12.4401C7.69269 12.2741 7.58299 12.2024 7.41609 12.2094C7.38749 12.1776 7.35936 12.0979 7.31857 12.1386C7.14323 12.3121 6.87038 12.3942 6.80615 12.6736L6.80662 12.674ZM11.6903 12.0613C11.7494 12.1405 11.763 12.2629 11.8957 12.261C11.9885 12.2596 12.0161 12.2048 12.0039 12.1218C11.988 12.0163 11.9313 11.9483 11.8197 11.9558C11.7597 11.96 11.703 11.99 11.6908 12.0613H11.6903ZM13.8774 12.08C13.89 12.0107 13.8605 11.9755 13.7925 11.9732C13.6833 11.9694 13.6143 12.0238 13.5989 12.1302C13.59 12.1912 13.6261 12.2643 13.6865 12.2521C13.7728 12.2348 13.8652 12.193 13.8774 12.08Z" fill="#B5E865"/>
<path d="M15.0869 7.21967C14.8032 7.42333 14.6104 7.66696 14.5539 7.75991C14.5246 7.78011 14.4379 7.78133 14.2876 7.64797C14.4525 7.48795 14.7145 7.33379 14.8246 7.27923C14.856 7.26206 14.9511 7.22936 15.0869 7.21967Z" fill="#B5E865"/>
<path d="M9.12963 10.4809C8.84037 10.4819 8.47282 10.4303 8.11745 10.2948C7.67864 10.1279 7.40578 9.83019 7.34765 9.35575C7.26795 8.70456 7.45173 8.13026 7.83616 7.6033C8.38046 6.85694 9.13526 6.68442 9.97866 6.84522C10.8755 7.01634 11.5258 7.69378 11.6688 8.51609C11.7841 9.179 11.47 9.78097 10.8179 10.104C10.3162 10.3525 9.78223 10.4884 9.12963 10.4809ZM10.2623 9.07821C10.2604 9.29762 10.3575 9.50296 10.5853 9.62391C10.8207 9.74909 11.063 9.72096 11.2703 9.56531C11.4845 9.40451 11.5708 9.17572 11.5351 8.90334C11.5225 8.80629 11.4653 8.79692 11.3884 8.79645C11.2285 8.79551 11.176 8.71815 11.236 8.56954C11.2834 8.45327 11.2351 8.40733 11.124 8.36748C10.7025 8.21605 10.2792 8.54422 10.2623 9.07821Z" fill="#FAFBFB"/>
<path d="M16.3119 11.0454C15.6832 11.0117 14.957 10.7163 14.484 9.98119C13.9669 9.17763 14.3213 7.93995 15.1928 7.40128C16.0044 6.89964 16.8975 6.9859 17.6012 7.63381C18.2992 8.27609 18.513 9.32015 18.1197 10.1148C17.7924 10.7763 17.2556 11.0684 16.3114 11.0454H16.3119ZM15.2988 8.75757C14.8651 8.7646 14.5576 9.10684 14.5759 9.56206C14.5918 9.96103 14.9444 10.2775 15.3419 10.2494C15.7442 10.2208 16.0653 9.85367 16.0358 9.45424C16.0287 9.36047 16.0339 9.27093 15.8843 9.2789C15.7498 9.28593 15.6738 9.19451 15.7446 9.06371C15.8121 8.939 15.7428 8.89775 15.6574 8.84805C15.5463 8.78383 15.4258 8.75851 15.2988 8.75757Z" fill="#FAFBFB"/>
<path d="M10.1508 16.6117C10.2286 16.6192 10.2984 16.6333 10.3627 16.6905C10.9796 17.2394 11.7138 17.5751 12.5117 17.7205C13.1165 17.8306 13.7349 17.9136 14.3584 17.8878C14.5028 17.8817 14.5811 17.8236 14.6533 17.7059C14.725 17.5892 14.7527 17.4143 14.9454 17.4148C14.7846 17.7992 14.7082 18.2132 14.5342 18.5939C14.4756 18.7214 14.4142 18.7917 14.2534 18.8217C13.635 18.938 13.0143 18.9375 12.3922 18.9098C12.125 18.8981 11.8563 18.9192 11.5882 18.8447C11.4494 18.8062 11.3584 18.764 11.282 18.6403C11.057 18.2755 10.892 17.8822 10.7021 17.5006C10.6735 17.4434 10.6665 17.3571 10.5324 17.366C10.673 17.8053 10.8742 18.2047 11.0739 18.6098C11.2844 19.0369 11.658 19.2671 12.0467 19.5024C11.8263 19.5812 11.6449 19.516 11.4724 19.4481C11.3622 19.4044 11.2839 19.4176 11.1911 19.4752C10.9951 19.5976 10.7996 19.7232 10.5807 19.8025C10.4742 19.8414 10.3477 19.9023 10.2609 19.7917C10.1592 19.6618 10.2998 19.5854 10.3631 19.4959C10.3795 19.4729 10.3974 19.4509 10.4231 19.4171C10.2239 19.3196 10.0743 19.524 9.89901 19.4706C9.86431 19.3749 9.9637 19.3346 9.9848 19.2624C10.2647 19.2169 10.5422 19.0331 10.8254 19.253C10.8751 19.2919 10.9135 19.2657 10.9403 19.2221C10.9871 19.1457 10.9182 19.1241 10.8732 19.1067C10.6444 19.0205 10.4742 18.8709 10.3594 18.6562C10.2675 18.4842 10.2014 18.3023 10.1686 18.111C10.0823 17.6126 10.0036 17.1133 10.1508 16.6117Z" fill="#B5E865"/>
<path d="M8.86249 17.6074C8.86342 17.6069 8.86155 17.6079 8.86249 17.6074C8.82451 17.6163 8.55822 17.3622 8.54838 17.32C8.4743 16.9932 8.17192 16.9909 7.94032 16.9023C7.78139 16.8414 7.7617 16.6895 7.75185 16.591C7.72888 16.3533 7.59386 16.1949 7.43399 16.0711C7.24881 15.9276 7.12739 15.7434 7.00034 15.5596C6.9347 15.4644 6.90423 15.3463 6.75561 15.3416C6.6956 15.3397 6.66466 15.2853 6.66185 15.2249C6.65997 15.1855 6.66419 15.1447 6.71061 15.1306C6.76405 15.1147 6.79218 15.155 6.83062 15.1817C7.13864 15.3965 7.42743 15.6543 7.7631 15.81C8.41289 16.1105 9.04579 16.4761 9.78512 16.5347C9.86154 16.5408 9.93608 16.5723 10.0111 16.5919C9.79544 17.2258 9.88451 17.8526 10.0509 18.478C10.0702 18.5497 10.1461 18.6374 10.0786 18.6937C10.0102 18.7504 9.92389 18.6735 9.85404 18.6393C9.40022 18.4152 9.09643 18.0443 8.86155 17.6079L8.86249 17.6074Z" fill="#B5E865"/>
<path d="M14.9543 17.3651C15.012 17.0984 15.1329 16.8635 15.3144 16.6596C15.4264 16.5334 15.5619 16.5316 15.7007 16.6535C15.658 16.6619 15.6074 16.6553 15.5886 16.7107C15.493 16.7697 15.5539 16.8616 15.5713 16.9155C15.7218 17.389 15.665 17.8405 15.5056 18.3042C15.4428 18.487 15.2848 18.6483 15.3284 18.8658C15.3055 18.8832 15.2825 18.9 15.2595 18.9174C15.2337 19.0843 15.0068 19.0557 14.9576 19.247C15.2637 19.1429 15.553 19.1199 15.8376 19.2446C15.839 19.3013 15.8399 19.3581 15.8408 19.4148C15.8254 19.4157 15.8094 19.4186 15.7944 19.4167C15.6899 19.4035 15.5586 19.3131 15.4888 19.4092C15.4213 19.5015 15.5732 19.5742 15.6041 19.667C15.62 19.7158 15.681 19.7608 15.6369 19.8152C15.5933 19.8691 15.5366 19.8213 15.485 19.8161C15.2558 19.7945 15.0776 19.6628 14.9159 19.5226C14.7663 19.3932 14.6261 19.336 14.4391 19.42C14.26 19.5006 14.0729 19.5283 13.8596 19.4856C13.9529 19.2896 14.1465 19.2437 14.2937 19.1635C14.4395 19.0838 14.5277 18.9821 14.5985 18.8461C14.8259 18.4106 14.9276 17.9329 15.0542 17.464C15.0696 17.4059 15.1048 17.2793 14.9548 17.3642L14.9543 17.3651Z" fill="#B5E865"/>
<path d="M15.8929 17.2868C15.9848 17.4444 15.8995 17.6222 15.9628 17.8276C15.9811 17.5227 16.2217 17.5987 16.3689 17.5349C16.6128 17.4289 16.8783 17.3712 17.118 17.2582C17.2408 17.2 17.3689 17.1902 17.4904 17.1447C17.5377 17.1269 17.6085 17.1133 17.6395 17.1663C17.6761 17.2291 17.601 17.2545 17.5701 17.2948C17.4782 17.4144 17.2948 17.4406 17.2516 17.609L17.2526 17.6039C17.2099 17.6006 17.1714 17.6053 17.1569 17.6545L17.1602 17.6503C17.1419 17.6634 17.1231 17.6766 17.1048 17.6897C16.905 17.8079 16.7301 17.9556 16.5711 18.1245C16.3703 18.3379 16.1335 18.4978 15.8563 18.5944C15.8169 18.608 15.7681 18.6479 15.7334 18.5897C15.7137 18.5569 15.7315 18.5245 15.7433 18.4866C15.8624 18.0959 15.921 17.6967 15.8929 17.2868Z" fill="#B5E865"/>
<path d="M15.3279 18.8672C15.2843 18.6496 15.4424 18.4882 15.5052 18.3053C15.6647 17.841 15.7219 17.3898 15.5709 16.9161C15.5535 16.8621 15.4926 16.7702 15.5882 16.7111C15.6717 17.0221 15.7435 17.333 15.7501 17.6595C15.7594 18.1182 15.5887 18.507 15.3275 18.8672H15.3279Z" fill="#E8F894"/>
<path d="M15.8398 19.4159C15.8389 19.3591 15.8375 19.3023 15.8365 19.2455C15.9938 19.2864 16.151 19.3258 16.3078 19.369C16.366 19.385 16.4552 19.4014 16.4425 19.4713C16.4247 19.5708 16.3238 19.5192 16.2693 19.5117C16.1248 19.4915 15.983 19.4497 15.8403 19.4164L15.8398 19.4159Z" fill="#E8F894"/>
<path d="M9.98624 19.2623C9.96465 19.3351 9.86513 19.375 9.90034 19.4707C9.72056 19.5308 9.53702 19.5346 9.28589 19.5064C9.53279 19.3473 9.75388 19.2896 9.98624 19.2623Z" fill="#E8F894"/>
<path d="M15.2585 18.9181C15.2817 18.9006 15.3048 18.8837 15.3279 18.8662C15.317 18.8997 15.2953 18.9186 15.2585 18.9181Z" fill="#E8F894"/>
<path d="M17.1047 17.6894C17.123 17.6763 17.1417 17.6632 17.16 17.6501C17.1693 17.7025 17.1375 17.6969 17.1047 17.6894Z" fill="#E8F894"/>
<path d="M15.7601 16.8109C15.7704 16.8231 15.7803 16.8348 15.7906 16.8466C15.7643 16.848 15.7512 16.8386 15.7601 16.8109Z" fill="#B5E865"/>
<path d="M6.80664 12.674C6.87087 12.3946 7.14372 12.3126 7.31906 12.1391C7.35985 12.0983 7.38798 12.178 7.41657 12.2099C7.44939 12.3881 7.6477 12.3379 7.7349 12.4406C7.74522 12.4513 7.75787 12.4542 7.77194 12.449C7.87508 12.5146 7.97588 12.5854 8.0823 12.6454C8.7499 13.0228 9.43297 13.3646 10.1868 13.539C10.5863 13.7293 11.0237 13.7711 11.4489 13.8578C12.2881 14.0289 13.1474 14.0571 13.9866 13.9689C14.9777 13.8644 15.9449 13.591 16.8637 13.1757C17.3265 12.9666 17.7526 12.6918 18.2022 12.4607C18.334 12.3927 18.3316 12.2882 18.3405 12.148C18.5482 12.2605 18.7057 12.4307 18.9223 12.4949C18.9514 12.6586 18.829 12.6168 18.7643 12.5915C18.4943 12.4856 18.2908 12.6121 18.0775 12.7519C17.2557 13.2901 16.3673 13.6923 15.4123 13.9112C13.0321 14.457 10.7105 14.2999 8.47939 13.2474C8.14746 13.0908 7.83429 12.8986 7.54316 12.6754C7.35281 12.5292 7.17841 12.3984 6.9576 12.6234C6.92431 12.6572 6.85774 12.6586 6.80664 12.6745V12.674Z" fill="#1E1E1B"/>
<path d="M9.30115 14.501C11.4136 15.5076 13.5576 15.4968 15.7263 14.7101C13.5576 15.5456 11.4085 15.7148 9.30115 14.501Z" fill="#1E1E1B"/>
<path d="M11.6904 12.0613C11.7026 11.99 11.7593 11.9596 11.8193 11.9558C11.9308 11.9483 11.988 12.0167 12.0034 12.1217C12.0156 12.2046 11.988 12.2595 11.8952 12.2609C11.7626 12.2627 11.749 12.1404 11.6899 12.0613H11.6904Z" fill="#1E1E1B"/>
<path d="M13.877 12.08C13.8643 12.1923 13.7726 12.2345 13.6864 12.2518C13.626 12.264 13.59 12.1914 13.5989 12.13C13.6143 12.0238 13.6832 11.9695 13.7922 11.9732C13.8597 11.9755 13.8896 12.0107 13.877 12.08Z" fill="#1E1E1B"/>
<path d="M10.2628 9.07807C10.2802 8.54387 10.7037 8.21556 11.1249 8.36705C11.236 8.40692 11.2844 8.45288 11.237 8.56919C11.1765 8.71787 11.2295 8.79526 11.3894 8.7962C11.4663 8.7962 11.5236 8.80652 11.5362 8.90313C11.5719 9.17563 11.4851 9.40451 11.2712 9.56538C11.0639 9.72109 10.8219 9.74877 10.586 9.62401C10.3581 9.503 10.261 9.29757 10.2628 9.07807Z" fill="#1E1E1B"/>
<path d="M15.2986 8.758C15.4257 8.75846 15.5462 8.78379 15.6574 8.84852C15.7427 8.89776 15.8122 8.9395 15.7446 9.06426C15.6738 9.19512 15.7498 9.28657 15.8844 9.27954C16.034 9.27157 16.0288 9.36115 16.0359 9.45495C16.0654 9.85408 15.7441 10.2218 15.3417 10.2504C14.944 10.2785 14.5913 9.96196 14.5754 9.56282C14.5571 9.10741 14.8647 8.76503 15.2986 8.75846V8.758Z" fill="#1E1E1B"/>
<path d="M15.5954 16.6993C15.9965 18.0946 15.5045 18.825 15.2084 19.0158L15.1523 18.9595L15.4509 16.6993C15.4768 16.6912 15.5421 16.6798 15.5954 16.6993Z" fill="#B5E865"/>
<path d="M17.6578 17.3555C17.715 17.2569 17.6521 17.1731 17.6135 17.1436L17.3103 17.3235L16.7041 17.8977L16.9826 17.7597C17.1838 17.666 17.6007 17.4541 17.6578 17.3555Z" fill="#B5E865"/>
<path d="M17.6063 17.411C17.5491 17.4728 17.0979 17.7248 16.8794 17.8432L16.8092 17.7951C17.073 17.631 17.6016 17.3246 17.6063 17.411Z" fill="#B5E865"/>
<path d="M5.17383 13.2916C5.21659 12.5251 5.41866 11.8694 5.83683 11.4356L5.52807 12.2076C5.44447 12.5749 5.23962 13.2982 5.17383 13.2916Z" fill="#1E1E1B"/>
<path d="M7.38324 15.7446C7.83124 16.2354 8.71225 17.2439 8.65227 17.351C8.62207 17.4049 8.47838 17.3195 8.28249 17.1567C7.53367 16.6825 6.95175 15.8222 6.69602 15.3093C6.63689 15.1907 6.70304 15.257 6.67004 15.1681L6.82101 15.2359L7.38324 15.7446Z" fill="#B5E865"/>
<path d="M7.39998 12.2766L7.38782 12.1671L7.59455 12.1975L7.74251 12.3982L7.70603 12.4488L7.5682 12.4083L7.39998 12.2766Z" fill="#1E1E1B"/>
<path d="M10.2314 13.5482C8.85609 13.2301 7.53664 12.3711 7.37976 12.1578L7.82139 12.236C8.55311 12.5627 10.2314 13.2971 10.2314 13.5482Z" fill="#B5E865"/>
<defs>
<filter id="filter0_d_6_1181" x="4.97995" y="6.6153" width="15.3267" height="13.7491" filterUnits="userSpaceOnUse" color-interpolation-filters="sRGB">
<feFlood flood-opacity="0" result="BackgroundImageFix"/>
<feColorMatrix in="SourceAlpha" type="matrix" values="0 0 0 0 0 0 0 0 0 0 0 0 0 0 0 0 0 0 127 0" result="hardAlpha"/>
<feOffset dy="0.187528"/>
<feGaussianBlur stdDeviation="0.0937638"/>
<feComposite in2="hardAlpha" operator="out"/>
<feColorMatrix type="matrix" values="0 0 0 0 0 0 0 0 0 0 0 0 0 0 0 0 0 0 0.25 0"/>
<feBlend mode="normal" in2="BackgroundImageFix" result="effect1_dropShadow_6_1181"/>
<feBlend mode="normal" in="SourceGraphic" in2="effect1_dropShadow_6_1181" result="shape"/>
</filter>
</defs>
</svg>
