<svg width="24" height="24" viewBox="0 0 24 24" fill="none" xmlns="http://www.w3.org/2000/svg">
<g clip-path="url(#clip0_6158_54620)">
<path d="M12.0001 23.806C18.5203 23.806 23.806 18.5203 23.806 12C23.806 5.47974 18.5203 0.194031 12.0001 0.194031C5.4798 0.194031 0.194092 5.47974 0.194092 12C0.194092 18.5203 5.4798 23.806 12.0001 23.806Z" fill="#E6E9FF" stroke="black" stroke-width="0.131177" stroke-miterlimit="10"/>
<path d="M12.0001 23.806C18.5203 23.806 23.806 18.5203 23.806 12C23.806 5.47974 18.5203 0.194031 12.0001 0.194031C5.4798 0.194031 0.194092 5.47974 0.194092 12C0.194092 18.5203 5.4798 23.806 12.0001 23.806Z" stroke="black" stroke-width="0.131177" stroke-miterlimit="10"/>
<path d="M12.0001 23.0736C18.1158 23.0736 23.0736 18.1158 23.0736 12C23.0736 5.88426 18.1158 0.926453 12.0001 0.926453C5.88432 0.926453 0.926514 5.88426 0.926514 12C0.926514 18.1158 5.88432 23.0736 12.0001 23.0736Z" fill="#9FA6FF" stroke="black" stroke-width="0.131177" stroke-miterlimit="10"/>
<path d="M12.0002 22.1562C17.6093 22.1562 22.1564 17.6091 22.1564 12C22.1564 6.39089 17.6093 1.84381 12.0002 1.84381C6.39108 1.84381 1.84399 6.39089 1.84399 12C1.84399 17.6091 6.39108 22.1562 12.0002 22.1562Z" fill="#364DB2" stroke="black" stroke-width="0.131177" stroke-miterlimit="10"/>
<path d="M18.0869 5.43066C19.8514 7.06645 20.9557 9.40425 20.9557 12C20.9557 16.9461 16.946 20.9557 12 20.9557" stroke="black" stroke-width="0.131177" stroke-miterlimit="10"/>
<path d="M3.04419 12C3.04419 7.05397 7.05385 3.04431 11.9999 3.04431" stroke="#FEFFF4" stroke-width="0.131177" stroke-miterlimit="10" stroke-linecap="round"/>
<path d="M20.7491 13.913C20.2347 16.2633 18.7802 18.401 16.5432 19.7178C12.2808 22.2271 6.79121 20.8057 4.28223 16.5431" stroke="black" stroke-width="0.131177" stroke-miterlimit="10"/>
<path d="M18.0573 12.9784C18.0435 13.2034 18.2831 13.3999 18.2831 13.9758C18.2831 16.3118 16.3472 18.8086 12.367 18.8086C10.2542 18.8086 7.97475 18.0659 6.82039 16.2132C5.43669 13.9926 5.58426 10.9508 6.02874 9.38743C6.63106 7.26913 9.11797 5.00785 12.4313 5.14012C17.2171 5.33098 18.2488 9.8507 18.0573 12.9784Z" fill="#E6E9FF" stroke="black" stroke-width="0.131177" stroke-miterlimit="10"/>
<path d="M11.5595 12.5521C11.5822 11.6061 11.1254 10.8278 10.5391 10.8138C9.95278 10.7997 9.4591 11.5552 9.43639 12.5012C9.41367 13.4472 9.87054 14.2255 10.4568 14.2395C11.0431 14.2536 11.5368 13.4981 11.5595 12.5521Z" fill="black" stroke="black" stroke-width="0.131177" stroke-miterlimit="10"/>
<path d="M10.5584 11.8416C10.7091 11.8416 10.8314 11.7194 10.8314 11.5686C10.8314 11.4179 10.7091 11.2957 10.5584 11.2957C10.4076 11.2957 10.2854 11.4179 10.2854 11.5686C10.2854 11.7194 10.4076 11.8416 10.5584 11.8416Z" fill="#FEFFF4"/>
<path d="M10.8863 12.2816C10.9889 12.2816 11.0721 12.1984 11.0721 12.0958C11.0721 11.9932 10.9889 11.91 10.8863 11.91C10.7836 11.91 10.7004 11.9932 10.7004 12.0958C10.7004 12.1984 10.7836 12.2816 10.8863 12.2816Z" fill="#FEFFF4"/>
<path d="M15.5488 14.1917C16.1188 14.1707 16.5534 13.4081 16.5195 12.4884C16.4857 11.5688 15.9961 10.8402 15.4261 10.8612C14.8561 10.8822 14.4215 11.6448 14.4554 12.5645C14.4892 13.4841 14.9788 14.2127 15.5488 14.1917Z" fill="black" stroke="black" stroke-width="0.131177" stroke-miterlimit="10"/>
<path d="M15.2709 11.9641C15.4292 11.9641 15.5575 11.8358 15.5575 11.6775C15.5575 11.5193 15.4292 11.391 15.2709 11.391C15.1127 11.391 14.9844 11.5193 14.9844 11.6775C14.9844 11.8358 15.1127 11.9641 15.2709 11.9641Z" fill="#FEFFF4"/>
<path d="M9.14307 10.5264C9.14307 10.5264 10.1791 10.8417 10.7904 9.8443" stroke="black" stroke-width="0.131177" stroke-miterlimit="10" stroke-linecap="round" stroke-linejoin="round"/>
<path d="M14.9348 9.8894C14.9348 9.8894 15.3852 10.6937 16.3762 10.6937" stroke="black" stroke-width="0.131177" stroke-miterlimit="10" stroke-linecap="round" stroke-linejoin="round"/>
<path d="M11.5564 16.0128C11.5564 16.0128 12.066 14.5226 13.4228 14.8123C14.3903 15.0186 14.5357 16.0606 14.5357 16.0606" stroke="black" stroke-width="0.131177" stroke-miterlimit="10" stroke-linecap="round" stroke-linejoin="round"/>
<path d="M7.35238 12.249C6.90222 12.249 6.53711 12.5903 6.53711 13.0114C6.53711 13.4325 6.90222 13.7737 7.35238 13.7737" stroke="black" stroke-width="0.131177" stroke-miterlimit="10" stroke-linecap="round" stroke-linejoin="round"/>
<path d="M7.37224 12.6765C7.21112 12.5885 6.92675 12.6314 6.88647 13.0051" stroke="black" stroke-width="0.131177" stroke-miterlimit="10" stroke-linecap="round" stroke-linejoin="round"/>
<path d="M7.32214 13.3858C6.94474 13.2956 6.93882 12.5526 7.32214 12.6548" stroke="black" stroke-width="0.131177" stroke-miterlimit="10" stroke-linecap="round" stroke-linejoin="round"/>
<path d="M16.8397 5.66937C14.8473 5.76644 14.7686 5.84514 14.6716 7.83751C14.5745 5.84514 14.4958 5.76644 12.5034 5.66937C14.4958 5.57229 14.5745 5.49359 14.6716 3.50122C14.7689 5.49359 14.8476 5.57229 16.8397 5.66937Z" fill="#FEFFF4"/>
<path d="M16.8397 5.66937C14.8473 5.76644 14.7686 5.84514 14.6716 7.83751C14.5745 5.84514 14.4958 5.76644 12.5034 5.66937C14.4958 5.57229 14.5745 5.49359 14.6716 3.50122C14.7689 5.49359 14.8476 5.57229 16.8397 5.66937Z" stroke="black" stroke-width="0.131177" stroke-miterlimit="10"/>
<mask id="mask0_6158_54620" style="mask-type:luminance" maskUnits="userSpaceOnUse" x="1" y="1" width="22" height="22">
<path d="M12.0002 22.1562C17.6093 22.1562 22.1564 17.6091 22.1564 12C22.1564 6.39089 17.6093 1.84381 12.0002 1.84381C6.39108 1.84381 1.84399 6.39089 1.84399 12C1.84399 17.6091 6.39108 22.1562 12.0002 22.1562Z" fill="white"/>
</mask>
<g mask="url(#mask0_6158_54620)">
<path d="M17.3171 14.9247C24.3451 14.9247 30.0424 9.22736 30.0424 2.19936C30.0424 -4.82863 24.3451 -10.5259 17.3171 -10.5259C10.2891 -10.5259 4.5918 -4.82863 4.5918 2.19936C4.5918 9.22736 10.2891 14.9247 17.3171 14.9247Z" fill="url(#paint0_linear_6158_54620)"/>
</g>
</g>
<defs>
<linearGradient id="paint0_linear_6158_54620" x1="9.06114" y1="11.8825" x2="25.5735" y2="-7.48543" gradientUnits="userSpaceOnUse">
<stop stop-color="#9B99FF" stop-opacity="0.5"/>
<stop offset="0.5163" stop-color="#364DB2" stop-opacity="0.3"/>
</linearGradient>
<clipPath id="clip0_6158_54620">
<rect width="24" height="24" fill="white"/>
</clipPath>
</defs>
</svg>
