<svg xmlns="http://www.w3.org/2000/svg" width="24" height="24" viewBox="0 0 24 24" fill="none">
    <path d="M12 24C18.6274 24 24 18.6274 24 12C24 5.37258 18.6274 0 12 0C5.37258 0 0 5.37258 0 12C0 18.6274 5.37258 24 12 24Z" fill="white"/>
    <path d="M15.8466 4.67859L15.5341 6.23859H13.2841L12.9716 4.67859H11.0893L10.7771 6.23859H8.79828L8.48604 4.67859H6.2478L6.65268 8.79675H17.3236L17.7318 4.66803L15.8466 4.67859Z" fill="#231F20"/>
    <path d="M6.77441 9.59137L6.82913 10.3855L7.03769 12.648L7.04657 12.7507L7.42481 16.8547L11.9819 20.8502L11.9901 20.8046L11.998 20.8502L16.5549 16.8523L17.1508 10.3855L17.2029 9.63097L17.2168 9.59137H6.77441ZM8.18897 11.2152H10.9891V18.2426L8.60945 16.0754L8.18897 11.2152ZM13.0751 18.1658V11.2152H15.7919L15.3705 16.0754L13.0751 18.1658Z" fill="#231F20"/>
</svg>