<svg xmlns="http://www.w3.org/2000/svg" width="24" height="24" viewBox="0 0 24 24" fill="none">
    <rect width="24" height="24" rx="4" fill="#50AF95"/>
    <path fill-rule="evenodd" clip-rule="evenodd" d="M13.5185 13.3604C13.4337 13.3668 12.9953 13.393 12.0174 13.393C11.2396 13.393 10.6873 13.3696 10.4936 13.3604C7.48774 13.2282 5.24414 12.705 5.24414 12.0785C5.24414 11.452 7.48774 10.9295 10.4936 10.7951V12.8393C10.6902 12.8535 11.253 12.8867 12.0308 12.8867C12.9642 12.8867 13.4315 12.8478 13.5157 12.84V10.7965C16.5152 10.9302 18.7538 11.4534 18.7538 12.0785C18.7538 12.7036 16.5159 13.2268 13.5157 13.3597L13.5185 13.3604ZM13.5184 10.5851V8.75587H17.7044V5.9664H6.30751V8.75587H10.4928V10.5844C7.09097 10.7407 4.53271 11.4145 4.53271 12.222C4.53271 13.0295 7.09097 13.7027 10.4928 13.8597V19.7214H13.5177V13.8575C16.9117 13.7013 19.4658 13.0281 19.4658 12.2213C19.4658 11.4145 16.9139 10.7414 13.5177 10.5844L13.5184 10.5851Z" fill="white"/>
</svg>