<svg width="83" height="32" viewBox="0 0 83 32" fill="none" xmlns="http://www.w3.org/2000/svg">
<g clip-path="url(#clip0_7137_223825)">
<g clip-path="url(#clip1_7137_223825)">
<path fill-rule="evenodd" clip-rule="evenodd" d="M21.8085 15.9043C21.8085 21.9265 16.918 26.8085 10.8852 26.8085C5.16172 26.8085 0.466323 22.4142 0 16.8209H14.4381V14.9877H0C0.466323 9.39433 5.16172 5 10.8852 5C16.918 5 21.8085 9.882 21.8085 15.9043ZM62.3052 24.8329C66.0902 24.8329 68.5726 22.793 68.5726 19.7208C68.5726 16.8698 66.7046 15.518 63.8783 15.051L61.3713 14.6332C59.4543 14.3137 58.1761 13.478 58.1761 11.6347C58.1761 9.76677 59.6018 8.34124 62.3052 8.34124C64.9351 8.34124 66.2868 9.66844 66.4343 11.5609H68.3269C68.1794 9.05401 66.2622 6.81741 62.3298 6.81741C58.4465 6.81741 56.3083 9.00483 56.3083 11.7084C56.3083 14.584 58.2499 15.9112 60.9043 16.3536L63.4359 16.7469C65.5495 17.1155 66.7292 17.9758 66.7292 19.7945C66.7292 21.9328 64.9842 23.3092 62.3298 23.3092C59.5772 23.3092 57.8566 21.982 57.7092 19.7208H55.8414C55.9888 22.6701 58.2499 24.8329 62.3052 24.8329ZM34.4021 24.4889H27.5202V7.18609H34.1563C37.0811 7.18609 39.121 8.90653 39.121 11.6593C39.121 13.6501 37.9904 14.9773 36.1718 15.4197V15.4934C38.3345 15.9112 39.6616 17.3859 39.6616 19.6962C39.6616 22.6701 37.4743 24.4889 34.4021 24.4889ZM33.9105 14.7806C35.9997 14.7806 37.2777 13.6501 37.2777 11.8804V11.6347C37.2777 9.86507 35.9997 8.75907 33.9105 8.75907H29.3637V14.7806H33.9105ZM34.1317 22.9159C36.4175 22.9159 37.8184 21.6624 37.8184 19.7454V19.4996C37.8184 17.5088 36.393 16.3045 34.1071 16.3045H29.3637V22.9159H34.1317ZM54.5473 24.4889H52.581L51.1064 19.7945H44.2246L42.75 24.4889H40.882L46.5595 7.18609H48.796L54.5473 24.4889ZM47.7638 9.07858H47.6163L44.7161 18.2461H50.6394L47.7638 9.07858ZM71.3412 24.4889V7.18609H82.4505V8.78364H73.1847V14.7315H81.7132V16.3045H73.1847V22.8913H82.4505V24.4889H71.3412Z" fill="white"/>
</g>
</g>
<defs>
<clipPath id="clip0_7137_223825">
<rect width="83" height="32" fill="white"/>
</clipPath>
<clipPath id="clip1_7137_223825">
<rect width="83" height="22" fill="white" transform="translate(0 5)"/>
</clipPath>
</defs>
</svg>
