<svg width="122" height="20" viewBox="0 0 122 20" fill="none" xmlns="http://www.w3.org/2000/svg">
<g clip-path="url(#clip0_4675_188392)">
<path d="M64.752 8.28516H121.961V11.8305H65.0956L64.752 8.28516Z" fill="url(#paint0_linear_4675_188392)"/>
<path d="M59.6816 4.73438H121.957V8.27975H64.7297L59.6816 4.73438Z" fill="url(#paint1_linear_4675_188392)"/>
<path d="M65.0957 15.375H121.961V18.9204H65.0957V15.375Z" fill="url(#paint2_linear_4675_188392)"/>
<path d="M65.0957 11.8281H121.961V15.3735H65.0957V11.8281Z" fill="url(#paint3_linear_4675_188392)"/>
<path d="M0.0410156 18.9227H3.00276V17.2672C3.80456 18.1809 4.94454 19.3672 7.54084 19.3672C12.4689 19.3672 14.2389 14.7473 14.2389 12.0037C14.2389 8.37108 11.5689 4.73844 7.46721 4.73844C5.96179 4.73844 4.38546 5.3057 3.2673 6.44295V0.636719H0.0410156V18.9227ZM3.0764 11.881C3.0764 9.87923 4.60636 7.75473 7.08267 7.75473C9.12262 7.75473 11.0153 9.36106 11.0153 12.0283C11.0153 14.6955 9.24262 16.3536 7.13176 16.3536C5.23908 16.3536 3.07913 14.9191 3.07913 11.881H3.0764Z" fill="white"/>
<path d="M28.5569 13.5323C28.6551 13.0878 28.7506 12.5206 28.7506 11.8769C28.7506 8.41883 26.2006 4.73438 21.7853 4.73438C17.3699 4.73438 14.6973 8.21975 14.6973 12.0978C14.6973 15.9759 17.7081 19.3631 21.8098 19.3631C24.9897 19.3631 27.537 17.0641 28.3142 14.5932H24.9161C24.3079 15.7305 23.2416 16.3468 21.8098 16.3468C19.5026 16.3468 18.2426 14.4187 18.0954 13.5296H28.5569V13.5323ZM17.9972 10.8897C18.6026 8.3452 20.498 7.75067 21.8071 7.75067C23.5307 7.75067 25.0852 8.68883 25.4479 10.8897H17.9972Z" fill="white"/>
<path d="M43.3911 5.20345H40.4294V6.93251H40.3803C40.2821 6.73615 38.6567 4.73438 35.9131 4.73438C32.1741 4.73438 29.166 7.77249 29.166 11.9751C29.166 16.5459 32.2478 19.3631 35.7195 19.3631C37.4185 19.3631 39.4094 18.4495 40.4294 17.2141V18.9186H43.3911V5.20345ZM40.3339 12.0242C40.3339 14.5687 38.6349 16.3496 36.4013 16.3496C34.1677 16.3496 32.395 14.446 32.395 12.1251C32.395 10.0742 33.7532 7.75067 36.4013 7.75067C38.3185 7.75067 40.3339 9.18518 40.3339 12.0242Z" fill="white"/>
<path d="M44.8691 18.9198H48.0982V12.0745C48.0982 10.6154 48.0982 7.74912 50.6699 7.74912C52.6608 7.74912 53.3644 9.42908 53.3644 11.3081V18.9198H56.5934V12.0745C56.5934 11.2099 56.5689 9.8518 57.0788 9.03636C57.5397 8.24547 58.4152 7.75185 59.3124 7.75185C61.8624 7.75185 61.8624 10.52 61.8624 11.3109V18.9225H65.0914V10.9154C65.0914 8.88909 64.6059 7.58003 64.0714 6.86278C63.586 6.17007 62.2742 4.73828 59.6288 4.73828C58.6825 4.73828 56.6916 4.83646 55.2844 6.88732C54.0217 4.9101 52.129 4.73828 51.4008 4.73828C49.0718 4.73828 48.1472 5.92462 47.88 6.36915H47.8309V5.20736H44.8691V18.9225V18.9198Z" fill="white"/>
</g>
<defs>
<linearGradient id="paint0_linear_4675_188392" x1="93.3576" y1="10.1451" x2="93.3576" y2="14.0996" gradientUnits="userSpaceOnUse">
<stop stop-color="#FF6B6B"/>
<stop offset="0.33" stop-color="#FE1414"/>
<stop offset="0.6" stop-color="#8E0900"/>
</linearGradient>
<linearGradient id="paint1_linear_4675_188392" x1="90.8209" y1="6.59433" x2="90.8209" y2="10.5488" gradientUnits="userSpaceOnUse">
<stop stop-color="#BBDBFF"/>
<stop offset="0.33" stop-color="#139EDD"/>
<stop offset="0.6" stop-color="#B9F7EA"/>
</linearGradient>
<linearGradient id="paint2_linear_4675_188392" x1="93.5296" y1="17.235" x2="93.5296" y2="21.1894" gradientUnits="userSpaceOnUse">
<stop stop-color="#BBFFCA"/>
<stop offset="0.33" stop-color="#48DD13"/>
<stop offset="0.6" stop-color="#008805"/>
</linearGradient>
<linearGradient id="paint3_linear_4675_188392" x1="93.5296" y1="13.6881" x2="93.5296" y2="17.6425" gradientUnits="userSpaceOnUse">
<stop stop-color="#F1E869"/>
<stop offset="0.33" stop-color="#FEA514"/>
<stop offset="0.6" stop-color="#FF4539"/>
</linearGradient>
<clipPath id="clip0_4675_188392">
<rect width="122" height="20" fill="white"/>
</clipPath>
</defs>
</svg>
