<svg width="150" height="32" viewBox="0 0 150 32" fill="none" xmlns="http://www.w3.org/2000/svg">
<path d="M18.208 10.7307H19.0413L21.4164 8.35567L21.533 7.34731C20.1724 6.14642 18.5282 5.3122 16.7556 4.92346C14.9829 4.53472 13.1405 4.60429 11.4022 5.1256C9.66394 5.64691 8.08727 6.60276 6.82113 7.90283C5.55499 9.20291 4.64118 10.8043 4.16602 12.5557C4.43061 12.4473 4.72371 12.4297 4.99937 12.5057L9.74946 11.7224C9.74946 11.7224 9.99113 11.3224 10.1161 11.3474C11.1339 10.2296 12.5405 9.54311 14.0479 9.42846C15.5553 9.31382 17.0495 9.77969 18.2246 10.7307H18.208Z" fill="#EA4335"/>
<path d="M24.8001 12.5558C24.2542 10.5455 23.1334 8.73819 21.5751 7.35571L18.2417 10.6891C18.9364 11.2568 19.4931 11.9748 19.8699 12.7889C20.2467 13.6031 20.4337 14.4922 20.4167 15.3892V15.9809C20.8063 15.9809 21.1921 16.0576 21.552 16.2067C21.912 16.3558 22.239 16.5743 22.5145 16.8498C22.79 17.1253 23.0085 17.4523 23.1576 17.8123C23.3067 18.1722 23.3835 18.558 23.3835 18.9476C23.3835 19.3372 23.3067 19.723 23.1576 20.0829C23.0085 20.4429 22.79 20.7699 22.5145 21.0454C22.239 21.3209 21.912 21.5394 21.552 21.6885C21.1921 21.8376 20.8063 21.9143 20.4167 21.9143H14.4833L13.8916 22.5143V26.0727L14.4833 26.6644H20.4167C22.0736 26.6773 23.6907 26.1566 25.0287 25.1792C26.3667 24.2018 27.3545 22.8198 27.8461 21.2374C28.3378 19.6551 28.307 17.9565 27.7584 16.393C27.2099 14.8295 26.1726 13.4841 24.8001 12.5558Z" fill="#4285F4"/>
<path d="M8.54124 26.6311H14.4747V21.8811H8.54124C8.11851 21.881 7.70073 21.79 7.31621 21.6144L6.48286 21.8727L4.09115 24.2478L3.88281 25.0811C5.22403 26.0939 6.8606 26.6384 8.54124 26.6311Z" fill="#34A853"/>
<path d="M8.54084 11.2225C6.93316 11.2321 5.36862 11.7436 4.06575 12.6855C2.76287 13.6274 1.78672 14.9528 1.27364 16.4764C0.760562 18.0001 0.736171 19.6459 1.20388 21.1841C1.67158 22.7222 2.60802 24.0759 3.88241 25.0561L7.32415 21.6143C6.88678 21.4167 6.50387 21.116 6.20829 20.7378C5.91271 20.3597 5.71328 19.9155 5.62711 19.4434C5.54094 18.9713 5.5706 18.4853 5.71355 18.0271C5.8565 17.5689 6.10847 17.1523 6.44783 16.8129C6.7872 16.4736 7.20384 16.2216 7.662 16.0787C8.12015 15.9357 8.60615 15.906 9.07829 15.9922C9.55043 16.0784 9.99462 16.2778 10.3727 16.5734C10.7509 16.869 11.0516 17.2519 11.2492 17.6893L14.691 14.2475C13.9686 13.3031 13.0375 12.5387 11.9706 12.0139C10.9037 11.4891 9.72983 11.2182 8.54084 11.2225Z" fill="#FBBC05"/>
<path d="M43.9917 23.3145C42.9701 23.3275 41.9564 23.1342 41.0113 22.7462C40.0663 22.3581 39.2092 21.7833 38.4916 21.0561C37.7513 20.3598 37.1639 19.5173 36.7665 18.5819C36.3691 17.6466 36.1705 16.6389 36.1832 15.6227C36.171 14.6066 36.3699 13.599 36.7672 12.6637C37.1646 11.7285 37.7517 10.8859 38.4916 10.1892C39.2057 9.45457 40.0612 8.87204 41.0064 8.47675C41.9517 8.08147 42.9671 7.88161 43.9917 7.8892C44.9679 7.87619 45.937 8.05736 46.8426 8.42217C47.7481 8.78698 48.5722 9.32816 49.2668 10.0142L47.7834 11.5226C46.7676 10.5409 45.4042 10.0015 43.9917 10.0226C43.2589 10.0136 42.5323 10.1571 41.858 10.444C41.1837 10.731 40.5765 11.155 40.0749 11.6893C39.5536 12.2064 39.1424 12.8237 38.866 13.504C38.5896 14.1843 38.4537 14.9135 38.4666 15.6477C38.4605 16.3735 38.5996 17.0932 38.8758 17.7644C39.152 18.4356 39.5597 19.0448 40.0749 19.5561C41.1069 20.5845 42.4995 21.1696 43.9564 21.1867C45.4132 21.2038 46.8192 20.6517 47.8751 19.6478C48.5288 18.9319 48.9298 18.0215 49.0168 17.056H44.0167V14.9227H51.0918C51.1613 15.3523 51.1892 15.7877 51.1752 16.2227C51.2192 17.1231 51.0801 18.023 50.7664 18.8681C50.4527 19.7132 49.9709 20.4859 49.3501 21.1395C48.6599 21.8581 47.8259 22.4232 46.9027 22.798C45.9794 23.1728 44.9875 23.3488 43.9917 23.3145ZM60.442 21.8978C59.4925 22.808 58.2281 23.3161 56.9128 23.3161C55.5975 23.3161 54.333 22.808 53.3835 21.8978C52.9109 21.4396 52.5387 20.8881 52.2905 20.2784C52.0424 19.6687 51.9236 19.0141 51.9418 18.3561C51.9241 17.6981 52.0431 17.0436 52.2913 16.434C52.5394 15.8244 52.9113 15.2729 53.3835 14.8143C54.334 13.9061 55.5981 13.3992 56.9128 13.3992C58.2274 13.3992 59.4915 13.9061 60.442 14.8143C60.9142 15.2729 61.2861 15.8244 61.5343 16.434C61.7824 17.0436 61.9014 17.6981 61.8837 18.3561C61.9008 19.0147 61.7808 19.6697 61.5311 20.2794C61.2815 20.8892 60.9078 21.4403 60.4337 21.8978H60.442ZM54.9419 20.5061C55.1945 20.7758 55.4997 20.9908 55.8387 21.1378C56.1777 21.2848 56.5433 21.3606 56.9128 21.3606C57.2823 21.3606 57.6478 21.2848 57.9868 21.1378C58.3258 20.9908 58.6311 20.7758 58.8836 20.5061C59.159 20.2215 59.3746 19.8846 59.5177 19.5154C59.6609 19.1461 59.7286 18.7519 59.717 18.3561C59.7293 17.9589 59.6619 17.5633 59.5187 17.1926C59.3756 16.8219 59.1597 16.4836 58.8836 16.1977C58.6277 15.9307 58.3205 15.7183 57.9803 15.5732C57.6402 15.4281 57.2742 15.3533 56.9044 15.3533C56.5346 15.3533 56.1687 15.4281 55.8285 15.5732C55.4884 15.7183 55.1811 15.9307 54.9252 16.1977C54.6492 16.4836 54.4333 16.8219 54.2901 17.1926C54.147 17.5633 54.0796 17.9589 54.0919 18.3561C54.0813 18.7525 54.1504 19.147 54.295 19.5163C54.4395 19.8856 54.6567 20.2222 54.9336 20.5061H54.9419ZM71.2922 21.8978C70.3427 22.808 69.0783 23.3161 67.763 23.3161C66.4477 23.3161 65.1833 22.808 64.2337 21.8978C63.7611 21.4396 63.3889 20.8881 63.1408 20.2784C62.8926 19.6687 62.7738 19.0141 62.792 18.3561C62.7743 17.6981 62.8933 17.0436 63.1415 16.434C63.3896 15.8244 63.7615 15.2729 64.2337 14.8143C65.1833 13.9042 66.4477 13.396 67.763 13.396C69.0783 13.396 70.3427 13.9042 71.2922 14.8143C71.7644 15.2729 72.1363 15.8244 72.3845 16.434C72.6326 17.0436 72.7516 17.6981 72.7339 18.3561C72.7521 19.0141 72.6334 19.6687 72.3852 20.2784C72.137 20.8881 71.7648 21.4396 71.2922 21.8978ZM65.7921 20.5061C66.0447 20.7758 66.3499 20.9908 66.6889 21.1378C67.0279 21.2848 67.3935 21.3606 67.763 21.3606C68.1325 21.3606 68.498 21.2848 68.8371 21.1378C69.1761 20.9908 69.4813 20.7758 69.7338 20.5061C70.0092 20.2215 70.2248 19.8846 70.368 19.5154C70.5111 19.1461 70.5788 18.7519 70.5672 18.3561C70.5795 17.9589 70.5121 17.5633 70.3689 17.1926C70.2258 16.8219 70.0099 16.4836 69.7338 16.1977C69.4779 15.9307 69.1707 15.7183 68.8305 15.5732C68.4904 15.4281 68.1244 15.3533 67.7546 15.3533C67.3848 15.3533 67.0189 15.4281 66.6787 15.5732C66.3386 15.7183 66.0313 15.9307 65.7754 16.1977C65.4994 16.4836 65.2835 16.8219 65.1403 17.1926C64.9972 17.5633 64.9298 17.9589 64.9421 18.3561C64.9316 18.7525 65.0006 19.147 65.1452 19.5163C65.2897 19.8856 65.5069 20.2222 65.7838 20.5061H65.7921ZM78.4257 27.7646C77.4268 27.7964 76.4473 27.4846 75.6506 26.8812C74.9433 26.3495 74.3862 25.643 74.0339 24.8312L75.934 24.0395C76.1407 24.5247 76.4642 24.9512 76.8757 25.2812C77.316 25.6362 77.8686 25.8224 78.434 25.8062C78.7925 25.828 79.1516 25.7723 79.4866 25.6429C79.8217 25.5135 80.1249 25.3134 80.3757 25.0562C80.8778 24.4506 81.1257 23.674 81.0674 22.8895V22.1728H80.9924C80.6748 22.55 80.2738 22.848 79.821 23.0433C79.3683 23.2386 78.8763 23.3257 78.384 23.2978C77.7583 23.2997 77.1391 23.1718 76.5653 22.9223C75.9916 22.6727 75.4758 22.3068 75.0506 21.8478C74.5893 21.3924 74.2251 20.8482 73.9801 20.248C73.7352 19.6479 73.6146 19.0042 73.6256 18.3561C73.6141 17.7041 73.7344 17.0566 73.9792 16.4523C74.2241 15.848 74.5885 15.2994 75.0506 14.8393C75.4747 14.3784 75.9901 14.0107 76.564 13.7597C77.1378 13.5086 77.7576 13.3796 78.384 13.381C78.9141 13.38 79.4378 13.4967 79.9174 13.7227C80.3322 13.9038 80.7021 14.1741 81.0007 14.5143H81.0757V13.7227H83.1424V22.5978C83.1968 23.2999 83.1074 24.0057 82.8796 24.672C82.6517 25.3383 82.2903 25.9511 81.8174 26.4729C81.367 26.9038 80.8348 27.2401 80.2523 27.462C79.6697 27.6838 79.0486 27.7867 78.4257 27.7646ZM78.5757 21.3645C78.9315 21.3723 79.2847 21.3017 79.6102 21.1577C79.9357 21.0136 80.2255 20.7997 80.4591 20.5311C80.9732 19.9419 81.2443 19.1793 81.2174 18.3977C81.2483 17.603 80.9774 16.826 80.4591 16.2227C80.2259 15.9536 79.9362 15.7394 79.6106 15.5954C79.285 15.4513 78.9316 15.381 78.5757 15.3893C78.2101 15.3818 77.8471 15.4523 77.5109 15.596C77.1747 15.7397 76.8729 15.9533 76.6256 16.2227C76.0744 16.8043 75.7749 17.5799 75.7923 18.3811C75.7838 18.774 75.8531 19.1648 75.9961 19.5309C76.1391 19.897 76.3531 20.2313 76.6256 20.5145C76.8717 20.7864 77.1729 21.0029 77.5091 21.1495C77.8453 21.2961 78.2089 21.3693 78.5757 21.3645ZM86.8175 8.44755V23.0145H84.6425V8.44755H86.8175ZM92.7843 23.3145C92.1329 23.3313 91.4851 23.2133 90.8814 22.9681C90.2777 22.7229 89.7311 22.3557 89.2759 21.8895C88.814 21.4267 88.4509 20.8748 88.2088 20.2674C87.9667 19.66 87.8506 19.0097 87.8675 18.3561C87.8429 17.7008 87.9505 17.0473 88.1838 16.4345C88.4172 15.8217 88.7716 15.2622 89.2259 14.7893C89.654 14.338 90.1716 13.9811 90.7456 13.7415C91.3196 13.5018 91.9374 13.3847 92.5593 13.3976C93.1312 13.3916 93.6983 13.5022 94.226 13.7227C94.7013 13.9145 95.1345 14.1976 95.501 14.556C95.8157 14.8598 96.0953 15.1981 96.3344 15.5644C96.5278 15.8736 96.6923 16.2 96.826 16.5394L97.051 17.1061L90.3842 19.8478C90.5859 20.311 90.9231 20.7023 91.3516 20.9701C91.78 21.2379 92.2795 21.3696 92.7843 21.3478C93.2754 21.3491 93.7585 21.2232 94.1864 20.9822C94.6144 20.7412 94.9725 20.3934 95.226 19.9728L96.8927 21.0978C96.4674 21.7063 95.9231 22.2223 95.2927 22.6145C94.543 23.0881 93.6709 23.3315 92.7843 23.3145ZM90.0009 18.2061L94.4343 16.3644C94.2977 16.0396 94.0535 15.7718 93.7426 15.606C93.3946 15.4095 93.0006 15.3088 92.601 15.3143C91.9228 15.3319 91.2789 15.6164 90.8093 16.106C90.5282 16.375 90.31 16.7027 90.1703 17.0657C90.0306 17.4287 89.9727 17.8181 90.0009 18.2061Z" fill="white"/>
<path d="M108.443 23.3143C107.518 23.3303 106.6 23.1592 105.742 22.8112C104.885 22.4633 104.107 21.9457 103.455 21.2896C102.803 20.6335 102.29 19.8523 101.947 18.9931C101.604 18.1338 101.438 17.2141 101.46 16.2892C101.438 15.3643 101.604 14.4446 101.947 13.5853C102.29 12.726 102.803 11.9448 103.455 11.2887C104.107 10.6326 104.885 10.115 105.742 9.7671C106.6 9.41917 107.518 9.24806 108.443 9.26402C109.38 9.23475 110.31 9.41742 111.166 9.79838C112.022 10.1793 112.78 10.7488 113.385 11.4641L112.185 12.6308C111.741 12.0723 111.172 11.6266 110.523 11.3297C109.874 11.0329 109.164 10.8933 108.452 10.9224C107.765 10.9069 107.083 11.0304 106.446 11.2853C105.809 11.5402 105.229 11.9213 104.743 12.4058C104.238 12.9141 103.843 13.5215 103.583 14.1898C103.324 14.8581 103.205 15.5728 103.235 16.2892C103.205 17.0055 103.324 17.7202 103.583 18.3885C103.843 19.0568 104.238 19.6642 104.743 20.1726C105.229 20.657 105.809 21.0381 106.446 21.293C107.083 21.548 107.765 21.6714 108.452 21.6559C109.248 21.6649 110.036 21.4942 110.758 21.1566C111.479 20.819 112.115 20.3231 112.618 19.7059L113.818 20.9059C113.19 21.6573 112.401 22.2581 111.51 22.6643C110.549 23.1078 109.501 23.33 108.443 23.3143Z" fill="white"/>
<path d="M117.043 23.0143H115.318V9.55566H117.043V23.0143Z" fill="white"/>
<path d="M119.86 14.9142C120.764 14.0165 121.986 13.5127 123.26 13.5127C124.534 13.5127 125.756 14.0165 126.66 14.9142C127.102 15.3809 127.448 15.9304 127.676 16.5311C127.905 17.1317 128.013 17.7718 127.994 18.4142C128.013 19.0567 127.905 19.6968 127.676 20.2974C127.448 20.8981 127.102 21.4476 126.66 21.9143C125.756 22.812 124.534 23.3158 123.26 23.3158C121.986 23.3158 120.764 22.812 119.86 21.9143C119.418 21.4476 119.073 20.8981 118.844 20.2974C118.615 19.6968 118.507 19.0567 118.527 18.4142C118.507 17.7718 118.615 17.1317 118.844 16.5311C119.073 15.9304 119.418 15.3809 119.86 14.9142ZM121.143 20.831C121.415 21.1182 121.743 21.347 122.106 21.5034C122.469 21.6597 122.86 21.7404 123.256 21.7404C123.651 21.7404 124.043 21.6597 124.406 21.5034C124.769 21.347 125.097 21.1182 125.368 20.831C125.67 20.5074 125.904 20.1271 126.057 19.7122C126.21 19.2973 126.279 18.8561 126.26 18.4142C126.279 17.9724 126.21 17.5312 126.057 17.1163C125.904 16.7014 125.67 16.3211 125.368 15.9975C125.097 15.7103 124.769 15.4815 124.406 15.3251C124.043 15.1688 123.651 15.0881 123.256 15.0881C122.86 15.0881 122.469 15.1688 122.106 15.3251C121.743 15.4815 121.415 15.7103 121.143 15.9975C120.842 16.3211 120.608 16.7014 120.455 17.1163C120.302 17.5312 120.233 17.9724 120.252 18.4142C120.235 18.8553 120.306 19.2953 120.46 19.7087C120.615 20.1221 120.85 20.5008 121.152 20.8226L121.143 20.831Z" fill="white"/>
<path d="M137.553 23.0143H135.886V21.7392H135.836C135.54 22.2235 135.12 22.6204 134.62 22.8893C134.101 23.1901 133.511 23.3482 132.911 23.3476C132.424 23.3809 131.936 23.3038 131.483 23.122C131.03 22.9402 130.624 22.6584 130.295 22.2976C129.663 21.4991 129.346 20.4972 129.403 19.4809V13.8141H131.128V19.1642C131.128 20.8809 131.886 21.7392 133.403 21.7392C133.74 21.7498 134.075 21.6796 134.379 21.5347C134.683 21.3897 134.949 21.1741 135.153 20.9059C135.6 20.3392 135.839 19.6359 135.828 18.9142V13.8141H137.553V23.0143Z" fill="white"/>
<path d="M143.412 23.3143C142.827 23.3162 142.248 23.1913 141.716 22.9482C141.184 22.7051 140.71 22.3495 140.329 21.9059C139.465 20.9517 139.002 19.701 139.037 18.4142C139.002 17.1274 139.465 15.8767 140.329 14.9224C140.71 14.4789 141.184 14.1233 141.716 13.8802C142.248 13.637 142.827 13.5121 143.412 13.5141C144.068 13.5037 144.715 13.6585 145.295 13.9641C145.805 14.2206 146.237 14.6091 146.545 15.0891H146.62L146.545 13.8141V9.55566H148.271V23.0143H146.604V21.7392H146.529C146.22 22.2192 145.789 22.6077 145.279 22.8643C144.704 23.1672 144.062 23.3218 143.412 23.3143ZM143.695 21.7392C144.085 21.7449 144.472 21.6676 144.83 21.5124C145.188 21.3573 145.508 21.1278 145.77 20.8392C146.356 20.172 146.656 19.3007 146.604 18.4142C146.656 17.5277 146.356 16.6564 145.77 15.9891C145.506 15.699 145.185 15.4672 144.826 15.3086C144.467 15.15 144.079 15.068 143.687 15.068C143.295 15.068 142.907 15.15 142.548 15.3086C142.189 15.4672 141.868 15.699 141.604 15.9891C141.313 16.3173 141.089 16.6997 140.946 17.1144C140.803 17.5291 140.743 17.968 140.77 18.4058C140.743 18.8437 140.803 19.2825 140.946 19.6973C141.089 20.112 141.313 20.4944 141.604 20.8226C141.866 21.1163 142.189 21.3501 142.55 21.5083C142.911 21.6664 143.301 21.7452 143.695 21.7392Z" fill="white"/>
</svg>
