<svg width="120" height="32" viewBox="0 0 120 32" fill="none" xmlns="http://www.w3.org/2000/svg">
<g clip-path="url(#clip0_4675_188482)">
<path fill-rule="evenodd" clip-rule="evenodd" d="M21.9893 25.131C27.142 25.131 31.3288 20.9957 31.412 15.8629L31.4133 15.707C31.4133 24.3816 24.3812 31.4136 15.7067 31.4136C7.03209 31.4136 0 24.3816 0 15.707H12.5653C12.5653 20.9118 16.7846 25.131 21.9893 25.131Z" fill="url(#paint0_linear_4675_188482)"/>
<path fill-rule="evenodd" clip-rule="evenodd" d="M9.42397 25.131C4.27133 25.131 0.0844843 20.9957 0.00126303 15.8629L0 15.707C0 24.3816 7.03211 31.4137 15.7066 31.4137C24.3812 31.4137 31.4133 24.3816 31.4133 15.707H18.848C18.848 20.9118 14.6287 25.131 9.42397 25.131Z" fill="url(#paint1_linear_4675_188482)"/>
<path fill-rule="evenodd" clip-rule="evenodd" d="M9.42397 6.28265C4.27133 6.28265 0.0844843 10.418 0.00126303 15.5508L0 15.7066C0 7.03212 7.03211 0 15.7066 0C24.3812 0 31.4133 7.03212 31.4133 15.7066H18.848C18.848 10.5019 14.6287 6.28265 9.42397 6.28265Z" fill="url(#paint2_linear_4675_188482)"/>
<path fill-rule="evenodd" clip-rule="evenodd" d="M21.9893 6.28265C27.142 6.28265 31.3288 10.418 31.412 15.5508L31.4133 15.7066C31.4133 7.03211 24.3812 0 15.7067 0C7.03209 0 0 7.03211 0 15.7066H12.5653C12.5653 10.5019 16.7846 6.28265 21.9893 6.28265Z" fill="url(#paint3_linear_4675_188482)"/>
<path d="M12.4074 15.5488H0.15625V15.863H12.4074V15.5488Z" fill="#EF9146"/>
<path d="M31.259 15.5488H19.0078V15.863H31.259V15.5488Z" fill="#E57622"/>
<path d="M39.2846 22.1277V11.2705C39.2846 11.2349 39.2937 11.2052 39.3117 11.1814C39.3292 11.1517 39.3503 11.1369 39.3738 11.1369C39.4335 11.1369 39.4722 11.1666 39.4898 11.226L42.2008 20.8986C42.3079 21.2727 42.507 21.5695 42.7982 21.7893C43.0895 22.009 43.4315 22.1188 43.8239 22.1188H43.8952C44.2816 22.1188 44.6234 22.009 44.9206 21.7893C45.218 21.5636 45.4172 21.2638 45.518 20.8897L48.1844 11.226C48.2023 11.1666 48.2438 11.1369 48.3095 11.1369C48.333 11.1369 48.3537 11.1517 48.3717 11.1814C48.3896 11.2052 48.3984 11.2349 48.3984 11.2705V22.1277H50.0482V11.0924C50.0482 10.748 49.9857 10.4392 49.861 10.1661C49.7363 9.88698 49.5607 9.67026 49.3348 9.51589C49.1149 9.35556 48.868 9.27539 48.5947 9.27539H48.3984C48.012 9.27539 47.6733 9.38524 47.3818 9.60495C47.0966 9.81872 46.9002 10.1097 46.7934 10.4778L43.9574 20.195C43.9398 20.2544 43.9012 20.284 43.8415 20.284C43.7762 20.284 43.7347 20.2544 43.7168 20.195L40.9791 10.5045C40.872 10.1245 40.67 9.82466 40.3728 9.60495C40.0813 9.38524 39.7426 9.27539 39.3563 9.27539C39.0352 9.27539 38.7468 9.35261 38.4911 9.50697C38.2354 9.66137 38.0334 9.87511 37.8848 10.1482C37.7363 10.4155 37.6618 10.7212 37.6618 11.0657L37.5547 22.1277H39.2846Z" fill="#F1F1F5"/>
<path d="M58.3803 16.6792C58.3803 16.0735 58.1721 15.5183 57.7561 15.0136C57.3399 14.5148 56.7424 14.2654 55.9637 14.2654C55.1906 14.2654 54.5815 14.5356 54.1354 15.0759C53.6956 15.6163 53.4757 16.1507 53.4757 16.6792V16.7682H58.3803V16.6792ZM60.1904 17.5164C60.1844 17.653 60.1816 17.7569 60.1816 17.8281C60.1816 17.8934 60.1816 17.9944 60.1816 18.131H53.4757V18.2289C53.4757 18.9177 53.7016 19.5115 54.1533 20.0102C54.605 20.509 55.2025 20.7584 55.9458 20.7584C57.0694 20.7584 57.845 20.3339 58.2732 19.4848H59.9944C59.7685 20.3754 59.2869 21.0701 58.5496 21.5689C57.8124 22.0677 56.9444 22.3141 55.9458 22.3082C54.6616 22.3082 53.6362 21.8688 52.8691 20.99C52.1023 20.1112 51.7188 18.9474 51.7188 17.4986C51.7188 16.0498 52.0904 14.8919 52.8336 14.025C53.5825 13.1581 54.6229 12.7246 55.9546 12.7246C57.2862 12.7246 58.3266 13.1581 59.0758 14.025C59.8188 14.9038 60.1904 16.0676 60.1904 17.5164Z" fill="#F1F1F5"/>
<path d="M61.3906 22.1283H63.0672V16.8289C63.0672 16.1817 63.2962 15.6057 63.7539 15.101C64.1996 14.5962 64.8477 14.3439 65.6977 14.3439H65.9742C66.0219 14.3498 66.114 14.3647 66.2506 14.3884V12.7585L65.8762 12.714L65.7157 12.7051C65.0557 12.7051 64.4673 12.9277 63.9499 13.3731C63.4388 13.8184 63.1177 14.1955 62.9867 14.5042H62.8353L62.9867 12.9188H61.3906V22.1283Z" fill="#F1F1F5"/>
<path d="M68.8615 22.1285H67.2117V12.9013H68.8615V22.1285ZM66.9531 10.3451C66.9531 10.0541 67.0571 9.80471 67.2654 9.59687C67.4793 9.38907 67.7319 9.28516 68.0234 9.28516C68.3146 9.28516 68.5643 9.38907 68.7723 9.59687C68.9802 9.80471 69.0845 10.0541 69.0845 10.3451C69.0845 10.636 68.9802 10.8884 68.7723 11.1021C68.5643 11.3099 68.3146 11.4138 68.0234 11.4138C67.7319 11.4138 67.4793 11.3099 67.2654 11.1021C67.0571 10.8884 66.9531 10.636 66.9531 10.3451Z" fill="#F1F1F5"/>
<path d="M73.1005 10.2559H71.4956V11.4939V12.9011H69.6406V14.2638H71.3527V19.5277C71.3527 20.3589 71.5757 21.0032 72.0218 21.4604C72.4675 21.9058 73.0738 22.1284 73.8409 22.1284C74.1381 22.1284 74.3938 22.1017 74.6077 22.0482C74.8336 22.0126 74.9762 21.9829 75.0356 21.9592V20.4362C74.9762 20.4599 74.8694 20.4807 74.7149 20.4985C74.5364 20.5104 74.4146 20.5163 74.3492 20.5163C73.8912 20.5163 73.5673 20.4154 73.377 20.2135C73.1929 20.0057 73.1005 19.688 73.1005 19.2605V14.2638H75.0356V12.9011H73.1005V10.2559Z" fill="#F1F1F5"/>
<path d="M89.4735 18.1121C89.4735 18.8424 89.0959 19.7034 88.341 20.695C87.9665 21.1522 87.4404 21.5352 86.7625 21.8439C86.0849 22.1527 85.3181 22.3071 84.4617 22.3071C82.6071 22.3071 81.2277 21.7133 80.3242 20.5258C79.4205 19.3382 78.9688 17.7469 78.9688 15.7518C78.9688 13.7448 79.4563 12.1357 80.4311 10.9244C81.4121 9.71308 82.7557 9.10742 84.4617 9.10742C85.3416 9.10742 86.1295 9.27071 86.825 9.59729C87.5264 9.92386 88.0526 10.3217 88.4035 10.7908C89.1289 11.818 89.4854 12.6552 89.4735 13.3025H87.7347C87.1639 11.5983 86.0729 10.7166 84.4617 10.6572C83.2551 10.6572 82.3275 11.1025 81.6797 11.9932C81.0377 12.8838 80.7135 14.1219 80.7075 15.7073C80.7075 17.2986 81.0317 18.5396 81.6797 19.4302C82.3335 20.3209 83.2611 20.7633 84.4617 20.7573C85.3894 20.7573 86.1175 20.4812 86.6466 19.929C87.1818 19.3709 87.5444 18.7652 87.7347 18.1121H89.4735Z" fill="#F1F1F5"/>
<path d="M92.2912 22.1285H90.6413V12.9013H92.2912V22.1285ZM90.3828 10.3451C90.3828 10.0541 90.4868 9.80471 90.6948 9.59687C90.909 9.38907 91.1616 9.28516 91.4528 9.28516C91.7443 9.28516 91.9937 9.38907 92.202 9.59687C92.4099 9.80471 92.5139 10.0541 92.5139 10.3451C92.5139 10.636 92.4099 10.8884 92.202 11.1021C91.9937 11.3099 91.7443 11.4138 91.4528 11.4138C91.1616 11.4138 90.909 11.3099 90.6948 11.1021C90.4868 10.8884 90.3828 10.636 90.3828 10.3451Z" fill="#F1F1F5"/>
<path d="M93.8438 22.1283H95.5203V16.8289C95.5203 16.1817 95.7493 15.6057 96.207 15.101C96.6527 14.5962 97.3008 14.3439 98.1512 14.3439H98.4276C98.4751 14.3498 98.5671 14.3647 98.7041 14.3884V12.7585L98.3293 12.714L98.1688 12.7051C97.5091 12.7051 96.9204 12.9277 96.4033 13.3731C95.8919 13.8184 95.5709 14.1955 95.4402 14.5042H95.2885L95.4402 12.9188H93.8438V22.1283Z" fill="#F1F1F5"/>
<path d="M105.455 16.0173C105.062 14.9128 104.263 14.328 103.056 14.2627C102.248 14.2567 101.605 14.5566 101.13 15.1622C100.654 15.7679 100.416 16.5517 100.416 17.5136C100.416 18.4755 100.654 19.2563 101.13 19.856C101.605 20.4557 102.248 20.7556 103.056 20.7556C104.263 20.6963 105.062 20.1143 105.455 19.0099H107.194C106.95 20.0312 106.471 20.8358 105.758 21.4236C105.045 22.0114 104.144 22.3054 103.056 22.3054C101.706 22.3054 100.651 21.869 99.8903 20.9961C99.1351 20.1232 98.7578 18.9594 98.7578 17.5047C98.7578 16.0499 99.1351 14.8891 99.8903 14.0222C100.651 13.1553 101.706 12.7188 103.056 12.7129C104.156 12.7129 105.062 13.0098 105.776 13.6036C106.489 14.1973 106.962 15.0019 107.194 16.0173H105.455Z" fill="#F1F1F5"/>
<path d="M110.064 22.1285H108.414V9.28516H110.064V22.1285Z" fill="#F1F1F5"/>
<path d="M118.013 16.6792C118.013 16.0735 117.805 15.5183 117.389 15.0136C116.972 14.5148 116.375 14.2654 115.596 14.2654C114.823 14.2654 114.214 14.5356 113.768 15.0759C113.328 15.6163 113.108 16.1507 113.108 16.6792V16.7682H118.013V16.6792ZM119.823 17.5164C119.817 17.653 119.814 17.7569 119.814 17.8281C119.814 17.8934 119.814 17.9944 119.814 18.131H113.108V18.2289C113.108 18.9177 113.334 19.5115 113.786 20.0102C114.238 20.509 114.835 20.7584 115.578 20.7584C116.702 20.7584 117.478 20.3339 117.906 19.4848H119.627C119.401 20.3754 118.919 21.0701 118.182 21.5689C117.445 22.0677 116.577 22.3141 115.578 22.3082C114.294 22.3082 113.269 21.8688 112.502 20.99C111.735 20.1112 111.352 18.9474 111.352 17.4986C111.352 16.0498 111.723 14.8919 112.466 14.025C113.215 13.1581 114.256 12.7246 115.587 12.7246C116.919 12.7246 117.959 13.1581 118.708 14.025C119.452 14.9038 119.823 16.0676 119.823 17.5164Z" fill="#F1F1F5"/>
</g>
<defs>
<linearGradient id="paint0_linear_4675_188482" x1="6.87166" y1="15.707" x2="7.3625" y2="31.4136" gradientUnits="userSpaceOnUse">
<stop stop-color="#EF9146"/>
<stop offset="1" stop-color="#E0592E"/>
</linearGradient>
<linearGradient id="paint1_linear_4675_188482" x1="15.7066" y1="15.707" x2="15.7066" y2="31.4137" gradientUnits="userSpaceOnUse">
<stop stop-color="#E57722"/>
<stop offset="1" stop-color="#F2B24C"/>
</linearGradient>
<linearGradient id="paint2_linear_4675_188482" x1="23.0562" y1="15.7066" x2="23.0562" y2="-0.666793" gradientUnits="userSpaceOnUse">
<stop stop-color="#E57722"/>
<stop offset="1" stop-color="#DD4A33"/>
</linearGradient>
<linearGradient id="paint3_linear_4675_188482" x1="6.38083" y1="15.7066" x2="6.38083" y2="0" gradientUnits="userSpaceOnUse">
<stop stop-color="#EF9046"/>
<stop offset="1" stop-color="#F3C44F"/>
</linearGradient>
<clipPath id="clip0_4675_188482">
<rect width="120" height="32" fill="white"/>
</clipPath>
</defs>
</svg>
