<svg width="140" height="24" viewBox="0 0 140 24" fill="none" xmlns="http://www.w3.org/2000/svg">
<path d="M15.0271 0.222179L14.5716 2.49599H11.2921L10.8366 0.222179H8.09299L7.63788 2.49599H4.75364L4.29853 0.222179H1.03613L1.62628 6.22469H17.1795L17.7749 0.206787L15.0271 0.222179Z" fill="white"/>
<path d="M1.80273 7.38292L1.88249 8.54046L2.18648 11.8378L2.19943 11.9872L2.20013 11.9855L2.75144 17.9659L9.39341 23.7932L9.40496 23.7267L9.4165 23.7932L16.0585 17.9659L16.9271 8.54011L17.003 7.44029L17.0236 7.38257H1.80273V7.38292ZM3.86456 9.74978H7.94587V19.9928L4.47744 16.8339L3.86456 9.74978ZM10.9865 19.8808V9.74978H14.945L14.3321 16.8339L10.9865 19.8808Z" fill="white"/>
<path d="M31.0342 4.21729L31.1937 6.67335L28.5886 6.82202L28.6418 19.5386L25.8135 19.5812C25.8702 17.6817 25.9146 15.8599 25.9464 14.1161C25.9783 12.3722 25.9944 10.6784 25.9944 9.03357V7.94913C25.9944 7.59477 25.9909 7.23691 25.9839 6.8752L22.9961 6.97104V4.54681L31.0342 4.21729Z" fill="white"/>
<path d="M36.0111 4.74882C36.6771 4.60715 37.262 4.53613 37.7654 4.53613C38.9348 4.53613 39.8279 4.8905 40.4446 5.59923C41.3377 6.65533 41.8586 7.97728 42.0076 9.5651C42.036 9.8628 42.0556 10.1643 42.0661 10.4687C42.0765 10.7734 42.0821 11.0924 42.0821 11.4258C42.0821 11.9998 42.0626 12.5973 42.0237 13.2172C41.9845 13.8374 41.9261 14.4877 41.8485 15.1681C41.5934 17.3017 40.7283 18.6806 39.2542 19.3044C38.6375 19.5737 38.0243 19.7084 37.4149 19.7084C36.5785 19.7084 35.7386 19.4464 34.8948 18.9217C33.5267 18.0852 32.8428 15.7922 32.8428 12.0425V11.5216C32.9064 7.47425 33.9625 5.21653 36.0111 4.74882ZM37.6377 7.19404H37.5314C36.6383 7.19404 36.0642 7.80377 35.8089 9.02289C35.5818 10.1357 35.4685 11.3478 35.4685 12.6592V12.9674C35.4685 13.0738 35.472 13.1801 35.479 13.2865C35.5217 14.8743 35.7484 15.9269 36.1594 16.4443C36.4784 16.8553 36.9108 17.061 37.4565 17.061C37.6052 17.061 37.779 17.0435 37.9774 17.0078C38.7785 16.8448 39.2427 16.0472 39.3704 14.6154C39.3987 14.2964 39.4183 13.9703 39.4288 13.6373C39.4393 13.3043 39.4449 12.9604 39.4449 12.6061C39.4449 12.1737 39.4344 11.7308 39.413 11.2771C39.3917 10.8234 39.3634 10.3592 39.328 9.88414C39.1724 8.14764 38.6088 7.25106 37.6377 7.19404Z" fill="white"/>
<path d="M46.1032 4.45136L47.5812 16.4875L49.5163 4.89808L53.4077 4.80223L55.1302 16.3703L56.5973 4.27051L59.6275 4.54686C58.9114 9.00563 58.1246 14.0346 57.2669 19.6345L53.1097 19.5281L51.419 7.94918L49.5902 19.5918L45.5284 19.7831C45.2164 17.756 44.8655 15.4877 44.4758 12.9785C44.0858 10.4693 43.6534 7.719 43.1787 4.72772L46.1032 4.45136Z" fill="white"/>
<path d="M67.0734 4.08936L67.1902 6.64127L63.203 6.85396V10.9367L66.478 10.6708L66.648 13.0314L63.3093 13.3396V16.8377L67.307 16.625L67.3707 19.0811L60.7361 19.4956V12.0001C60.7361 9.51921 60.7326 7.02047 60.7256 4.50424L67.0734 4.08936Z" fill="white"/>
<path d="M69.0215 19.3897C69.0498 16.6464 69.0694 14.0683 69.0799 11.6546C69.0904 9.24082 69.096 6.96037 69.096 4.81249C70.0387 4.62814 70.9742 4.53613 71.9029 4.53613C72.2433 4.53613 72.5816 4.54663 72.9184 4.56797C73.255 4.58931 73.5971 4.62464 73.9445 4.67431C75.5463 4.90834 76.489 5.77309 76.7727 7.26855C76.9004 8.01296 76.9641 8.69336 76.9641 9.31009C76.9641 9.95515 76.8896 10.5257 76.7409 11.0221C76.4572 12.0145 75.7201 12.8226 74.5294 13.4463L76.9641 19.1134L74.5717 19.9109L72.3388 14.2971L71.4562 14.3398L71.488 19.2627L69.0215 19.3897ZM71.4244 6.9817L71.4775 11.8833C72.6117 11.862 73.4302 11.4723 73.9336 10.7139C74.2243 10.2532 74.3695 9.7533 74.3695 9.21459C74.3695 8.86022 74.3058 8.47402 74.1781 8.05564C73.9231 7.2689 73.3204 6.87536 72.3706 6.87536C72.2286 6.87536 72.0799 6.88445 71.9239 6.90195C71.7679 6.91944 71.6014 6.94602 71.4244 6.9817Z" fill="white"/>
<path d="M85.002 9.00244L90.9971 14.9976" stroke="white"/>
<path d="M90.9971 9.00244L85.002 14.9976" stroke="white"/>
<g clip-path="url(#clip0_8684_212821)">
<path fill-rule="evenodd" clip-rule="evenodd" d="M120.626 8.49324C120.623 8.49039 120.621 8.48856 120.619 8.48718C120.622 8.48972 120.626 8.49324 120.626 8.49324ZM133.607 7.34069C133.616 7.33753 133.613 7.33851 133.607 7.34069ZM110.489 1.79283L111.579 1.69414C111.785 1.67542 111.924 1.52903 111.924 1.32991V0.83048C111.924 0.670186 111.817 0.518137 111.579 0.539757L110.489 0.638403C110.251 0.659978 110.144 0.831372 110.144 0.991666V1.49109C110.144 1.69026 110.283 1.81151 110.489 1.79283ZM130.855 6.06404C131.238 6.35757 131.708 6.48212 132.254 6.43273C133.01 6.3643 133.583 6.23904 134.008 6.05031C134.155 5.98336 134.24 5.8597 134.24 5.71078V5.28142C134.24 5.00064 134.006 4.93493 133.84 4.99146C133.439 5.12416 132.921 5.2179 132.254 5.27821C132.072 5.29471 131.916 5.24514 131.79 5.12928C131.664 5.01285 131.599 4.86602 131.599 4.69119V2.614C131.599 2.43998 131.664 2.28075 131.79 2.14226C131.916 2.00372 132.072 1.92571 132.254 1.90926C132.92 1.84899 133.453 1.84895 133.838 1.90864C134.027 1.93899 134.24 1.82528 134.24 1.54672V1.11724C134.24 0.976065 134.164 0.869306 134.018 0.818623C133.595 0.706738 133.018 0.685653 132.254 0.754835C131.709 0.804181 131.234 1.01765 130.844 1.3887C130.46 1.75222 130.257 2.21853 130.257 2.73547V4.81266C130.257 5.33812 130.458 5.75865 130.855 6.06404ZM113.276 8.15063L113.928 8.09166C114.135 8.07294 114.274 7.92637 114.274 7.72739V4.17286C114.274 4.00646 114.339 3.84559 114.464 3.70045C114.59 3.56267 114.746 3.48466 114.928 3.46812L115.805 3.38882C115.98 3.37295 116.131 3.42453 116.257 3.5476C116.384 3.66394 116.448 3.80837 116.448 3.97606V7.53054C116.448 7.72957 116.587 7.85095 116.794 7.83227L117.457 7.77227C117.489 7.76929 117.521 7.75899 117.551 7.74308C117.749 7.6377 117.79 7.50357 117.79 7.40907V3.85455C117.79 3.68748 117.856 3.52665 117.981 3.38209C118.107 3.24426 118.263 3.1663 118.445 3.14981L119.322 3.0705C119.499 3.05446 119.651 3.10599 119.786 3.22826C119.913 3.3446 119.977 3.48898 119.977 3.65668V7.2112C119.977 7.41018 120.116 7.53161 120.322 7.51293L120.973 7.454C121.18 7.43528 121.319 7.28872 121.319 7.08973V3.53521C121.319 3.00596 121.116 2.58811 120.721 2.29502C120.338 2.00011 119.867 1.87627 119.321 1.92562L118.445 2.00492C117.929 2.05168 117.484 2.23738 117.119 2.55775C116.756 2.30327 116.315 2.19775 115.805 2.24394L114.928 2.32328C114.388 2.37214 113.915 2.58075 113.518 2.94694C113.134 3.31063 112.931 3.77668 112.931 4.29438V7.8489C112.931 8.04793 113.07 8.16931 113.276 8.15063ZM120.641 8.50639C120.702 8.56305 120.763 8.63767 120.826 8.73034C120.889 8.8231 120.954 8.91979 121.021 9.02053L123.419 12.4481V8.78918C123.419 8.55146 123.47 8.36888 123.572 8.24148C123.575 8.23818 123.578 8.23528 123.581 8.23203L120.626 8.49324C120.631 8.49775 120.636 8.50176 120.641 8.50639ZM111.366 2.64579L110.703 2.70583C110.464 2.7274 110.357 2.89938 110.357 3.05985V8.08194C110.357 8.28093 110.496 8.40235 110.703 8.38368L111.366 8.32368C111.572 8.305 111.711 8.15843 111.711 7.9594V2.93731C111.711 2.77688 111.604 2.62417 111.366 2.64579ZM121.988 2.11114C122.066 2.06871 122.13 2.01089 122.181 1.94528L123.5 3.30288L122.713 3.56877C122.688 3.49255 122.643 3.4239 122.577 3.37277C122.382 3.22309 122.09 3.27078 121.922 3.47971C121.755 3.68859 121.777 3.97927 121.971 4.12905C122.165 4.2786 122.458 4.23028 122.625 4.02157C122.671 3.96438 122.701 3.90118 122.719 3.83574L123.508 4.20295C123.507 4.2186 123.505 4.23389 123.505 4.24949C123.505 5.93727 124.874 7.18164 126.563 7.02875C128.252 6.87585 129.622 5.38359 129.622 3.69581C129.622 2.00804 128.252 0.763795 126.563 0.91669C125.93 0.974014 125.342 1.21954 124.854 1.59313L124.188 1.13177C124.237 1.05488 124.269 0.966481 124.274 0.87198C124.287 0.599042 124.077 0.38646 123.804 0.397381C123.532 0.409328 123.3 0.640543 123.287 0.91406C123.274 1.18695 123.484 1.39954 123.757 1.38763C123.831 1.38478 123.902 1.3641 123.967 1.33174L124.112 2.2459L122.311 1.63476C122.323 1.53447 122.309 1.43221 122.265 1.33936C122.135 1.06847 121.8 0.974861 121.517 1.12999C121.235 1.28511 121.111 1.63102 121.241 1.90186C121.37 2.17275 121.706 2.26671 121.988 2.11114ZM127.242 5.01428C127.466 4.994 127.647 5.15977 127.647 5.38283C127.647 5.60683 127.466 5.80474 127.242 5.82507C127.018 5.84535 126.837 5.6802 126.837 5.45625C126.837 5.23315 127.018 5.03461 127.242 5.01428ZM125.832 5.14199C126.056 5.12166 126.238 5.28739 126.238 5.51045C126.238 5.7344 126.056 5.93236 125.832 5.95269C125.607 5.97302 125.426 5.80782 125.426 5.58391C125.426 5.36081 125.607 5.16223 125.832 5.14199ZM128.935 7.75734C128.925 7.75698 128.92 7.75681 128.919 7.75676C128.921 7.75685 128.929 7.75712 128.935 7.75734ZM128.009 8.78807L127.186 8.85596V13.0311L128.131 12.9531C128.338 12.936 128.5 12.917 128.618 12.8962C128.735 12.8753 128.857 12.8372 128.983 12.7821C129.109 12.727 129.218 12.655 129.311 12.5662C129.728 12.1793 129.936 11.5551 129.936 10.6935C129.936 10.0865 129.845 9.63947 129.661 9.35249C129.478 9.06551 129.252 8.89189 128.983 8.83148C128.714 8.77117 128.39 8.75664 128.009 8.78807ZM114.681 12.6489L116.52 12.4971L115.592 10.0351L114.681 12.6489ZM136.767 8.42344C136.707 8.42344 136.705 8.46605 136.705 8.46605C136.705 8.47127 136.706 8.47648 136.706 8.48174C136.706 8.63005 136.653 8.76792 136.548 8.89545C136.443 9.02307 136.312 9.09328 136.155 9.10621C136.013 9.11797 135.904 9.09127 135.83 9.02601C135.756 8.96084 135.675 8.8507 135.588 8.69557C135.476 8.47269 135.342 8.30264 135.185 8.18545C135.029 8.06835 134.777 8.02404 134.429 8.0527C134.108 8.07931 133.848 8.17141 133.651 8.32885C133.453 8.48647 133.354 8.6645 133.354 8.86313C133.354 8.98625 133.388 9.08976 133.455 9.17374C133.522 9.25776 133.615 9.32703 133.732 9.38164C133.85 9.43638 133.969 9.4769 134.089 9.50329C134.21 9.52972 134.408 9.5665 134.686 9.61352C135.033 9.66608 135.347 9.7296 135.628 9.80431C135.91 9.87902 136.149 9.97815 136.346 10.1017C136.544 10.2253 136.698 10.3895 136.808 10.5944C136.815 10.6059 136.82 10.6182 136.826 10.63V8.4661C136.826 8.46601 136.818 8.42344 136.767 8.42344ZM126.419 7.96208C126.394 7.96988 126.37 7.97817 126.347 7.98744L126.419 7.98107V7.96208ZM128.946 7.75765C128.943 7.75756 128.941 7.75752 128.939 7.75743C128.943 7.75756 128.946 7.75765 128.946 7.75765ZM135.845 13.16C135.475 13.3583 135.037 13.4784 134.53 13.5202C133.923 13.5703 133.422 13.497 133.027 13.3002C132.747 13.1582 132.52 12.9567 132.345 12.6956C132.17 12.4345 132.082 12.1738 132.082 11.9137C132.082 11.7626 132.135 11.6289 132.24 11.5125C132.345 11.3962 132.478 11.3313 132.641 11.3179C132.772 11.307 132.883 11.3398 132.974 11.4162C133.065 11.4927 133.143 11.6107 133.208 11.7704C133.286 11.9598 133.371 12.1165 133.462 12.2404C133.552 12.3645 133.681 12.4623 133.846 12.5339C134.011 12.6056 134.228 12.6304 134.497 12.6082C134.866 12.5777 135.166 12.4669 135.397 12.2758C135.628 12.0847 135.744 11.8605 135.744 11.6031C135.744 11.399 135.682 11.2384 135.557 11.1213C135.432 11.0043 135.271 10.9204 135.074 10.8696C134.877 10.8187 134.613 10.7692 134.283 10.7209C133.84 10.654 133.47 10.5634 133.172 10.4496C132.874 10.3357 132.637 10.1664 132.462 9.94165C132.287 9.71689 132.2 9.42697 132.2 9.07166C132.2 8.7332 132.292 8.42486 132.477 8.14667C132.662 7.86851 132.929 7.6443 133.279 7.47415C133.377 7.4265 133.48 7.38455 133.588 7.3472L128.946 7.75765C129.116 7.76318 129.273 7.77816 129.416 7.80339C129.718 7.85679 129.992 7.98102 130.239 8.17609C130.88 8.6715 131.2 9.47868 131.2 10.5976C131.2 10.9668 131.168 11.3066 131.104 11.6168C131.039 11.927 130.94 12.2101 130.806 12.4659C130.671 12.7218 130.499 12.9549 130.289 13.1652C130.124 13.3272 129.943 13.4609 129.747 13.5666C129.551 13.6723 129.341 13.7527 129.115 13.8075C128.89 13.8625 128.636 13.9016 128.353 13.925L126.728 14.0591C126.501 14.0778 126.33 14.0577 126.216 13.9986C126.101 13.9396 126.026 13.8492 125.991 13.7276C125.956 13.606 125.938 13.4459 125.938 13.2473V8.73649C125.938 8.46792 125.999 8.26858 126.119 8.13838C126.177 8.0753 126.254 8.0252 126.347 7.98749L124.397 8.1599C124.401 8.16418 124.406 8.16793 124.41 8.17239C124.514 8.2828 124.565 8.45682 124.565 8.69455V13.5326C124.565 14.0725 124.341 14.3609 123.894 14.3979C123.782 14.4072 123.681 14.3993 123.591 14.3746C123.502 14.3498 123.418 14.3057 123.339 14.2422C123.261 14.1788 123.188 14.103 123.121 14.0148C123.054 13.9266 122.987 13.8364 122.919 13.744L120.58 10.3535V13.958C120.58 14.1929 120.526 14.3751 120.417 14.5043C120.307 14.6336 120.167 14.7054 119.997 14.7195C119.82 14.734 119.679 14.6848 119.573 14.5719C119.466 14.459 119.413 14.2865 119.413 14.0543V9.30849C119.413 9.1071 119.435 8.94725 119.48 8.82877C119.518 8.73525 119.575 8.65233 119.649 8.57959L116.194 8.88511C116.24 8.92318 116.281 8.96624 116.316 9.01433C116.387 9.11196 116.448 9.21822 116.497 9.33301C116.546 9.44792 116.608 9.60149 116.683 9.79388L118.292 13.6306C118.418 13.9224 118.481 14.1367 118.481 14.2738C118.481 14.4165 118.421 14.5522 118.302 14.6809C118.183 14.8095 118.04 14.8809 117.872 14.8947C117.774 14.9028 117.69 14.8922 117.62 14.8631C117.55 14.8338 117.491 14.7913 117.444 14.735C117.396 14.6788 117.345 14.5907 117.29 14.4706C117.236 14.3508 117.189 14.2448 117.15 14.1529L116.856 13.4051L114.353 13.6116L114.059 14.4247C113.944 14.7419 113.846 14.9577 113.765 15.0721C113.684 15.1863 113.551 15.2513 113.366 15.2665C113.209 15.2794 113.071 15.2335 112.95 15.1288C112.83 15.024 112.77 14.8989 112.77 14.7534C112.77 14.6695 112.784 14.5816 112.812 14.4898C112.84 14.398 112.886 14.2696 112.95 14.1049L114.525 9.98029C114.57 9.86194 114.624 9.71975 114.687 9.55366C114.75 9.38766 114.817 9.24854 114.888 9.13629C114.922 9.08347 114.961 9.03493 115.004 8.99026L110.964 9.34749C110.999 9.35752 111.032 9.36831 111.065 9.38048C111.258 9.44569 111.429 9.54764 111.577 9.68645C111.726 9.82526 111.838 9.99157 111.915 10.1852C111.992 10.3788 112.031 10.5875 112.031 10.8113C112.031 11.2701 111.901 11.6473 111.642 11.9428C111.383 12.2383 110.991 12.4651 110.464 12.6232C110.686 12.7225 110.897 12.8785 111.099 13.0912C111.3 13.304 111.48 13.5332 111.638 13.7789C111.796 14.0247 111.92 14.2481 112.008 14.4492C112.096 14.6503 112.14 14.7901 112.14 14.8683C112.14 14.9495 112.114 15.032 112.062 15.1161C112.01 15.2 111.94 15.2688 111.85 15.3223C111.761 15.3759 111.657 15.4075 111.539 15.4173C111.399 15.4288 111.282 15.4056 111.187 15.3477C111.091 15.2899 111.01 15.2133 110.941 15.1183C110.872 15.0233 110.779 14.8827 110.662 14.6966L110.162 13.907C109.983 13.6169 109.823 13.3979 109.681 13.2502C109.54 13.1023 109.396 13.0051 109.251 12.9584C109.105 12.9116 108.922 12.8974 108.701 12.9156L108.264 12.9517V14.928C108.264 15.1882 108.207 15.3846 108.092 15.5171C107.977 15.6497 107.827 15.7236 107.643 15.7388C107.444 15.7552 107.29 15.7036 107.181 15.5839C107.072 15.4643 107.017 15.28 107.017 15.031V10.2978C107.017 10.0292 107.077 9.82989 107.197 9.69964C107.204 9.69229 107.212 9.68569 107.219 9.67865L104.755 9.89658C104.814 9.91793 104.871 9.94245 104.926 9.97102C105.071 10.0457 105.2 10.145 105.312 10.2685C105.424 10.3922 105.509 10.5321 105.568 10.688C105.627 10.844 105.656 11.0116 105.656 11.1905C105.656 11.806 105.348 12.2817 104.733 12.6179C105.542 12.8085 105.946 13.2759 105.946 14.0199C105.946 14.364 105.858 14.6811 105.682 14.9712C105.505 15.2613 105.267 15.4845 104.968 15.6406C104.78 15.7345 104.565 15.8075 104.321 15.8597C104.077 15.912 103.793 15.9515 103.469 15.9783L101.587 16.1335C101.316 16.156 101.122 16.1111 101.006 15.999C100.995 15.9882 100.984 15.9764 100.974 15.9642V16.2078C100.974 16.2078 100.997 16.2526 101.042 16.2645C102.585 16.6687 129.655 23.7603 129.655 23.7603L136.826 12.4668V12.1205C136.787 12.214 136.741 12.3053 136.687 12.394C136.495 12.7064 136.214 12.9617 135.845 13.16ZM136.836 12.0967C136.833 12.1028 136.83 12.1095 136.827 12.117C136.829 12.1129 136.832 12.1053 136.836 12.0967ZM139.227 0.619681C138.844 0.324812 138.373 0.20098 137.828 0.250281C137.145 0.312063 136.631 0.401483 136.291 0.519207C136.048 0.611791 136.022 0.792903 136.022 0.866275V1.31533C136.022 1.40243 136.045 1.47424 136.09 1.52872C136.147 1.59767 136.233 1.63057 136.332 1.62161C136.349 1.62014 136.388 1.61314 136.404 1.60833C136.668 1.52809 137.147 1.45682 137.828 1.39517C138.003 1.3793 138.154 1.43092 138.28 1.55395C138.408 1.67024 138.471 1.81467 138.471 1.98236V2.27937L136.951 2.41693C136.405 2.46637 135.931 2.67917 135.541 3.05018C135.152 3.4198 134.954 3.86962 134.954 4.38741C134.954 4.91207 135.156 5.333 135.552 5.63887C135.935 5.93232 136.406 6.05682 136.951 6.00747L139.479 5.77866C139.676 5.76088 139.813 5.61115 139.813 5.41542V1.86085C139.813 1.3439 139.61 0.914416 139.227 0.619681ZM138.471 4.71535L136.951 4.85291C136.769 4.86941 136.613 4.81979 136.487 4.70394C136.361 4.58755 136.296 4.44077 136.296 4.26589C136.296 4.09807 136.361 3.94201 136.487 3.8036C136.613 3.66577 136.769 3.58776 136.951 3.57127L138.471 3.43366V4.71535ZM108.264 12.0579L109.381 11.9658C109.681 11.9411 109.933 11.8945 110.137 11.8258C110.341 11.7572 110.497 11.6562 110.605 11.5228C110.713 11.3895 110.767 11.2136 110.767 10.9954C110.767 10.8248 110.723 10.678 110.637 10.5551C110.55 10.4322 110.429 10.3449 110.275 10.2933C110.13 10.2438 109.843 10.2366 109.415 10.272L108.264 10.3669V12.0579H108.264ZM104.355 13.3834C104.136 13.2616 103.81 13.2185 103.376 13.2543L102.079 13.3614V15.1572L103.418 15.0467C104.261 14.9772 104.682 14.639 104.682 14.0319C104.682 13.7214 104.573 13.5053 104.355 13.3834ZM104.623 8.93396L105.275 8.87495C105.482 8.85627 105.62 8.70975 105.62 8.51072V4.9562C105.62 4.78984 105.686 4.62897 105.811 4.48369C105.937 4.34595 106.093 4.26795 106.275 4.25145L107.152 4.17211C107.327 4.15624 107.478 4.2079 107.604 4.33089C107.731 4.44723 107.795 4.59161 107.795 4.7593V8.31383C107.795 8.51281 107.934 8.63424 108.14 8.6156L108.803 8.55552C109 8.53777 109.137 8.388 109.137 8.19231V4.63779C109.137 4.10859 108.935 3.69078 108.539 3.39765C108.156 3.10273 107.69 2.97854 107.152 3.02722L106.275 3.10657C105.735 3.15547 105.261 3.36408 104.865 3.73027C104.481 4.09397 104.278 4.56001 104.278 5.07771V8.63223C104.278 8.83117 104.417 8.95264 104.623 8.93396ZM104.755 9.89658C104.752 9.89564 104.751 9.89515 104.749 9.89439C104.752 9.8956 104.755 9.89658 104.755 9.89658ZM102.079 12.4676L103.221 12.3734C103.532 12.3478 103.772 12.2985 103.941 12.2258C104.11 12.1531 104.24 12.0306 104.329 11.8581C104.399 11.7348 104.434 11.6004 104.434 11.455C104.434 11.1445 104.324 10.9474 104.103 10.8634C103.882 10.7796 103.544 10.7564 103.091 10.7938L102.079 10.8772V12.4676H102.079ZM103.047 8.74367V5.18915C103.047 4.6722 102.844 4.24272 102.46 3.94798C102.077 3.65311 101.606 3.52928 101.061 3.57858C100.378 3.64036 99.8639 3.72978 99.5237 3.84751C99.2813 3.94013 99.2552 4.1212 99.2552 4.19457V4.64363C99.2552 4.73073 99.2783 4.80254 99.323 4.85701C99.3806 4.92597 99.4667 4.95887 99.5656 4.94991C99.5819 4.94844 99.6216 4.94144 99.6376 4.93663C99.9013 4.85635 100.38 4.78511 101.061 4.72347C101.236 4.7076 101.387 4.75922 101.514 4.88224C101.641 4.99859 101.704 5.14297 101.704 5.31066V5.60772L100.185 5.74523C99.6388 5.79467 99.1645 6.00747 98.7746 6.37839C98.385 6.7481 98.1875 7.19791 98.1875 7.71566C98.1875 8.24032 98.3888 8.66165 98.7859 8.96708C99.1685 9.26057 99.6391 9.38507 100.185 9.33568L102.713 9.10687C102.91 9.08909 103.047 8.93936 103.047 8.74367ZM101.704 8.04365L100.185 8.18121C100.002 8.19771 99.8463 8.14814 99.7208 8.03224C99.5937 7.9159 99.5298 7.76902 99.5298 7.59419C99.5298 7.42637 99.5937 7.27031 99.7208 7.1319C99.8463 6.99411 100.002 6.91606 100.185 6.89957L101.704 6.76201V8.04365Z" fill="#12ACEC"/>
</g>
<defs>
<clipPath id="clip0_8684_212821">
<rect width="42" height="24" fill="white" transform="translate(98)"/>
</clipPath>
</defs>
</svg>
