<svg width="104" height="20" viewBox="0 0 104 20" fill="none" xmlns="http://www.w3.org/2000/svg">
<path d="M27.4482 14.9277V9.62082H25.4893V6.40505H27.5004L27.7091 3.05835H31.3919V6.40505H36.6152V9.62082H31.3919V14.7975C31.3919 16.131 31.8358 16.7319 32.855 16.7319C33.874 16.7319 34.1082 16.0001 34.1082 15.7126H36.929V17.4904C36.381 18.8761 35.0224 20 32.542 20C29.3036 20 27.4482 18.0904 27.4482 14.9277Z" fill="white"/>
<path d="M47.6632 12.0003L45.4174 19.6079H41.8656L37.9219 8.23578V6.40576H41.4737L43.9027 14.2753L46.2807 6.40576H49.5188L51.9732 14.2489L54.3242 6.40576H57.6674V8.15708L53.6201 19.6079H50.0667L47.6632 12.0003Z" fill="white"/>
<path d="M58.9209 13.0454C58.9209 9.17648 61.4279 6.01294 65.8685 6.01294C70.3092 6.01294 72.2667 8.70574 72.2667 12.2349C72.2667 13.1499 72.0835 13.9082 72.0835 13.9082H62.8901C63.1258 15.6859 64.1706 16.8364 66.1027 16.8364C68.4536 16.8364 68.9235 15.6338 68.9235 15.6338H72.0054V17.3851C72.0054 17.3851 70.7265 19.9991 66.0246 19.9991C61.3244 19.9991 58.9209 16.9673 58.9209 13.0454ZM68.4791 11.5287C68.4791 10.2739 67.6174 9.15001 65.8415 9.15001C64.0655 9.15001 63.2819 10.1437 62.9681 11.5287H68.4791Z" fill="white"/>
<path d="M74.1475 13.0454C74.1475 9.17648 76.6545 6.01294 81.0951 6.01294C85.5357 6.01294 87.4932 8.70574 87.4932 12.2349C87.4932 13.1499 87.3101 13.9082 87.3101 13.9082H78.1166C78.3523 15.6859 79.3972 16.8364 81.3292 16.8364C83.6801 16.8364 84.15 15.6338 84.15 15.6338H87.232V17.3851C87.232 17.3851 85.953 19.9991 81.2512 19.9991C76.5509 19.9991 74.1475 16.9673 74.1475 13.0454ZM83.7056 11.5287C83.7056 10.2739 82.8439 9.15001 81.068 9.15001C79.2921 9.15001 78.5084 10.1437 78.1947 11.5287H83.7056Z" fill="white"/>
<path d="M89.4014 13.0197C89.4014 9.07214 91.7252 6.01303 95.3567 6.01303C97.2632 6.01303 98.6728 6.82359 99.6142 8.18287V0H103.531V19.608H99.8738L99.6397 17.7257C98.778 19.1116 97.2107 20 95.2771 20C91.5691 20 89.4014 16.8629 89.4014 13.0197ZM99.6142 12.9933C99.6142 11.0588 98.3607 9.56862 96.4796 9.56862C94.4425 9.56862 93.345 11.0853 93.345 13.0197C93.345 14.9543 94.4425 16.4445 96.4796 16.4445C98.3607 16.4445 99.6142 14.9543 99.6142 12.9933Z" fill="white"/>
<path d="M0 9.01636V15.975C0 18.1977 1.79728 19.9999 4.01552 19.9999H5.40982V12.1463L0 9.01636Z" fill="white"/>
<path d="M0 5.40991V6.66604L7.92208 11.2391V20H9.01646V10.6073L0 5.40991Z" fill="white"/>
<path d="M0.645554 1.80347C0.441362 2.10689 0.278901 2.43974 0.164062 2.79467L11.5241 9.3267L11.5291 9.32916V12.1662L11.5241 12.1638V20.0001H15.9939C17.8698 20.0001 19.444 18.7146 19.8796 16.9791L12.6233 12.7967V9.9597L20.0002 14.2108V12.9456L0.645554 1.80347Z" fill="white"/>
<path d="M20.0004 4.0367C20.0004 1.80759 18.2172 0 16.0181 0H4.07169C3.74135 0 3.42184 0.0413321 3.11523 0.118199L20.0004 10V4.0367Z" fill="white"/>
</svg>
