<svg width="24" height="24" viewBox="0 0 24 24" fill="none" xmlns="http://www.w3.org/2000/svg">
    <rect width="24" height="24" rx="4" fill="white"/>
    <path d="M6.5564 12.0683L12.0001 2.99805V9.7724L6.5564 12.0683Z" fill="url(#paint0_linear_4516_75145)"/>
    <path d="M17.4437 12.0683L12 2.99805V9.7724L17.4437 12.0683Z" fill="url(#paint1_linear_4516_75145)"/>
    <path d="M12.0001 9.75146L6.5564 12.0478L12.0001 15.226V9.75146Z" fill="url(#paint2_linear_4516_75145)"/>
    <path d="M12 9.75146L17.4437 12.0478L12 15.226V9.75146Z" fill="url(#paint3_linear_4516_75145)"/>
    <path d="M6.5564 13.111L12.0001 21.002V16.2891L6.5564 13.111Z" fill="url(#paint4_linear_4516_75145)"/>
    <path d="M17.4437 13.111L12 21.002V16.2891L17.4437 13.111Z" fill="url(#paint5_linear_4516_75145)"/>
    <path d="M9.06567 7.9928L9.36227 13.399" stroke="#B0B4E9" stroke-width="0.178672"/>
    <path d="M14.7973 7.9928L14.5007 13.399" stroke="#B0B4E9" stroke-width="0.178672"/>
    <path d="M12.0086 9.78851L9.36279 13.3547" stroke="#B0B4E9" stroke-width="0.178672"/>
    <path d="M11.9048 9.78851L14.5506 13.3547" stroke="#B0B4E9" stroke-width="0.178672"/>
    <path d="M9.08065 8.71063C9.45069 8.71063 9.75066 8.41065 9.75066 8.04062C9.75066 7.67058 9.45069 7.37061 9.08065 7.37061C8.71062 7.37061 8.41064 7.67058 8.41064 8.04062C8.41064 8.41065 8.71062 8.71063 9.08065 8.71063Z" fill="url(#paint6_linear_4516_75145)"/>
    <path d="M9.54901 7.78655C9.51367 7.82592 9.42151 7.80086 9.34322 7.73063C9.26493 7.66039 9.23049 7.57137 9.26583 7.532C9.30117 7.49263 9.39333 7.51768 9.47162 7.58792C9.5499 7.65816 9.58435 7.74718 9.54901 7.78655Z" fill="url(#paint7_radial_4516_75145)"/>
    <path d="M9.36312 14.0243C9.73316 14.0243 10.0331 13.7243 10.0331 13.3543C10.0331 12.9842 9.73316 12.6843 9.36312 12.6843C8.99309 12.6843 8.69312 12.9842 8.69312 13.3543C8.69312 13.7243 8.99309 14.0243 9.36312 14.0243Z" fill="url(#paint8_linear_4516_75145)"/>
    <path d="M9.83221 13.1001C9.79687 13.1395 9.70471 13.1144 9.62643 13.0442C9.54814 12.9739 9.51369 12.8849 9.54903 12.8455C9.58437 12.8062 9.67653 12.8312 9.75482 12.9015C9.83311 12.9717 9.86755 13.0607 9.83221 13.1001Z" fill="url(#paint9_radial_4516_75145)"/>
    <path d="M14.8145 8.71063C15.1846 8.71063 15.4846 8.41065 15.4846 8.04062C15.4846 7.67058 15.1846 7.37061 14.8145 7.37061C14.4445 7.37061 14.1445 7.67058 14.1445 8.04062C14.1445 8.41065 14.4445 8.71063 14.8145 8.71063Z" fill="url(#paint10_linear_4516_75145)"/>
    <path d="M15.2836 7.78643C15.2483 7.82579 15.1561 7.80074 15.0778 7.73051C14.9996 7.66027 14.9651 7.57125 15.0004 7.53188C15.0358 7.49251 15.1279 7.51756 15.2062 7.5878C15.2845 7.65803 15.319 7.74706 15.2836 7.78643Z" fill="url(#paint11_radial_4516_75145)"/>
    <path d="M14.5006 14.0244C14.8706 14.0244 15.1706 13.7244 15.1706 13.3544C15.1706 12.9844 14.8706 12.6844 14.5006 12.6844C14.1305 12.6844 13.8306 12.9844 13.8306 13.3544C13.8306 13.7244 14.1305 14.0244 14.5006 14.0244Z" fill="url(#paint12_linear_4516_75145)"/>
    <path d="M14.9694 13.1003C14.9341 13.1397 14.8419 13.1146 14.7636 13.0444C14.6853 12.9742 14.6509 12.8851 14.6862 12.8458C14.7216 12.8064 14.8137 12.8315 14.892 12.9017C14.9703 12.9719 15.0052 13.061 14.9694 13.1003Z" fill="url(#paint13_radial_4516_75145)"/>
    <path d="M12.0086 10.4589C12.3787 10.4589 12.6786 10.1589 12.6786 9.78884C12.6786 9.41881 12.3787 9.11884 12.0086 9.11884C11.6386 9.11884 11.3386 9.41881 11.3386 9.78884C11.3386 10.1589 11.6386 10.4589 12.0086 10.4589Z" fill="url(#paint14_linear_4516_75145)"/>
    <path d="M12.4767 9.53478C12.4414 9.57415 12.3492 9.54909 12.271 9.47886C12.1927 9.40862 12.1582 9.3196 12.1936 9.28023C12.2289 9.24086 12.3211 9.26591 12.3993 9.33615C12.4776 9.40639 12.5125 9.49541 12.4767 9.53478Z" fill="url(#paint15_radial_4516_75145)"/>
    <defs>
        <linearGradient id="paint0_linear_4516_75145" x1="6.43654" y1="11.9486" x2="13.6937" y2="4.69146" gradientUnits="userSpaceOnUse">
            <stop offset="0.3243" stop-color="#AC9CF2"/>
            <stop offset="0.326" stop-color="#AC9CF2"/>
            <stop offset="0.4645" stop-color="#B1B3EA"/>
            <stop offset="0.6134" stop-color="#B4C3E5"/>
            <stop offset="0.7803" stop-color="#B6CDE2"/>
            <stop offset="1" stop-color="#B7D0E1"/>
        </linearGradient>
        <linearGradient id="paint1_linear_4516_75145" x1="17.5635" y1="11.9486" x2="10.3064" y2="4.69146" gradientUnits="userSpaceOnUse">
            <stop offset="0.3243" stop-color="#B2DBF5"/>
            <stop offset="0.4427" stop-color="#C4E3F4"/>
            <stop offset="0.5977" stop-color="#D4EAF4"/>
            <stop offset="0.7713" stop-color="#DEEFF3"/>
            <stop offset="1" stop-color="#E1F0F3"/>
        </linearGradient>
        <linearGradient id="paint2_linear_4516_75145" x1="8.95126" y1="12.4888" x2="14.4242" y2="12.4888" gradientUnits="userSpaceOnUse">
            <stop offset="0.3243" stop-color="#D6CDFB"/>
            <stop offset="0.4284" stop-color="#D9D4FA"/>
            <stop offset="0.6546" stop-color="#DCDEF9"/>
            <stop offset="0.9528" stop-color="#DDE1F9"/>
        </linearGradient>
        <linearGradient id="paint3_linear_4516_75145" x1="15.0488" y1="12.4888" x2="9.57587" y2="12.4888" gradientUnits="userSpaceOnUse">
            <stop offset="0.3243" stop-color="#ECF2F2"/>
            <stop offset="0.3653" stop-color="#EEF4F3"/>
            <stop offset="0.6187" stop-color="#F8FAF6"/>
            <stop offset="0.9528" stop-color="#FBFCF7"/>
        </linearGradient>
        <linearGradient id="paint4_linear_4516_75145" x1="6.55629" y1="17.0565" x2="12.0001" y2="17.0565" gradientUnits="userSpaceOnUse">
            <stop offset="0.3243" stop-color="#6E89D3"/>
            <stop offset="0.3255" stop-color="#6E89D3"/>
            <stop offset="0.5001" stop-color="#6A83E3"/>
            <stop offset="0.6954" stop-color="#6880ED"/>
            <stop offset="0.9528" stop-color="#677FF0"/>
        </linearGradient>
        <linearGradient id="paint5_linear_4516_75145" x1="17.4438" y1="17.0565" x2="12" y2="17.0565" gradientUnits="userSpaceOnUse">
            <stop offset="0.3243" stop-color="#C4C5FC"/>
            <stop offset="0.5439" stop-color="#C8CBF8"/>
            <stop offset="0.9528" stop-color="#CACEF6"/>
        </linearGradient>
        <linearGradient id="paint6_linear_4516_75145" x1="8.78827" y1="8.60783" x2="9.40214" y2="7.41644" gradientUnits="userSpaceOnUse">
            <stop stop-color="#718BD4"/>
            <stop offset="0.0121" stop-color="#758ED5"/>
            <stop offset="0.0579" stop-color="#7790D6"/>
            <stop offset="0.099" stop-color="#7A92D7"/>
            <stop offset="0.2589" stop-color="#889DDD"/>
            <stop offset="0.473" stop-color="#9AAAE4"/>
            <stop offset="0.695" stop-color="#AEB9EC"/>
            <stop offset="1" stop-color="#C6CBF5"/>
        </linearGradient>
        <radialGradient id="paint7_radial_4516_75145" cx="0" cy="0" r="1" gradientUnits="userSpaceOnUse" gradientTransform="translate(9.41409 7.66387) rotate(42.0004) scale(0.145004)">
            <stop stop-color="#DADCF4"/>
            <stop offset="0.00819061" stop-color="#DADCF4"/>
            <stop offset="0.0579" stop-color="#DADCF4"/>
            <stop offset="0.099" stop-color="#DADCF4"/>
            <stop offset="0.473" stop-color="#DADCF4"/>
            <stop offset="1" stop-color="#DADCF4"/>
        </radialGradient>
        <linearGradient id="paint8_linear_4516_75145" x1="9.07077" y1="13.9214" x2="9.68465" y2="12.73" gradientUnits="userSpaceOnUse">
            <stop stop-color="#718BD4"/>
            <stop offset="0.0121" stop-color="#758ED5"/>
            <stop offset="0.0579" stop-color="#7790D6"/>
            <stop offset="0.099" stop-color="#7A92D7"/>
            <stop offset="0.2589" stop-color="#889DDD"/>
            <stop offset="0.473" stop-color="#9AAAE4"/>
            <stop offset="0.695" stop-color="#AEB9EC"/>
            <stop offset="1" stop-color="#C6CBF5"/>
        </linearGradient>
        <radialGradient id="paint9_radial_4516_75145" cx="0" cy="0" r="1" gradientUnits="userSpaceOnUse" gradientTransform="translate(9.69727 12.977) rotate(42.0004) scale(0.145004)">
            <stop stop-color="#DADCF4"/>
            <stop offset="0.00819061" stop-color="#DADCF4"/>
            <stop offset="0.0579" stop-color="#DADCF4"/>
            <stop offset="0.099" stop-color="#DADCF4"/>
            <stop offset="0.473" stop-color="#DADCF4"/>
            <stop offset="1" stop-color="#DADCF4"/>
        </radialGradient>
        <linearGradient id="paint10_linear_4516_75145" x1="14.5222" y1="8.60783" x2="15.1361" y2="7.41644" gradientUnits="userSpaceOnUse">
            <stop stop-color="#718BD4"/>
            <stop offset="0.0121" stop-color="#758ED5"/>
            <stop offset="0.0579" stop-color="#7790D6"/>
            <stop offset="0.099" stop-color="#7A92D7"/>
            <stop offset="0.2589" stop-color="#889DDD"/>
            <stop offset="0.473" stop-color="#9AAAE4"/>
            <stop offset="0.695" stop-color="#AEB9EC"/>
            <stop offset="1" stop-color="#C6CBF5"/>
        </linearGradient>
        <radialGradient id="paint11_radial_4516_75145" cx="0" cy="0" r="1" gradientUnits="userSpaceOnUse" gradientTransform="translate(15.1484 7.66379) rotate(42.0004) scale(0.145004)">
            <stop stop-color="#DADCF4"/>
            <stop offset="0.00819061" stop-color="#DADCF4"/>
            <stop offset="0.0579" stop-color="#DADCF4"/>
            <stop offset="0.099" stop-color="#DADCF4"/>
            <stop offset="0.473" stop-color="#DADCF4"/>
            <stop offset="1" stop-color="#DADCF4"/>
        </radialGradient>
        <linearGradient id="paint12_linear_4516_75145" x1="14.2083" y1="13.9215" x2="14.8222" y2="12.7301" gradientUnits="userSpaceOnUse">
            <stop stop-color="#718BD4"/>
            <stop offset="0.0121" stop-color="#758ED5"/>
            <stop offset="0.0579" stop-color="#7790D6"/>
            <stop offset="0.099" stop-color="#7A92D7"/>
            <stop offset="0.2589" stop-color="#889DDD"/>
            <stop offset="0.473" stop-color="#9AAAE4"/>
            <stop offset="0.695" stop-color="#AEB9EC"/>
            <stop offset="1" stop-color="#C6CBF5"/>
        </linearGradient>
        <radialGradient id="paint13_radial_4516_75145" cx="0" cy="0" r="1" gradientUnits="userSpaceOnUse" gradientTransform="translate(14.8343 12.9773) rotate(42.0006) scale(0.145003)">
            <stop stop-color="#DADCF4"/>
            <stop offset="0.00819061" stop-color="#DADCF4"/>
            <stop offset="0.0579" stop-color="#DADCF4"/>
            <stop offset="0.099" stop-color="#DADCF4"/>
            <stop offset="0.473" stop-color="#DADCF4"/>
            <stop offset="1" stop-color="#DADCF4"/>
        </radialGradient>
        <linearGradient id="paint14_linear_4516_75145" x1="11.7163" y1="10.356" x2="12.3302" y2="9.16459" gradientUnits="userSpaceOnUse">
            <stop stop-color="#718BD4"/>
            <stop offset="0.0121" stop-color="#758ED5"/>
            <stop offset="0.0579" stop-color="#7790D6"/>
            <stop offset="0.099" stop-color="#7A92D7"/>
            <stop offset="0.2589" stop-color="#889DDD"/>
            <stop offset="0.473" stop-color="#9AAAE4"/>
            <stop offset="0.695" stop-color="#AEB9EC"/>
            <stop offset="1" stop-color="#C6CBF5"/>
        </linearGradient>
        <radialGradient id="paint15_radial_4516_75145" cx="0" cy="0" r="1" gradientUnits="userSpaceOnUse" gradientTransform="translate(12.3418 9.41195) rotate(42.0006) scale(0.145003)">
            <stop stop-color="#DADCF4"/>
            <stop offset="0.00819061" stop-color="#DADCF4"/>
            <stop offset="0.0579" stop-color="#DADCF4"/>
            <stop offset="0.099" stop-color="#DADCF4"/>
            <stop offset="0.473" stop-color="#DADCF4"/>
            <stop offset="1" stop-color="#DADCF4"/>
        </radialGradient>
    </defs>
</svg>
