<svg width="24" height="24" viewBox="0 0 24 24" fill="none" xmlns="http://www.w3.org/2000/svg">
<g clip-path="url(#clip0_4429_156409)">
<circle cx="12" cy="12" r="12" fill="#222247"/>
<path fill-rule="evenodd" clip-rule="evenodd" d="M12 24C18.6274 24 24 18.6274 24 12C24 5.37258 18.6274 0 12 0C5.37258 0 0 5.37258 0 12C0 18.6274 5.37258 24 12 24ZM11.6699 11.2159L7.20528 6.75139C7.16064 6.70624 7.10365 6.67533 7.04147 6.66259C6.97926 6.64982 6.91469 6.65578 6.85587 6.67971C6.79709 6.70365 6.74669 6.74445 6.71107 6.79702C6.67546 6.84957 6.65622 6.91149 6.65581 6.97498V11.9207C6.64938 11.9461 6.64611 11.9724 6.64611 11.9988V17.0226C6.64579 17.0648 6.65389 17.1068 6.66989 17.1459C6.68592 17.185 6.70957 17.2205 6.73946 17.2504C6.76931 17.2803 6.80486 17.3039 6.84397 17.3199C6.88301 17.3359 6.92486 17.344 6.96707 17.3437C6.9703 17.3438 6.97354 17.3438 6.97677 17.3438H12.0101C12.0522 17.3438 12.0938 17.3355 12.1326 17.3193C12.1715 17.3031 12.2067 17.2794 12.2363 17.2496C12.266 17.2197 12.2894 17.1843 12.3053 17.1453C12.3212 17.1064 12.3292 17.0647 12.3289 17.0227V12.7811L16.794 17.2462H16.7964C16.8273 17.2778 16.8644 17.3027 16.9052 17.3195C16.9461 17.3362 16.99 17.3445 17.0342 17.3438C17.0763 17.3438 17.1179 17.3355 17.1567 17.3193C17.1956 17.3031 17.2308 17.2794 17.2604 17.2496C17.2901 17.2197 17.3135 17.1843 17.3294 17.1453C17.3453 17.1064 17.3533 17.0647 17.353 17.0226V11.9988C17.353 11.9856 17.3521 11.9724 17.3505 11.9594V6.97501C17.3505 6.93315 17.3423 6.89171 17.3263 6.85306C17.3102 6.81437 17.2868 6.77923 17.2572 6.74963C17.2276 6.72003 17.1924 6.69654 17.1538 6.68054C17.1183 6.66586 17.0805 6.6577 17.0422 6.65645C17.0337 6.65603 17.0251 6.65597 17.0165 6.65622L17.014 6.65629H11.991C11.9489 6.65597 11.9072 6.664 11.8683 6.67987C11.8293 6.69574 11.7939 6.71917 11.764 6.7488C11.7342 6.77843 11.7105 6.81366 11.6943 6.85251C11.6782 6.89133 11.6699 6.93296 11.6699 6.97504V11.2159Z" fill="#DF42AB"/>
</g>
<defs>
<clipPath id="clip0_4429_156409">
<rect width="24" height="24" fill="white"/>
</clipPath>
</defs>
</svg>
